/* XPM */
static char *pers_8_4[] = {
/* columns rows colors chars-per-pixel */
"50 50 244 2 ",
"   c #18191B",
".  c #100F10",
"X  c #1A1C26",
"o  c #181E37",
"O  c #281E25",
"+  c #1C2134",
"@  c #282429",
"#  c #2A2836",
"$  c #372C37",
"%  c #3B333A",
"&  c #332D2E",
"*  c #301216",
"=  c #461A1E",
"-  c #4E1C21",
";  c #5A2A2F",
":  c #5A2935",
">  c #4E2F32",
",  c #643939",
"<  c #6D3034",
"1  c #1A284D",
"2  c #383548",
"3  c #2B304C",
"4  c #2C3D6E",
"5  c #192854",
"6  c #463848",
"7  c #563D4A",
"8  c #4F3B55",
"9  c #653948",
"0  c #763645",
"q  c #703C56",
"w  c #4B3A60",
"e  c #3A4253",
"r  c #37456D",
"t  c #1B4579",
"y  c #48434A",
"u  c #57464C",
"i  c #57485C",
"p  c #564C50",
"a  c #684348",
"s  c #794849",
"d  c #6A4B57",
"f  c #784A57",
"g  c #725656",
"h  c #464667",
"j  c #594966",
"k  c #515673",
"l  c #674B65",
"z  c #67556A",
"x  c #775767",
"c  c #685675",
"v  c #785A75",
"b  c #664E6E",
"n  c #6A686B",
"m  c #746B69",
"M  c #676578",
"N  c #78657B",
"B  c #7A7A77",
"V  c #5D606B",
"C  c #80393A",
"Z  c #803D48",
"A  c #875958",
"S  c #8E5154",
"D  c #82655D",
"F  c #855B67",
"G  c #925D6A",
"H  c #8C6D6A",
"J  c #866868",
"K  c #95686A",
"L  c #8C716C",
"P  c #896875",
"I  c #8B7774",
"U  c #987978",
"Y  c #947171",
"T  c #A47876",
"R  c #9C847D",
"E  c #8D847E",
"W  c #A1837F",
"Q  c #1C5189",
"!  c #32578C",
"~  c #366697",
"^  c #327AA6",
"/  c #56598A",
"(  c #475186",
")  c #695B85",
"_  c #715C8C",
"`  c #526D98",
"'  c #796788",
"]  c #766A93",
"[  c #707095",
"{  c #587AB6",
"}  c #4B6FA6",
"|  c #6D77A5",
" . c #5656A9",
".. c #656AEA",
"X. c #866B86",
"o. c #8A7588",
"O. c #967A86",
"+. c #877595",
"@. c #897393",
"#. c #817CA8",
"$. c #388AB6",
"%. c #7E858B",
"&. c #4F85BA",
"*. c #758AA8",
"=. c #6F8AB1",
"-. c #668AC9",
";. c #7996CA",
":. c #6793DA",
">. c #7797D6",
",. c #728DD0",
"<. c #699CE2",
"1. c #5DAAE8",
"2. c #5EB7EE",
"3. c #59BCF3",
"4. c #66A6E6",
"5. c #65B3EC",
"6. c #76ADE5",
"7. c #65A4D2",
"8. c #5BCCF5",
"9. c #5CC8FB",
"0. c #5CD5FB",
"q. c #67CBFC",
"w. c #78CBFC",
"e. c #77D2FD",
"r. c #5EE4FF",
"t. c #60E6FF",
"y. c #878A8D",
"u. c #9D8586",
"i. c #9B8898",
"p. c #959C9B",
"a. c #93938F",
"s. c #A48985",
"d. c #A9958C",
"f. c #A58C97",
"g. c #A89795",
"h. c #B49998",
"j. c #B68888",
"k. c #9AA19F",
"l. c #ABA195",
"z. c #ABA49D",
"x. c #BAAD9D",
"c. c #B5A79B",
"v. c #BBB19F",
"b. c #AAA08E",
"n. c #8F94AE",
"m. c #AF9FA3",
"M. c #9CA5A6",
"N. c #90A3BA",
"B. c #A7A9A8",
"V. c #B9A5A4",
"C. c #BDB3A2",
"Z. c #BCB6AD",
"A. c #A8ADB8",
"S. c #ACB1B9",
"D. c #B8B9B9",
"F. c #A6B0AD",
"G. c #C3B9A6",
"H. c #C5B9AC",
"J. c #C3BAB2",
"K. c #E6B7B3",
"L. c #CCC1AD",
"P. c #CBC2B3",
"I. c #D3C9B5",
"U. c #D6CCBA",
"Y. c #D8CEBC",
"T. c #D2C6B4",
"R. c #DBD0BE",
"E. c #D0C2AF",
"W. c #8899C8",
"Q. c #8A9DD4",
"!. c #919FCA",
"~. c #88A4D9",
"^. c #9AA8DA",
"/. c #92AAC8",
"(. c #ADB5C5",
"). c #B7BAC7",
"_. c #ACBBDB",
"`. c #A6B4D7",
"'. c #B2BCD5",
"]. c #A0AFDA",
"[. c #95A9E7",
"{. c #9DB3EB",
"}. c #9AB4EB",
"|. c #92ADF3",
" X c #8CBAF6",
".X c #97BAF3",
"XX c #8AACEA",
"oX c #A2B4E4",
"OX c #A4BBEB",
"+X c #A8BAE7",
"@X c #A2BBF0",
"#X c #B1BEE4",
"$X c #BCC1C6",
"%X c #BAC3DA",
"&X c #ADCADB",
"*X c #88C8F9",
"=X c #9CC3F4",
"-X c #96C9F8",
";X c #89D6FC",
":X c #94DCFD",
">X c #9BDCFC",
",X c #99D3FB",
"<X c #AAC3EE",
"1X c #B4C2E3",
"2X c #B9C8E8",
"3X c #A7CAF4",
"4X c #B6CDF2",
"5X c #A6D9FA",
"6X c #B6D6F5",
"7X c #9CE2FD",
"8X c #A3E5FD",
"9X c #AAE7FC",
"0X c #B2E7FC",
"qX c #CBCDCB",
"wX c #C6C7C9",
"eX c #DED4C2",
"rX c #D6D1CB",
"tX c #CBD3D3",
"yX c #D7DAD8",
"uX c #CFCDCC",
"iX c #E1D6C5",
"pX c #E5DCCB",
"aX c #E2D9C6",
"sX c #E5D3CB",
"dX c #DBE1DE",
"fX c #EBE3D2",
"gX c #E8E5DB",
"hX c #F2EADC",
"jX c #E7E1CE",
"kX c #C6D4E4",
"lX c #DEE3E1",
"zX c #DDE4E8",
"xX c #E7E9E6",
"cX c #F3EEE4",
"vX c #EDF0EF",
"bX c #F5F3EC",
"nX c #FCF8EE",
"mX c #F8F4E9",
"MX c #EFF1F0",
"NX c #F2F4F2",
"BX c #F7F9F5",
"VX c #FAFAF4",
"CX c #FCFEFC",
"ZX c #F7F8F7",
/* pixels */
"^.^.Q.!.Q.!.W.n.W.N.n.*.*.*.| *.` ` } ` ~ ~ ~ ! ! ! ! ! ! k k k k j V V V V n n n n m n n v m n m m ",
"|.[.|.@X.X.X.X X-X.X*X-X*Xw.*Xw.w.q.q.3.q.9.3.9.3.3.3.3.8.3.5.5.6.6.6.6.6.XX~.~.~.~.Q.Q.Q.Q.~.!.!.Q.",
"[.oX[.{..X.X.X.X.X-X*X-X-X*X*X*X*Xw.e.q.q.0.9.9.0.9.9.9.q.q.w.w.w.w.*X*X*X X X X X|.|.|.|.|.XX|.|.[.",
"[.[.{.@X{.@X.X-X.X-X-X-X-X-X*X;X*X;Xe.e.q.q.q.q.q.q.q.q.q.q.w.w. X*X*X X X X X|. X|.|.[.[.[.[.[.Q.[.",
"{.{.{.@X@X@X3X.X3X-X,X-X,X,X,X;X;X;X;X;X;Xe.e.e.e.e.q.e.w.w.w.*X*X*X*X*X X X}.XX X}.|.[.[.[.[.[.[.Q.",
"oX{.+X@X@X@X.X3X3X-X3X,X,X,X,X,X>X:X;X;X;X;X;Xe.e.;X;X;X;X;X;X;X;X-X*X=X*X X*X=XXXXX|.[.[.[.[.[.[.Q.",
"oXoX@XOX@X@X@X3X3X5X,X5X5X>X5X>X>X>X7X7X7X7X:X:X;X;X;X;X;X;X:X;X-X;X-X*X-X=X}.*X.X}.[.{.[.[.[.^.[.[.",
"+X+X@XOX@X#X3X3X3X5X5X5X5X5X8X8X8X5X7X7X7X7X7X7X7X7X7X7X7X:X:X,X,X,X-X-X-X-X=X}.=X}.{.{.{.^.^.[.^.^.",
"+X#X#X#X@X<X3X3X3X5X5X5X5X8X8X9X8X8X8X8X9X8X9X8X8X8X8X7X7X7X7X>X>X,X,X,X-X-X=X}.=X}.{.oX{.{.oX^.].].",
"#X#X#X4X#X#X4X<X5X6X6X6X9X0X9X9X9X8X9X9X9X9X9X9X8X8X8X8X8X7X>X7X7X>X,X,X,X3X=X<X<XoX+XoXoX].].^.].].",
"'._.#X#X#X#X#X2X4X4X4X6X6X6X0X0X0X0X0X0X9X0X0X0X9X9X9X9X8X8X9X8X5X5X5X&X-X<X=X<X{.}.oXoXoX].].].].A.",
"'.%X'.%X#XkX2X#X2X#X#X4X4X4X6X6X6X0X6X0X0X0X0X0X9X9X9X9X6X5X5X5X3X3X3X<X<X<X<X+X_._.+X`._._.`.A.g.p.",
"Z.D.wX%X%X%X%X%X#XkXkXkX4XkX2X2XkX4X4X6X6X6X6X6X6X0X6X5X4X3X<X<X<X<X+X+X_._.#X#X_._._.'._.S.B.l.l.l.",
"m.h.m.B.(.).(.).'.'.'.'.'.kX%XkX2XkXkXkX2XkXkX2X2X2X&X2X1X%X1X1X1X_.1X&X_.&X'.'.(.`.(.S.B.c.z.z.V.z.",
"uXuXuXwXwXwXwXwXwXwX$X$X$X).).).).).D.$XqXqXwXwX$X$X$X(.(.(.(.S.(.S.A.A.A.A.S.A.S.A.B.h.g.c.l.g.l.l.",
"CXCXCXCXCXZXCXCXCXCXCXCXCXVXCXCXZXZXnXvX6X&XkX`.;.tXlXbXcXxXxXxXxXdXxXyXxXlXdXdXsXdXsXyXyXrXrXtXuXqX",
"CXCXCXCXCXCXCXCXCXCXCXCXCXCXCXCXCXCX&X$.Q Q Q ! t ` =./.zXCXCXCXCXBXCXCXCXCXCXBXBXBXCXZXCXBXCXBXBXVX",
"MXMXBXBXBXZXBXBXCXCXBXCXCXCXCXCXzX&.t t ~ $.$.$.$.^ ^ ~ =.$XBXBXBXBXBXBXBXBXBXBXBXBXNXNXBXBXNXNXNXNX",
"B.D.F.D.D.).wX$XqX$XqXqXwXtXtXtX=.&.1.8.0.r.t.t.r.r.0.8.6.F.$XlXdXlXdXdXlXdXdXlXdXdXlXzXdXlXlXxXlXxX",
"a.k.p.p.k.k.k.p.M.M.M.F.k.M.M.;.5.q.8.8.8.8.9.8.8.8.8.0.8.8.N.F.p.M.M.p.M.p.k.k.p.M.p.k.p.p.M.a.p.p.",
"dXdXdXdXlXyXdXyXyXyXtXtXyXtX/.>.4.7.1.1.3.3.3.3.3.3.2.1.4.7.6./.F.F.M.M.M.M.p.p.p.p.y.y.%.%.%.B %.B ",
"CXCXCXCXCXCXBXCXCXCXCXCXBX&X>.>.<.2.2.2.2.5.1.1.3.3.2.2.4.:.:.>.`.dXBXNXvXvXvXzXzXzXlXlXdXyXyXtXtXtX",
"ZXZXBXBXBXBXBXBXBXBXCX%X/.W.;.>.5.5.5.1.2.1.1.1.1.1.2.5.5.4.:.-.;.*.D.BXNXvXNXNXNXNXNXBXNXNXNXBXNXBX",
"CXCXBXCXCXCXCXBXCXCX(.=.N.;.>.>.>.<.:.:.:.:.<.<.<.:.:.:.:.,.,.;.=.N.M $XBXvXNXNXNXvXNXvXNXvXvXvXvXvX",
"lXgXjXdXgXdXgXlXgXN.*.'./.~.>.-.{ } } } } -.-.-.-.-.{ { { -.>.W.W.N.n.p.bXvXNXvXvXvXNXNXNXvXNXNXNXvX",
"G.G.G.C.G.C.G.I.M.*.N.[ ( r 4 4 5 5 5 3 h | { { | ` r 4 4 ! } } =.!.(.*.a.J.P.v.G.P.Z.J.G.v.Z.P.Z.P.",
"C.H.G.C.G.C.L.k.k e # # 2 2 # % 6 6 # o 2 / { { ` k 1 o 1 # 1 5 5 r M *.*.B.G.b.v.v.l.v.v.d.l.z.b.z.",
"c.C.v.l.C.G.m e @ @ n M z j l 7 8 9 q 6 X o 1 1 1 o # 7 7 8 6 2 2 2 3 X # M v.a.b.l.b.v.v.R b.b.b.v.",
"Z.H.J.G.P.I.m & X ' @.X.' c c j 8 6 8 f $ . O O . . 9 7 7 w i l j j z z   & y v.G.v.v.G.v.x.x.x.v.v.",
"I.I.I.I.I.P.R y % f.X.P x c b j h 8 6 8 8 X { ,.r O 7 > 6 w j / _ ) v o.n   p L.G.G.G.v.v.v.v.v.v.x.",
"cXcXcXcXxXY.m # u f.J F F x c k w 6 $ > O 2 ~.:.=.X > $ $ 6 i d z ' ] o.y.@ I nXmXmXmXmXmXmXcXcXcXcX",
"CXVXCXCXbXjXn 2 y o.F J m d 6 2 # @ O 2 + ] Q.:.W.6 @ @ O # 2 8 d H X.@.y.& B nXnXnXnXnXnXnXnXnXnXnX",
"VXVXVXVXcXeXp y y v x d 6 $ $ X   O # # 2 n.W...W.) @ @     X & % g _ X.X.@ E nXnXnXmXnXnXnXnXnXnXmX",
"VXVXVXVXcXqX2 2 m 6 X.j l u > # # # 2 + N n.,.>.W.n.2 # $ @ @ % > p k @.j . d.VXnXnXmXnXmXmXmXmXmXmX",
"hXmXmXmXhXE.& u m.p h ] v d 7 _ .. .# > f.n.W.,.=.f.N + h j j z z / [ M n > R hXhXfXhXhXfXhXhXpXhXfX",
"jXcXcXhXpXH.u I B.i.k h h j j ( ( 4 7 P i.#.#.#.@.f.O.7 2 r / ) / ` / j B.I v.fXjXaXfXhXaXfXpXaXhXpX",
"aXhXhXhXhXd.g g.m.i.p.] b h h h k ' G U h.O.G G G f.s.F c j 4 h 4 j ' f.V.h.G.aXfXaXfXjXpXfXpXiXfXaX",
"iXhXhXhXcXH.H V.m.i.O.+.+.] [ [ @.F F s.j.W G G K O.f.F f c ' [ [ +.+.i.V.h.x.aXjXiXfXpXpXfXsXiXjXpX",
"eXhXhXhXhXsXj.H.h.f.O.@.@.+.@._ x f P j.K U G S T T h.Y q x b v X.X.O.s.V.h.G.fXsXR.fXiXiXjXY.iXpXiX",
"Y.pXfXpXhXK.j.H.h.f.i.o.o.O.X.P v q Y T * : K S S = K O.l _ ] _ X.O.O.f.V.V.H.jXeXY.fXR.R.aXT.iXiXY.",
"U.eXpXiXsXsXh.H.h.s.O.o.O.O.X.X.v b J S ; S A S S ; C G j b _ X.@.O.s.f.h.G.H.pXY.I.pXR.R.iXH.eXeXR.",
"I.Y.aXeXaXeXf.V.h.O.T O.O.O.P F b ] ' s C S S S S < 0 ) ) l v X.o.s.s.d.V.h.G.pXY.Y.pXU.iXR.L.eXU.eX",
"T.eXpXiXsXT.O.h.h.W W s.O.U X.v ] +.' g , C s S s , d ] ] b x P Y O.f.j.c.h.x.pXI.Y.iXU.R.R.E.eXU.Y.",
"I.U.sXiXpXT.U d.h.s.W U U O.X.X.#.] N p a , : ; , a d ' #.] l v P s.d.d.c.s.v.jXI.R.iXU.iXY.E.eXU.eX",
"E.E.eXsXY.E I u.d.d.W U U u.P ] ] ) l l v a : , a d d c [ +.' x Y s.d.d.b.s.m Z.Y.iXeXY.iXU.E.iXR.iX",
"bXbXNXNXP.B.I I s.W W W W U L P v N F Y K S f f S x x z c ' o.J Y d.W s.W L u.u.J.sXY.I.R.H.E.U.H.Y.",
"vXvXMXyXyXrXJ U R U R R W U Y H K P K Z < 0 Z 0 < 0 A J x x I H T s.U U L H rXZXyXCXVXVXVXZXZXZXbXnX",
"yXyXtXA.zXH.H I R Y Y Y W s.H s D f : = - - - = - = - s D g L U d.U L H L H H.wXS.qXqXqXqXuXtXyXyXyX",
"wXqXA.M.yXJ.J L L L Y H U s.A < ; ; 9 q q : - ; : , - = - ; A W d.K g D H J B.A.M.D.F.F.F.B.M.M.M.B.",
"uXT.n.D.iXP.D D H D L H W U A A D Y G G f q 0 0 0 s s s a , s T b.D g H J D J.B.A.J.D.S.S.B.A.F.B.B."
};
