/* XPM */
static char *pers_8_2[] = {
/* columns rows colors chars-per-pixel */
"50 50 235 2 ",
"   c #0D0E14",
".  c #15141A",
"X  c #0F0C11",
"o  c #35191B",
"O  c #271A1D",
"+  c #1A1A27",
"@  c #10132C",
"#  c #231D24",
"$  c #3A1C23",
"%  c #1F2035",
"&  c #292329",
"*  c #362327",
"=  c #282537",
"-  c #352B38",
";  c #3B3237",
":  c #482427",
">  c #503035",
",  c #52272A",
"<  c #48403E",
"1  c #141B4D",
"2  c #1A2457",
"3  c #1E2142",
"4  c #292A48",
"5  c #382D45",
"6  c #3A3948",
"7  c #282B57",
"8  c #352F54",
"9  c #2C3456",
"0  c #3A3758",
"q  c #1E1F75",
"w  c #19296C",
"e  c #2B3664",
"r  c #383866",
"t  c #27277C",
"y  c #2C3370",
"u  c #201E76",
"i  c #473B48",
"p  c #533A4A",
"a  c #463858",
"s  c #4B2E43",
"d  c #463B62",
"f  c #3A4576",
"g  c #35456B",
"h  c #3F434C",
"j  c #434146",
"k  c #57484A",
"l  c #584756",
"z  c #53505A",
"x  c #65484A",
"c  c #674E58",
"v  c #6C555B",
"b  c #695557",
"n  c #715253",
"m  c #6D635D",
"M  c #70655C",
"N  c #464569",
"B  c #584A68",
"V  c #595668",
"C  c #484A76",
"Z  c #565878",
"A  c #47527C",
"S  c #6A5667",
"D  c #755A62",
"F  c #655673",
"G  c #5B636E",
"H  c #65676C",
"J  c #746A64",
"K  c #796769",
"L  c #7D746C",
"P  c #7A7168",
"I  c #676C75",
"U  c #776774",
"Y  c #6C747C",
"T  c #687179",
"R  c #777476",
"E  c #81756B",
"W  c #84796E",
"Q  c #897B6E",
"!  c #857C73",
"~  c #887976",
"^  c #856A71",
"/  c #9F6668",
"(  c #8B837B",
")  c #8A8177",
"_  c #95887D",
"`  c #191A89",
"'  c #263A89",
"]  c #1D2C82",
"[  c #2E4B90",
"{  c #2A639E",
"}  c #3355A9",
"|  c #3767B8",
" . c #3069AB",
".. c #495685",
"X. c #4A5A95",
"o. c #4C5488",
"O. c #605E87",
"+. c #556597",
"@. c #55688F",
"#. c #6E7782",
"$. c #777987",
"%. c #787B96",
"&. c #687191",
"*. c #4666A8",
"=. c #556BA9",
"-. c #4A6AB7",
";. c #5879B9",
":. c #5074AD",
">. c #667DA9",
",. c #6A7FA9",
"<. c #3479C8",
"1. c #3B74D8",
"2. c #2F7CCC",
"3. c #3F7CE1",
"4. c #456CC6",
"5. c #5275CC",
"6. c #5B7CCC",
"7. c #5778C5",
"8. c #4A79D8",
"9. c #5B7DD4",
"0. c #557CD7",
"q. c #4377C6",
"w. c #457DE2",
"e. c #547DE1",
"r. c #627FC4",
"t. c #897983",
"y. c #79828B",
"u. c #7A8399",
"i. c #5881BA",
"p. c #6D83AE",
"a. c #7886A8",
"s. c #6888B8",
"d. c #788DB5",
"f. c #7B92BB",
"g. c #2E88D6",
"h. c #3388D4",
"j. c #2D92DB",
"k. c #3682CB",
"l. c #3691E2",
"z. c #30A3EA",
"x. c #5D81CB",
"c. c #4C83DD",
"v. c #5B8CDD",
"b. c #5984D9",
"n. c #5D94DD",
"m. c #6283C4",
"M. c #6888CA",
"N. c #7794C8",
"B. c #6689D6",
"V. c #6A94D9",
"C. c #7798D8",
"Z. c #718EC8",
"A. c #4B83E1",
"S. c #4883E1",
"D. c #548CE2",
"F. c #588BE1",
"G. c #5C94E3",
"H. c #5D98E4",
"J. c #639DE5",
"K. c #6799E3",
"L. c #6C98E1",
"P. c #6AA5E7",
"I. c #76A7E6",
"U. c #7CA2DF",
"Y. c #86878A",
"T. c #938A82",
"R. c #9A8E84",
"E. c #978788",
"W. c #9D938A",
"Q. c #9C9186",
"!. c #878B9A",
"~. c #8B939C",
"^. c #95999D",
"/. c #A1968C",
"(. c #A3988F",
"). c #A59B93",
"_. c #A99E96",
"`. c #AA9996",
"'. c #A18F95",
"]. c #ABA097",
"[. c #ADA39A",
"{. c #B1A69D",
"}. c #B3A89F",
"|. c #868BA8",
" X c #949BA3",
".X c #9899A4",
"XX c #8495BA",
"oX c #8691AE",
"OX c #9CA3AA",
"+X c #99A0A8",
"@X c #9BA6B2",
"#X c #A5A7AB",
"$X c #B6ABA3",
"%X c #B8ADA5",
"&X c #BDB2AA",
"*X c #B5B3AF",
"=X c #A5ABB2",
"-X c #A9AEB4",
";X c #ABB2B9",
":X c #ABB0B6",
">X c #B8B8B9",
",X c #A09FA4",
"<X c #C1B6AD",
"1X c #C4BBB3",
"2X c #C9C2BD",
"3X c #D0C6BE",
"4X c #839BC9",
"5X c #829CD1",
"6X c #B8BCC1",
"7X c #A4B0C5",
"8X c #9EABC3",
"9X c #BDC2C7",
"0X c #CDC6C1",
"qX c #C3C6C9",
"wX c #C6CACD",
"eX c #C9CCCE",
"rX c #C5C4C5",
"tX c #D3CBC5",
"yX c #D5CFCA",
"uX c #D8D1CC",
"iX c #C9CED1",
"pX c #C5CBD0",
"aX c #CED2D6",
"sX c #CDD2D9",
"dX c #DBD5D2",
"fX c #D2D6D9",
"gX c #D6DADD",
"hX c #D9DBDE",
"jX c #D4D4D5",
"kX c #E3DDDA",
"lX c #DADEE1",
"zX c #DEE2E4",
"xX c #E3E4E7",
"cX c #E7EBF2",
"vX c #E5E0DD",
/* pixels */
"=.=.=.=.=.+.=.+.+.+.X.X.........[ f f g f y e e e 9 9 9 9 6 9 9 6 9 6 6 6 6 6 6 j h ; j i i j j 6 j ",
"r.6.9.9.9.9.9.e.e.e.0.e.e.w.e.e.8.w.3.3.w.3.3.1.3.1.1.1.1.1.8.q.q.4.4.4.4.4.4.-.-.-.-.-.*.-.=.=.=.=.",
"6.6.9.6.6.9.9.9.9.9.9.b.0.e.0.A.8.A.w.S.S.w.3.l.3.3.3.w.w.8.1.c.w.1.8.8.8.8.8.8.5.8.5.5.5.5.5.5.7.7.",
"r.r.r.6.6.9.9.9.9.9.9.e.b.F.e.F.F.A.A.A.A.A.w.S.S.S.S.w.h.8.c.c.8.8.8.8.8.8.5.5.5.5.5.5.5.7.4.;.-.;.",
"r.r.r.r.9.B.9.B.9.9.9.e.F.b.e.F.F.F.D.D.D.D.A.D.A.A.S.S.c.h.c.c.c.c.8.8.8.5.5.5.5.5.5.7.7.7.7.;.;.;.",
"r.r.r.M.9.r.B.9.9.B.B.B.B.v.F.F.K.F.D.G.G.G.D.D.D.D.D.D.D.D.c.c.c.b.0.8.0.8.8.5.x.5.7.7.;.7.;.;.;.:.",
"r.r.M.r.Z.B.9.B.B.B.e.L.9.L.K.F.K.F.G.H.H.G.H.G.G.G.n.D.D.D.D.c.c.b.b.b.c.x.x.5.x.x.6.7.7.;.;.i.;.;.",
"r.4Xm.Z.Z.B.Z.B.C.9.L.L.L.L.K.K.K.J.J.J.J.J.J.H.P.H.J.H.H.n.G.n.n.c.b.b.x.x.b.x.x.x.i.x.x.;.;.s.;.>.",
"Z.d.Z.Z.Z.Z.r.C.9.V.B.V.L.L.L.K.J.P.P.P.P.P.P.P.P.P.J.J.J.H.n.n.n.n.n.v.x.v.M.x.x.x.x.s.m.i.s.;.;.>.",
"|.d.XXZ.Z.Z.5XZ.C.C.C.C.C.L.I.L.I.P.I.P.I.P.I.I.P.P.P.P.J.J.n.n.n.n.v.x.n.x.x.x.x.i.m.i.s.s.s.>.>.>.",
",.d.C.Z.4XN.Z.5XZ.5XC.C.C.C.U.I.I.I.I.I.I.I.I.I.I.P.P.P.P.J.V.V.V.n.M.V.n.M.M.M.Z.s.s.s.s.p.>.>.>.#.",
"|.|.t.|.XXd.XX4Xd.4XN.N.4XC.C.C.5XC.U.U.I.I.5XI.I.I.C.C.V.N.V.V.V.Z.M.M.M.s.Z.s.s.s.d.p.p.p.,.#.H v ",
"t.t.4Xt.4Xt.oXoX|.XXXX4XXX4X4X4X5X5X5X4X4XU.4XU.U.I.N.N.N.Z.Z.Z.Z.f.s.f.s.s.d.p.p.p.p.p.a.$.K J H J ",
"U U ^ $.t.,.%.%.%.,.%.|.|.a.|.XXXXXXXXXXXXXX@Xf.XXf.f.f.f.f.d.d.d.d.d.d.a.a.a.a.u.a.%.$.U J P U P P ",
"=X#X,X,X.X,X,X.X.X.X.X.X~.|.!.|.|.t.~.~.~.~.u.~.u.!.!.y.%.u.%.%.%.$.y.y.$.&.%.$.$.$.K K J J J J M J ",
"zXxXxXxXxXxXlXxXxXxXlXlXlXkXhXhXlXlXgXaXjXjXjXaXyXeXeXeXqXqXrXrXrX6X9X>X6X6X6X>X>X>X>X>X*X*X-X#X#X#X",
"lXlXhXhXgXhXgXgXhXhXgXlXlXgXgXlXlXgXlXlXgXlXgXlXgXgXgXhXhXgXgXgXgXfXgXgXfXfXfXfXfXjXaXfXaXaXaXaXaXaX",
"9XqXeXiXiXaXaXaXjXaXfXfXfXfXfXfXaXfXfXfXgXgXfXfXfXfXjXjXjXjXaXaXaXaXaXaXaXaXaXaXaXeXaXiXeXaXeXeXeXeX",
"$.Y.y.Y.Y.Y.~.~.^.^.^.+X X+X+XOX+X+XOXOXOXOX+XOX+XOXOX#X=X#X#X#X=X=X=X=X=X=X#X=X=X#X#X=X-X-X-X:X:X-X",
"H Y T T Y T Y T Y Y T Y T T T Y #.Y #.T T T T T T T T T T T T T H T H T T H T T H T H I H H I H H H ",
">X;X;X;X;X;X;X-X;X-X-X-X@X@X@X@X@X@X+X+X=XOXOXOX+Xf. X~.u.y.y.y.y.y.y.y.y.#.Y T T T H G H G G z G z ",
"gXgXgXhXhXgXgXgXgXgXgXgXgXgXgXgXfXfXgX9X7X7X7Xu.f.pXaXgXaXaXiXfXiXiXwX9X9X9X9X6X9X6X;X;X;X-X-X=X#XOX",
"aXaXaXaXaXaXsXsXfXsXaXaXaXaXaXiXfX9Xp.9 2 1 1 1 2 g A  XaXaXiXiXiXiXwXwXiX9XwXwXwXiXeXeXeXwXeXeXwXqX",
"lXgXhXhXhXhXgXgXgXgXgXgXgXgXfXgX6Xg 2 e [ { {  .{ g g A u.iXiXiXiXiXiXiXwXwXwXwXwX9XqXqXqX9XqX9XrX9X",
">X>X*X*X>X>X>X2X>X>X>X>XrXrX9X6Xy. .k.l.z.z.z.z.z.j.j.i.a.6XwXwXpX9X9XeX9X9XeX9X9XqXqXwXrXrX9XwX9XwX",
"L ) ! L ) L ) ( ) ! _ L ( ( ! @.k.k.h.j.j.j.j.j.j.j.g.g.| a._ ( _ ( ! T.( ( _ W ) ) ) ( ) E ( _ ) _ ",
"! ( ( W ) ! ! _ ) ) T.L ( ( u.:.:.<.<.2.g.g.g.j.g.g.2.<.| *.u.P ( L P ) L L ! M P L M P P M P P M P ",
"P L L J ! L L ! L W ( L R u.p. .| k.h.h.h.2.k.k.g.g.2.2.| } :.G G P P P M L W m M J M E E x m m m W ",
"( ( ( ( T.T.Y.T.T.T.W.G G @.=.:.;.<.<.1.<.2.2.2.2.<.<.<.| *.{ >.g < ) ) ) ! ) Q W W ) ) ) L L L L W ",
"T.Q.Q.Q.Q.Q.W.Q.R.W.I @.a.p.:.*.{ } [ [ } | | } } } } } *.*.+.@.y.h M W._ _ _ ) ) _ ) ) ) ) ) Q ) E ",
"2X0X0X3X3XqXtXtXdXY.A $.C [ ' t w 1 @ 3 t [ } [ [ 2 @ w w [ [ @.&.#.G 2XuXyXuXuXuX3XyXuX3X3X3X3X3X2X",
"kXhXkXkXvXvXvXxX#X4 = 3 w u u u t t 2 @ 7 ' } ' 2 @ 1 q ` ` ` w 9 G g y.uXuXuXuXuXuXuXuX3X3XyXuX3X3X",
"dXdXdXdXdXdXvX(.+ . + a 0 - - = & = 5 #   @ @ @   + 5 4 7 7 u u 2     4 #XdXuXuXuXyXuXuXuXuXuXuXtXtX",
"dXdXdXdXhXdXdXL # # z a 0 8 8 7 4 % % - X @ 7 @ X & # # # = * = 5 a # X m kXtXyXyXyX3XtX3X3X3X3XtX3X",
"2X3X3X3X3X2X{.z # - S d a a 8 8 4 % # = . ' 1.[   + . + 3 7 7 8 5 i j   k 1X}.&X<X$X<X<X}.<X%X{.&X}.",
"}.2X2X2X3X%X( j & - B p s s - 4 # . + . # =.| *.= . + + % 4 5 a r a j + j (.{.$X%X].%X<X[.$X}.].&X[.",
"(.&X1X<X2X].) z - - a s ; & . . X   .   r =.| *.a     X X . + - a a a . > R.{.%X}.].%X}.{.$X[.).$X[.",
"].<X1X<X1X`.L - ; 5 8 5 # # +   X . + + O.X.<.*.o.+ + . X   . O 3 d - . ; /.].$X}._.$X}.].$X[._.$X[.",
").%X&X&X<X_.P & - S = 8 8 ; $ 4 t 7 @ a O.*.} X.O.a @ 4 = # # = r 7 i - ; R.].}.].(.$X]._.}./.[.$X).",
"/.}.%X$X%X/.E & c $.B 7 7 4 = 7 t 4 $ B O.o.X.C O.d # % 2 y y e 7 8 U k j (./.]._./.$X(.).].R.)._.W.",
"/.].$X[.$XW.b ; ^ t.O.O.N 7 7 9 9 0 s S c p p s S l ; 5 4 2 2 7 r F U v M R./.]./.W.{./.)._._ ).).W.",
"_ /.[.).[.[.k p t.t.U Z o.Z ..C d ; p ^ n > , > x D 5 5 8 r f f B B U ^ b ) (.].W.W.[.W.).).T.).W.).",
"_ (.[.].].[./ D E.$.F Z B V B d r 5 c > $ > , > : n a 9 r r d d p c D ^ n _ ).].W.W.).W._.(.T.).W.).",
"/.(.[.].].$X/ / E.^ U S B F B C r 0 x o o , , : X , p 9 ' C B B B c ^ ^ n /.).].R.(.)./.).W.T.).Q.).",
"_ _ `.)./.)./ ^ t.U S S F F B d d y a o : , , , o $ r 7 r r C B c S D ~ n _ ).).T.).).W.).W.T.).W.).",
"lXlXlXlXhXxX`.D ~ ^ D S F S B d C o.d * * : * : $ - y y 8 d a c S v K ^ K `.[._.Q.[.(.W.)._ R.W.T.W.",
"jXsXsXsXsXgX'.x ^ ^ D D S S B C ....a & * O O & & ; f ..0 8 a p v v K n ^ cXcXcXcXcXcXcXcXzXxXxXlXzX",
"OXOX#X.XOX:X~ x D ^ D S c S l C ..r 5 6 5 # & * = - r A N 6 i c n v ^ n n  X~.^.~. X X X+X@X@X@X;X;X",
"+X^.^. X+X~.k k v D D v v S l B d 0 a p s 5 - - 5 5 8 9 N N i b n x v k > h y.y.y.#.#.Y Y Y T T T T ",
"W._ ].).).P b k b v n b n b l j k l > $ o $ o o $ > 5 ; 6 k p n k x k < x R R Y.Y.Y.Y.Y.y.y.$.#.$.#."
};
