/* XPM */
static char *pers_8_1[] = {
/* columns rows colors chars-per-pixel */
"50 50 233 2 ",
"   c #0A0909",
".  c #0E0D13",
"X  c #131215",
"o  c #13131B",
"O  c #1B171B",
"+  c #2B1616",
"@  c #1C1B24",
"#  c #181928",
"$  c #151A38",
"%  c #0E1230",
"&  c #221E27",
"*  c #211E3B",
"=  c #1E2135",
"-  c #282329",
";  c #272538",
":  c #362A36",
">  c #2E303E",
",  c #33333A",
"<  c #383438",
"1  c #342C2E",
"2  c #452428",
"3  c #46383C",
"4  c #4F2F38",
"5  c #672B31",
"6  c #56493D",
"7  c #171A51",
"8  c #1C224D",
"9  c #1B245A",
"0  c #292848",
"q  c #362C49",
"w  c #2D3247",
"e  c #3C3448",
"r  c #272956",
"t  c #2E3356",
"y  c #353958",
"u  c #352C55",
"i  c #141667",
"p  c #363863",
"a  c #2A366F",
"s  c #1A2B6B",
"d  c #483749",
"f  c #463A5A",
"g  c #573C48",
"h  c #663E44",
"j  c #453D66",
"k  c #374872",
"l  c #3E415A",
"z  c #58474A",
"x  c #5D554D",
"c  c #4A4857",
"v  c #564557",
"b  c #59575A",
"n  c #4D4D50",
"m  c #645B53",
"M  c #655C5A",
"N  c #655457",
"B  c #694E55",
"V  c #6C645C",
"C  c #6D6256",
"Z  c #71655B",
"A  c #75695D",
"S  c #706357",
"D  c #564C66",
"F  c #5A5E63",
"G  c #565964",
"H  c #464C77",
"J  c #575775",
"K  c #4C506B",
"L  c #675966",
"P  c #655972",
"I  c #5D646B",
"U  c #5B6167",
"Y  c #5D6579",
"T  c #61666D",
"R  c #696669",
"E  c #746B64",
"W  c #786A67",
"Q  c #7B7167",
"!  c #7C736B",
"~  c #77706C",
"^  c #676876",
"/  c #69727A",
"(  c #7A7777",
")  c #7F6A74",
"_  c #82444A",
"`  c #81756C",
"'  c #877A6E",
"]  c #837A73",
"[  c #8A7E72",
"{  c #837877",
"}  c #886F75",
"|  c #8D8176",
" . c #8C8279",
".. c #87817F",
"X. c #918376",
"o. c #92867B",
"O. c #95897D",
"+. c #988B7F",
"@. c #273488",
"#. c #334E95",
"$. c #3557A9",
"%. c #2E5DB3",
"&. c #3A5EB7",
"*. c #2E50A7",
"=. c #2D6BBE",
"-. c #3669B7",
";. c #3465AA",
":. c #455587",
">. c #455A99",
",. c #555D88",
"<. c #476498",
"1. c #596C98",
"2. c #54668D",
"3. c #686A86",
"4. c #777A89",
"5. c #677299",
"6. c #767A97",
"7. c #696F90",
"8. c #425CA8",
"9. c #4967A9",
"0. c #546EA3",
"q. c #5977A8",
"w. c #4669B8",
"e. c #4B74B8",
"r. c #547BBB",
"t. c #5679B7",
"y. c #4F71B4",
"u. c #677BA6",
"i. c #717CA2",
"p. c #2D6EC2",
"a. c #3E6BCC",
"s. c #3864C7",
"d. c #2C78C9",
"f. c #3675C8",
"g. c #3B6DD3",
"h. c #3E6FD8",
"j. c #3D73D5",
"k. c #426AC4",
"l. c #446AC7",
"z. c #4D72C4",
"x. c #4C72CC",
"c. c #4777C8",
"v. c #5479C6",
"b. c #4474D5",
"n. c #4A72D2",
"m. c #447BD5",
"M. c #4C7DD4",
"N. c #4475D8",
"B. c #507BD2",
"V. c #9C7F85",
"C. c #7B838C",
"Z. c #7D8891",
"A. c #5C82B6",
"S. c #5E81AF",
"D. c #6C82AD",
"F. c #7484AA",
"G. c #6687B8",
"H. c #738BB3",
"J. c #6F90BD",
"K. c #2F86D3",
"L. c #5A85C8",
"P. c #4B84D8",
"I. c #4A84D5",
"U. c #558AD6",
"Y. c #5B94DD",
"T. c #5994DC",
"R. c #4E84CD",
"E. c #658CCD",
"W. c #678BC5",
"Q. c #6597D8",
"!. c #6B90C8",
"~. c #84878D",
"^. c #968A81",
"/. c #998D83",
"(. c #998F88",
"). c #9C9186",
"_. c #9E938A",
"`. c #868A94",
"'. c #8C939A",
"]. c #8B9097",
"[. c #92959C",
"{. c #95999E",
"}. c #999699",
"|. c #908F98",
" X c #A1968D",
".X c #A4998F",
"XX c #A59B93",
"oX c #A99E95",
"OX c #A89F98",
"+X c #ADA39B",
"@X c #ACA097",
"#X c #B1A69D",
"$X c #8E96A3",
"%X c #959BA1",
"&X c #9A9EA3",
"*X c #9BA2A9",
"=X c #A8A8AA",
"-X c #B4ABA4",
";X c #BBB3AD",
":X c #AAAEB1",
">X c #AEB2B6",
",X c #B3B3B4",
"<X c #B3B6B9",
"1X c #B6B9BC",
"2X c #B9BBBD",
"3X c #BFB7B2",
"4X c #BAACB4",
"5X c #C3BBB5",
"6X c #C5BEB9",
"7X c #C0B7B2",
"8X c #C0B4AB",
"9X c #C7C0BC",
"0X c #C9C1BC",
"qX c #BABEC2",
"wX c #B7BCC0",
"eX c #BEC2C5",
"rX c #BEC4CB",
"tX c #C1C4C6",
"yX c #CCC6C2",
"uX c #C3C6C9",
"iX c #C5C9CD",
"pX c #C9CBCE",
"aX c #CEC8C5",
"sX c #D1CCC8",
"dX c #D6D1CC",
"fX c #CBCDD1",
"gX c #C6CCD1",
"hX c #D2D4D6",
"jX c #D6D6D7",
"kX c #CFD1D5",
"lX c #D6DBE0",
"zX c #DCE2E9",
"xX c #F7F5F0",
/* pixels */
">.0.8.,.>.>.>.>.:.:.:.:.k H k k k l k k t k t t t t w w w 0 w > > w > > , , , : , , < , < < , , , , ",
"z.x.x.x.x.x.x.x.x.x.n.n.N.N.b.N.g.g.g.g.j.h.j.g.g.g.s.g.s.s.s.s.s.-.&.&.&.&.&.&.8.&.$.8.8.8.8.>.>.>.",
"y.z.y.z.z.z.x.x.x.x.l.n.n.n.b.b.b.j.N.N.N.j.j.j.j.j.j.j.g.j.g.j.g.g.g.g.g.s.a.l.l.l.a.k.k.s.k.w.w.w.",
"t.y.y.z.v.z.x.x.x.x.n.n.n.n.n.b.m.N.N.N.N.N.j.j.j.j.j.j.j.g.j.a.a.g.s.a.a.l.a.l.s.w.w.w.w.w.w.w.8.8.",
"u.v.v.r.v.z.v.v.v.B.B.x.B.B.M.M.M.M.P.N.P.m.m.N.j.I.K.m.m.j.f.a.b.f.a.l.a.l.k.k.k.w.e.-.w.w.w.w.w.9.",
"y.v.r.r.v.v.v.v.B.v.B.B.B.B.B.M.M.P.M.P.P.P.P.K.P.I.I.m.m.m.m.m.j.m.j.c.a.l.a.w.k.c.e.w.w.9.9.9.9.9.",
"u.u.G.r.v.r.v.E.v.v.v.B.B.B.U.B.P.P.P.P.P.P.P.P.P.P.U.K.I.I.K.M.c.m.c.c.c.c.z.c.z.e.e.e.y.e.y.y.9.9.",
"v.u.L.r.u.v.v.v.E.B.E.U.U.E.Y.U.Y.Y.Y.Y.Y.Y.T.T.T.P.U.R.I.I.I.R.I.c.m.c.c.c.c.e.e.e.e.e.e.y.y.9.0.0.",
"u.v.G.r.G.W.v.W.v.v.E.E.U.Y.Y.Y.Y.Y.Y.Y.Y.Y.Y.Y.Y.Y.U.T.U.T.K.T.R.R.R.R.c.c.v.e.v.e.y.t.t.q.q.0.0.0.",
"u.i.u.H.W.G.W.W.E.E.B.E.E.E.Q.Y.Y.Y.Q.Q.Y.Q.Q.Y.Q.Y.T.T.T.U.T.R.U.R.R.R.A.R.e.R.r.A.t.t.q.y.0.0.0.0.",
"i.i.u.u.u.G.G.H.W.W.!.E.E.!.E.E.Q.Q.Q.Q.Q.Q.Q.Q.Q.Q.T.Q.T.T.T.R.L.R.L.R.R.r.r.A.A.t.t.q.q.0.q.0.1.I ",
"i.i.u.i.u.H.i.H.G.H.W.J.W.W.E.E.!.E.!.Q.Q.Q.Q.Q.Q.Q.Q.L.Q.A.L.G.L.L.A.A.A.A.A.A.S.q.q.u.q.1.5.Y b x ",
"} 3.i.V.u.V.i.i.i.i.F.H.H.H.H.!.!.!.!.J.J.!.!.J.!.Q.W.G.G.L.A.G.A.A.A.S.S.q.q.u.q.5.1.5.5.^ b m m b ",
"B L L P 3.3.3.7.5.6.5.5.6.i.i.i.V.u.F.F.H.H.H.H.J.J.D.D.D.D.D.D.D.5.u.5.5.u.5.5.5.7.7.3.M m M M M M ",
"%X}.}.|.|.|.|.|.|.`.Z.Z.V.C.4.6.V.i.C.C.C.C.C.C.4.4.4.3.4.3.3.3.3.3.^ 3.^ 3.3.^ 3.Y M B m x m m m m ",
"hXjXjXjXkXlXhXhXhXhXkXkXkXkXgXgXfXfXiXuXuXtXtX0XtX2X2X2X<X<X3X<X,X,X>X>X:X:X:X=X=X=X=X=X=X=XOX%X}.|.",
"fXfXgXfXpXpXpXpXfXfXfXfXfXfXfXfXfXfXkXkXfXfXgXpXgXdXpXiXaXiXpXpXpXgXrXgXiXiXiXiXrXrXtXrXeXeXrXeXeXtX",
"<X<XwXwXeXeX9XeXtXiXuXuXiXuXtXuXtXiXeXrXrX0XsXrXrXrXiXiXiXiX0XrXrXiXrX0XeXeXeXeXeXqXeXqXeXeXwXwXwX2X",
"^ ( ( ( ( C.~.C.~.~.~.].~.].].].].].].'.'.{.].'.].{.].].{.'.{.{.{.{.{.{.{.{.%X%X%X%X{.{.*X%X&X&X*X*X",
"L T I I I T T I T T I I I T T T T T / T T T / I I I T U T I U I U U U U U F I U U U U F b b U b F b ",
"=X:X=X*X=X*X*X*X*X*X*X*X%X%X{.{.[.'.'.'.Z.{.Z.Z.Z.Z.Z.Z.C.C.C./ / / / / / T T I U U G F G b n n n n ",
"gXiXfXgXpXgXpXgXpXgXpXrXpXpXrXgXiXiXrXtXrXrXrXgXtXeXeXeXqXqXqXeXwXeX1XwX1X>X>X>X:X:X*X*X*X*X*X*X%X'.",
"rXrXeXrXtXtXtXtXuXuXrXeXeXrXrXeXeXeXeXeXtXtXeXeXqXeXwXeXwXqX2XeXwXeXwX2XwXwX1X1X1X1X2XqX1X1X1X1X1XwX",
"gXgXgXgXfXgXpXgXgXgXpXpXiXiXiXrXuXiXtXeXqXqXqXqXeXeXeXeXeXeXwXqXwXqX2XwXwXwXwX1X1X<X1X1X>X1X>X>X>X>X",
"=X-X=X+X-X=X=X;X:X:X,X=X,X,X,X,X,X,X<X0XjXrXaXiX<X<X1X<X<X1X1X<X1X1X,X<X1X>X<X>X<X<X<X<X1X<X<X<X1X1X",
"Z W E C Q V E ! E E ! V ~ ! ~ ! E E E 6XxXsXsX9X' ! Q Q E ! ! Q ] Q E ( ~ ~ ! V ~ ! E ! ! S E ! ! ( ",
"E Q ! Z Q V E ! Q Q ' V ~ ~ E ~ E E / Z.H.C.Y K G U T A M E E V ! V C E V V E x C V m S S 6 m C x V ",
"C V V m E V V E V V ! m E E V ! E b w # $ $ $ $ # = w n m V V C ! V m C m V A x x m x A S 6 x x x V ",
"! ~ ~ ! ' ( ! ' ( ' ] ] ( ] ' | F > w s #.#.;.*.;.k k c A ! ! ! ` ! Q A A Q A A A V A A A S S C S V ",
"' [ | | ] | | | | | |  . . .O.T k <.=.d.K.K.K.K.K.K.-.1./ o.o. .X.X.| | | ! Q Q ! ! A A A Q A A A A ",
";X3X3X3X3X3X9X3X5X9X0X0X0XdX}.2.A.-.d.d.d.K.K.d.K.=.=.-.q.'.9XdX0X0X0X9X9X9X9X9X9X9X9X3X8X3X3X;X;X;X",
"sXaXdXdXdXdXdXdXjXjXjXjXjX&X7.1.;.;.;.d.d.d.d.d.d.=.;.$.#.1.U ..sX0X9X9X9X9X9X9X9X9X9X9X9X9X5X5X3X3X",
"0X0XaX0XaXaXsXaXsXsXdXyXT Y 1.<.$.-.=.p.p.=.p.d.d.p.=.$.#.2.2.- b 6XyX0X0X0X0X0X0X6X9X5X0X9X0X5X7X7X",
"aXsXaXaXaXaX9XyXaXaX9Xc J 7.2.<.;.-.-.p.p.p.p.p.p.p.s.&.$.#.2.^ & { 0X5X5X6X5X6X6X5X5X5X;X7X8X8X7X;X",
"#X7X8X8X6X-X#X;X;X#Xc J 6.3.1.<.$.$.*.*.*.-.%.%.*.*.*.$.>.2.:.Y K c XX#XXX-X.X@X#X.X@X-X X@XoX X+X.X",
" X-X;X#X;X+X@X-X=Xb l `.3.,.#.k 9 8 8 8 @.#.#.@.@.9 9 s #.k <.3.^ w b .X X@X).XXoX XXX@X)..X.X+.@X).",
"/.#X-X#X;X@X_.-X( > D c 0 i i i 7 7 % O a @.#.a $ . % 7 i i 9 l P c > X..X@X+.oX.X+.XX.X).XX_./.XX).",
"/.+X#X#X-X@X.XXX< @ . @ ; ; & & - & & o $ 9 i 7 % # # $ 8 7 7 % . @ @ E .X.X X.X.X+.XX X).XX/./.XX).",
"^.+X#X+X#X@X_.R O X - f q 0 q ; & & & &         X - O @ - - & - - X X 1 ). X+..X XX..X X). X^.)._./.",
"o._.+X.X@X@X| 6 , . v f d q q ; = & @ & X @.*.% X O X & 8 0 q 0 q 1 X - | _.O. XO.X..Xo.O.).[ ^./.o.",
"| /._.)._.}.W 3 ; & g f 3 3 : ; & o o X $ 8.&.a   o . @ $ & : u u < X - ` +.X. XO.[  Xo.+./.' O.^.o.",
"[ o._.).).^.S 3 & : q d : 1 @ .   . . . y 8.*.:.O . .   . o & q q q X - ` +.O./.X.X.).X.^./.' O. .O.",
"| o._.).(.^.S < O : ; q & & X # % o # # J >.8.:.; . X . . X O * q & O + ` O.O.(.X.o./. ./.O.' ^.X.O.",
" .o._.)._.O.S < O L ; u q 1 O * @.9 o y ,.>.*.:.j % 9 ; * ; 0 r 0 3 3 - X.X.^.).[ +./.X./.X.' ^.X.^.",
"' ' (.^.O. .N 2 < } D 0 r q : 0 8 * O D :.*.*.H D & $ 8 r r r r 0 v v 3 [ [ O.^.[ ^.O.X./.| ' O. ./.",
"hXhXjXhXhXjX}.: N ) P P y 0 r 0 u q d P D j p j D d - * 7 8 r r D L B 6  .^._.(.[ _.O.| ^.' |  .` X.",
"rXrXrXrXrXgX8Xh W } P P J K H j f 1 g B g 4 : 4 B d ; ; 0 p p y g L W 4 fXzXzXzXzXzXzXzXzXlXlXlXhXhX",
"].].'.'.[.$XV.h ) ) L D D D K f q : B g g 2 2 2 h f 0 r u w e d g N ) 5 { Z.Z.C.Z.`.~.`.].'.$X$X*X*X",
"~.`.`.`.`.].[ _ { } L D f L D j p q h + X 5 2 X + g 0 a p p f g v B E h R / / / / Y I I I I U G U G ",
"O.' /./.+._.} _ } W B g P D D j u p 2 + + 2 2 + + : r r p p j v h B S B ( ( C.( ( ( ( / / / / T T / "
};
