/* XPM */
static char *pers_8_3[] = {
/* columns rows colors chars-per-pixel */
"50 50 240 2 ",
"   c #141217",
".  c #191A25",
"X  c #141C3B",
"o  c #0E142C",
"O  c #221E28",
"+  c #1D2135",
"@  c #27252B",
"#  c #282635",
"$  c #322B35",
"%  c #382D33",
"&  c #2B0F16",
"*  c #451C26",
"=  c #4D1E2B",
"-  c #47262A",
";  c #552B37",
":  c #463539",
">  c #583539",
",  c #4C2B30",
"<  c #682D39",
"1  c #63393B",
"2  c #74373C",
"3  c #65403F",
"4  c #55413F",
"5  c #192257",
"6  c #292B47",
"7  c #312C45",
"8  c #393548",
"9  c #393757",
"0  c #2D2F55",
"q  c #1B2A6C",
"w  c #383B66",
"e  c #2A336E",
"r  c #171D45",
"t  c #463849",
"y  c #563A45",
"u  c #453956",
"i  c #5A3E55",
"p  c #663944",
"a  c #6A364B",
"s  c #503E65",
"d  c #364979",
"f  c #384372",
"g  c #574348",
"h  c #49455B",
"j  c #584459",
"k  c #525053",
"l  c #694547",
"z  c #76484B",
"x  c #654B57",
"c  c #774B54",
"v  c #6B5656",
"b  c #7B5B5C",
"n  c #765657",
"m  c #69504E",
"M  c #47476A",
"N  c #584868",
"B  c #484976",
"V  c #585579",
"C  c #56526F",
"Z  c #644C69",
"A  c #6A5569",
"S  c #765A68",
"D  c #685678",
"F  c #765E77",
"G  c #6C4B6C",
"H  c #656469",
"J  c #7C6568",
"K  c #676873",
"L  c #776574",
"P  c #72767C",
"I  c #6C6266",
"U  c #84575B",
"Y  c #834B51",
"T  c #835E61",
"R  c #86686A",
"E  c #886C75",
"W  c #8C737B",
"Q  c #8B7375",
"!  c #947779",
"~  c #926E6E",
"^  c #96837E",
"/  c #113686",
"(  c #253789",
")  c #1B4696",
"_  c #294893",
"`  c #2A56A4",
"'  c #3467AD",
"]  c #595786",
"[  c #555689",
"{  c #675A87",
"}  c #735D87",
"|  c #586495",
" . c #6C6487",
".. c #786786",
"X. c #767687",
"o. c #696899",
"O. c #776A92",
"+. c #717397",
"@. c #4B70B1",
"#. c #6776AB",
"$. c #425CA1",
"%. c #5079CC",
"&. c #627EC4",
"*. c #846C86",
"=. c #897588",
"-. c #937985",
";. c #877997",
":. c #917D96",
">. c #847EA5",
",. c #2F81BD",
"<. c #7A868E",
"1. c #758BB3",
"2. c #5F81BD",
"3. c #38B8FA",
"4. c #3AADF3",
"5. c #369DD3",
"6. c #4D8ADC",
"7. c #5987D6",
"8. c #548ED1",
"9. c #7A97D7",
"0. c #6C8ECD",
"q. c #6AA5DD",
"w. c #4C98E6",
"e. c #5796E3",
"r. c #528EE1",
"t. c #689DE0",
"y. c #4AA9ED",
"u. c #53A8EC",
"i. c #4AB9F5",
"p. c #59BBFB",
"a. c #4DB0EE",
"s. c #7DADF5",
"d. c #69B9FA",
"f. c #78B7F7",
"g. c #79A7EA",
"h. c #45A5DE",
"j. c #36C3FE",
"k. c #3BC2FD",
"l. c #3EC9FE",
"z. c #46C6FD",
"x. c #57C9FD",
"c. c #4CD8FF",
"v. c #51D6FF",
"b. c #68C6FC",
"n. c #7AC6FB",
"m. c #78D6FE",
"M. c #66D1FE",
"N. c #9A8588",
"B. c #8A959B",
"V. c #9D9897",
"C. c #928A92",
"Z. c #A59898",
"A. c #A58B8E",
"S. c #A7A39D",
"D. c #B2A79F",
"F. c #8C9AA2",
"G. c #9799A3",
"H. c #8A92B1",
"J. c #A99CA3",
"K. c #98A3AB",
"L. c #9CA7B5",
"P. c #AAA6A3",
"I. c #B2ACA4",
"U. c #B5A7A8",
"Y. c #B8B3AB",
"T. c #A3A9B9",
"R. c #B9B8B7",
"E. c #ABB1B6",
"W. c #C4BBB2",
"Q. c #DAB0B3",
"!. c #CDC5BA",
"~. c #CAC3B8",
"^. c #D1C9BE",
"/. c #8294CC",
"(. c #899AD8",
"). c #96A7DB",
"_. c #92ACD1",
"`. c #A4ACC3",
"'. c #B5BBC5",
"]. c #A3B2DC",
"[. c #A9B6D7",
"{. c #B2BCDA",
"}. c #AAB4CA",
"|. c #869CE7",
" X c #839FF1",
".X c #89A5EB",
"XX c #94ABEC",
"oX c #97AAE6",
"OX c #9AB4EB",
"+X c #89A9F3",
"@X c #88B7F5",
"#X c #96B9F2",
"$X c #8FB4ED",
"%X c #A6B8E7",
"&X c #B0BEE5",
"*X c #A4BEF1",
"=X c #D0BEC0",
"-X c #BDC4CA",
";X c #89C8FA",
":X c #97C7F7",
">X c #8CDCFE",
",X c #89D4FD",
"<X c #98D8FD",
"1X c #A7C8F5",
"2X c #A4D9FB",
"3X c #B0C4EE",
"4X c #95E1FE",
"5X c #9DE3FE",
"6X c #8FE0FE",
"7X c #A7E3FE",
"8X c #B2E6FF",
"9X c #C5C8CA",
"0X c #D4CDC3",
"qX c #D3CCC9",
"wX c #DBD4CA",
"eX c #DAD3C8",
"rX c #CBD3D7",
"tX c #D4DADD",
"yX c #D8DAD9",
"uX c #C6CDD3",
"iX c #E1D9CE",
"pX c #E3DCD3",
"aX c #E5E1DA",
"sX c #E8E3DB",
"dX c #D4DDE2",
"fX c #DBDEE3",
"gX c #DAE3E7",
"hX c #E6EBEE",
"jX c #EAE8E5",
"kX c #F1EEEA",
"lX c #F4F2EE",
"zX c #EAEEF1",
"xX c #E7EEF7",
"cX c #EDF2F5",
"vX c #F6F4F1",
"bX c #F1F6F9",
"nX c #F5F9FC",
"mX c #FBFDFD",
"MX c #F9F8F5",
"NX c #EFF0E7",
/* pixels */
"(.(./.(./././.1.0.1.<.2.#.@.@.@.' ` ` ` ` ` ` ) ) ) ( ) ) ( d d f M f C C C C V H H K V K K K K K K ",
"XX.X+X+X+X#X+X@X@X@Xd.f.f.b.d.p.i.i.i.3.3.3.3.4.3.3.4.4.4.4.y.y.h.u.q.t.q.q.t.9.9.9.9.9.9./.9./././.",
"|..XXX+X+X+X+X@X@X@X@Xf.f.d.d.d.p.p.z.i.k.j.j.3.j.j.j.3.z.i.x.p.d.p.d.d.d.s.s.s.s.s. X+X X X X|. X|.",
"oXXX+XXXXXXX@X@X@X@X;X@Xn.n.n.b.x.p.z.k.j.k.j.j.3.j.j.j.k.i.a.p.d.d.d.f.f.g.s.s.+Xg. X X|.|.|.9.|.|.",
"oXXXXXXXXX#X@X#X@X#X:X;X;X;X;Xn.b.x.x.z.l.l.j.j.j.j.l.k.z.p.b.b.f.d.f.f.f.s.s.+X.Xg..X X|.|.|.|.|.|.",
"oXXXXXXXOX#X#X#X#X;X;X:X;X;X;Xm.n.m.x.x.x.z.z.l.l.l.z.z.x.b.b.n.n.n.f.f.@Xs.g.@Xg..X.X|.|..X|.|.(.|.",
"oXoXOXXXXX#X#X#X:X:X:X:X;X,X;X<X,Xm.m.m.M.M.M.v.x.v.x.x.M.n.n.n.n.n.n.;X@X@X@X@X+X.X XXX|.oX|.).|.(.",
"oXoXOXOX*XOX*X*X#X:X:X<X<X<X<X<X<X>X6X>Xm.>Xm.m.m.m.m.m.m.,X,X,X,X;X;X;X@X;X$X$X$X+X.XXX|.oX).|.(.(.",
"oX%X%XOXOX*X*X:X:X1X:X<X<X<X5X<X<X<X4X4X4X4X6X6X6X6X>X>X>X>X,X,X,X,X;X;X;X:X$X$X$XXXXXoXoX.XoX(.).(.",
"%X%X%X%X%X*X*X*X1X1X1X2X<X2X2X5X5X5X5X5X5X5X5X4X4X4X4X4X4X<X,X<X,X:X:X:X:X@X#X#X#XXXoXoXoX).oX).).).",
"].].%X%X%X%X%X*X*X1X1X1X1X2X2X7X7X7X7X7X5X7X5X5X5X5X5X4X<X<X<X<X<X<X:X:X:X$X#XOXOXoXoXoX).).).).).L.",
"{.[.[.[.{.%X%X%X%X&X3X1X1X1X1X2X2X2X7X8X8X8X7X8X7X7X7X<X2X<X:X:X:X:X:XOXOXOXOXoX].OXoX].].).].L.V.V.",
"U.`.{.{.{.{.{.&X&X&X&X3X3X%X3X3X3X3X3X$Xq.h.q.8.5.q.$X<X1X1X1X:XOX:XOXOXOX].%X).).].).].].`.K.V.V.V.",
"J.J.J.T.`.`.}.}.[.[.[.{.}.3X3X3X3X].,.) / / ) ) q _ ' @.0.[.[.[.1X[.[.[.[.].].[.[.}.}.`.P.V.S.S.Z.K.",
"9X9X9X=X-X-X-X9X'.'.'.'.'.E.}.-XL.` ) ` ,.5.5.5.5.,.,.' @.2.L.}.L.E.L.`.T.`.T.T.T.T.J.V.Z.V.V.V.Z.V.",
"mXmXmXmXmXmXmXmXmXmXnXmXmXbXnXgX8.h.x.c.c.c.c.c.c.c.c.c.a._.0XgXdXgXgXfXyXtXtXtXtXrXyXrXyXqXuX9X9X9X",
"nXnXbXnXbXnXnXnXnXnXbXbXnXmXxXg.a.a.y.i.i.i.i.i.i.i.i.i.a.a.:XmXmXbXbXbXnXbXbXbXbXbXbXbXbXbXbXbXbXbX",
"zXcXcXbXcXbXbXnXbXnXcXbXbXxX(.6.e.u.y.y.i.y.y.y.a.i.a.u.w.w.6..XcXbXcXbXbXbXcXbXcXcXcXcXcXzXzXzXNXcX",
"L.E.E.R.R.-X-X-X9X-X9XuXrX(.8.e.u.u.a.y.y.y.y.w.y.a.a.a.a.u.8.6._.gXaXtXgXtXdXdXdXgXtXgXgXdXdXgXgXgX",
"C.G.B.F.F.F.F.F.K.K.K.L.0.0.8.t.e.e.r.r.6.w.w.w.w.w.w.6.r.7.7.7.8.1.1.K.K.F.K.F.F.K.B.K.B.B.K.B.F.B.",
"dXdXdXtXdXrXrXuXuXrX9.0.9.8.7.%.%.' ' ` ' %.%.%.%.%.' %.%.7.&.0.&.0.2.<.L.F.F.F.<.B.<.<.<.<.<.P <.P ",
"nXnXnXbXmXbXmXmXmX_.| V d e e q q 5 5 e s @.@.%.@.$.( e ( _ ` %.&.0.H.<.gXhXhXgXgXgXgXdXtXrXrXuX-X-X",
"cXbXbXcXcXbXhX'.P o + e e 0 6 7 7 8 # r 0 ` $.@.$.( 5 r r 5 q / ( ( V #._.mXcXzXhXcXzXcXcXcXzXcXcXcX",
"nXnXnXbXnXmXk 6   8 | C M h u u t t y : o o X r r o # 8 t u 9 0 e e e X 0 K.hXcXhXhXhXhXhXhXhXhXhXhX",
"fXfXyXyXaXyXH % % +.{ D N N B s u 8 t i %   O O     y t t t u u u s B [ . o 8 rXcXhXzXzXcXNXhXcXcXzX",
"I.Y.Y.P.Y.P.P 8 k :...} D V [ M w 9 0 u t . #.%._   t $ 7 9 s s s i h K K   @ V.R.R.Y.R.Y.I.Y.R.R.R.",
"Y.Y.Y.I.Y.P.C + C :.F G A C B s 9 7 7 7 O f t.7.&.# @ @ 7 9 w s [ { D F C.$ 4 V.S.I.S.D.S.V.S.S.V.S.",
"S.D.S.S.I.V.k 6 k X.S S S j 9 6 # @ O # & o.&.%.0.u O @ O # 9 u N D { } ;.8 k ^ S.V.V.D.D.^ V.V.V.I.",
"Y.Y.Y.I.P.V.8 h t D x k g 7 @ . . . O . u H.&.%.&.{ . O .     @ 7 x D } X.$ k S.I.I.I.I.I.S.D.S.S.I.",
"~.~.~.W.I.V.@ M C t A u t % $ .   @ # + O.#.&.&.&.>.9 X + . . @ % : N O.C @ v I.Y.Y.Y.I.I.I.I.I.I.D.",
"sXsXNXsXyXP.. h J.h w ] G x y u 9 6 O i >.#.&.o.o.;.P . 0 9 8 % y i V ] C $ H NXNXNXNXNXNXNXjXsXNXsX",
"MXmXmXMXNX~.@ H J.+.V w 0 9 0 e e w i *.:.*.G G S -.;.g 7 0 s B B d f M V.k P vXcXNXvXlXvXlXvXvXvXNX",
"vXvXvXvXaXqXx :.G.>.H.+.] B B B ]  .S -.-.~ Y c Y -.-.S G B w e e B ] C.J.=.Y.lXlXlXvXlXlXlXlXlXlXkX",
"MXMXMXMXNXV.S J.G.:.*.O.o.o.o.o.{ x U -.~ ~ U Y ~ ~ -.T i s [ | o.o.O.;.G.Z.qXjXvXvXvXvXlXlXvXlXlXkX",
"sXlXkXNXlXU.-.U.Z.:.;.O.O.+. .D G i ~ ~ * p U Y z ; ! E s G s { { } ..:.V.U.U.qXsXpXsXjXpXpXpXiXpXpX",
"wXjXjXjXlXQ.A.U.Z.:.*...;...} { G i ~ z & ; Y Y p   2 ~ s ] { { ....=.-.Z.J.U.pXiXeXpXpXiXpXiX0XpXpX",
"eXsXsXsXlXQ.-.E.A.-.*.*.=.*.} D Z B D 2 < z z z Y < < G s s { } O.=.-.N.Z.U.W.pXiXeXpXpXwXpXwXqXpXwX",
"0XaXjXsXNXQ.A.J.A.W W =.*.E } G { o.] p > p 2 l < < i [ [ N Z D L =.-.N.Z.Z.U.iXiX0XpXwXwXpXeXeXpXwX",
"0XaXsXpXjXW.-.Z.A.-.! -.W E F { o.o.{ i > > ; > > y i { o.V Z G F W N.N.Z.Z.J.iXiX^.pXeXeXwX0XeXiX0X",
"^.wXpXpXsXW.W Z.A.-.-.W E *.F O.o.] C i j > - - > y x D o.o.N G R ! N.N.Z.A.A.eX^.!.pX^.0XeXW.qXeX0X",
"~.0XwXeXpXW.E N.N.N.-.E W W S { { N N S S c a p a G j C ]  ...A T ! N.^ A.^ Z.iX!.!.wX^.0X0XW.0XqXQ.",
"~.^.eXwXW.L Q Q N.! ! ! ! E L L A F F c a a a < a a S A A Z L F R N.^ ^ N.Q I S.^.~.wX^.0X^.W.^.^.0X",
"~.!.iX^.G.N.Q W W Q Q Q ! Q J n R c < * * = = = * * ; z b x L J Q -.~ Q Q J Q W W.^.0X!.0X^.W.0X!.^.",
"~.!.iXU.qXU.J Q Q R R R ! W c > > = = ; ; = * * * * & - p p b E ^ ! J J R J D.eXK.^.0X^.0X^.W.qX!.0X",
"W.~.-XL.wXS.R R Q J R b W ~ z y l c b c a a ; p p p p , - - 3 ~ A.R n n J b Z.0XK.0X^.^.0X~.W.0X!.eX",
"jXkX}.rXvX0XJ R J I J J W R b R R R R z z < ; < p z c b n l 3 R A.b m J J v U.R.P.eX!.~.^.W.W.!.W.!.",
"cXhX1.gXxXqXv v I n v R Q ~ U T U c Y n > ; , , 1 3 z l n n n ~ N.v v v v v NXgXhXmXMXmXMXvXMXvXkXvX",
"tX'.#.tXdXR.m v m v n R Q ~ R T n n 3 3 > , % - 4 3 3 3 z U b Q ^ n m 4 m v ~.L.-X-X9XuXuXrXrXtXdXtX",
"uXH.#.uXuXE.g k g 4 m R Q R T U n z 3 3 2 , - - > 3 3 3 3 b T ~ ^ v 4 : : v P.1.E.L.E.K.L.K.K.K.K.K.",
"wX+.H.wX^.!.v y : : 4 b Q T b U b n 3 3 1 > > > 3 3 3 3 3 U T R ~ 4 , 4 % L F.F.R.E.E.E.E.L.L.L.K.L."
};
