/* XPM */
static char *pers_8_5[] = {
/* columns rows colors chars-per-pixel */
"50 50 237 2 ",
"   c #0E0E13",
".  c #171519",
"X  c #0E0A0C",
"o  c #231B1C",
"O  c #1D1A23",
"+  c #161729",
"@  c #161834",
"#  c #241D25",
"$  c #351F21",
"%  c #1E212F",
"&  c #29242B",
"*  c #382528",
"=  c #2A2536",
"-  c #342B39",
";  c #362B37",
":  c #3C3637",
">  c #49252B",
",  c #56292B",
"<  c #482C37",
"1  c #572D34",
"2  c #463539",
"3  c #5A373B",
"4  c #653338",
"5  c #481E1F",
"6  c #4A413D",
"7  c #161B46",
"8  c #192450",
"9  c #282848",
"0  c #372B46",
"q  c #3A3249",
"w  c #393657",
"e  c #2B3056",
"r  c #142A6C",
"t  c #293A69",
"y  c #3A3866",
"u  c #293373",
"i  c #473349",
"p  c #563A48",
"a  c #493B56",
"s  c #543A56",
"d  c #412D46",
"f  c #623743",
"g  c #473A64",
"h  c #533E68",
"j  c #3E4150",
"k  c #354776",
"l  c #32446D",
"z  c #1B467E",
"x  c #48464C",
"c  c #58454C",
"v  c #584559",
"b  c #525058",
"n  c #654A4A",
"m  c #684B58",
"M  c #76585A",
"N  c #6C5151",
"B  c #77645C",
"V  c #4B4264",
"C  c #584766",
"Z  c #494774",
"A  c #555677",
"S  c #515272",
"D  c #644E65",
"F  c #6A5468",
"G  c #765A64",
"H  c #6A5976",
"J  c #705D7A",
"K  c #5C616C",
"L  c #7C6664",
"P  c #7C726A",
"I  c #6E7478",
"U  c #74797C",
"Y  c #6B6774",
"T  c #8F585E",
"R  c #85676A",
"E  c #84786D",
"W  c #826977",
"Q  c #857D7B",
"!  c #877874",
"~  c #937A7B",
"^  c #946A6F",
"/  c #8D6162",
"(  c #8D847A",
")  c #8E8276",
"_  c #958A7D",
"`  c #938779",
"'  c #3538BF",
"]  c #354E8D",
"[  c #3A59A8",
"{  c #3B69B6",
"}  c #1E4F89",
"|  c #4F5B8A",
" . c #5A6997",
".. c #526693",
"X. c #757D82",
"o. c #797E84",
"O. c #6F7394",
"+. c #4969A9",
"@. c #5677AA",
"#. c #456BB8",
"$. c #5B75B6",
"%. c #4E72B0",
"&. c #6576A7",
"*. c #6678B4",
"=. c #6C5F81",
"-. c #3A77C8",
";. c #397ED8",
":. c #4577C5",
">. c #5778C8",
",. c #5F7FD3",
"<. c #4778D2",
"1. c #617EC9",
"2. c #937D85",
"3. c #7B838A",
"4. c #7B8495",
"5. c #6B8ABC",
"6. c #758CB6",
"7. c #7A91BB",
"8. c #7387AA",
"9. c #5F83AA",
"0. c #3786D5",
"q. c #348BCE",
"w. c #359DE4",
"e. c #3E82E2",
"r. c #33A7EA",
"t. c #33B1F1",
"y. c #5C82DC",
"u. c #5E83D8",
"i. c #6785C9",
"p. c #718DC9",
"a. c #7994C8",
"s. c #6383D3",
"d. c #6D8BD4",
"f. c #6B8BDC",
"g. c #6687D9",
"h. c #718CD6",
"j. c #6C95DD",
"k. c #7895D8",
"l. c #6E91C1",
"z. c #498BE8",
"x. c #528DE8",
"c. c #5888E5",
"v. c #5B95E9",
"b. c #5A94E7",
"n. c #4393E0",
"m. c #638BE4",
"M. c #6789E3",
"N. c #6698E6",
"B. c #769AE5",
"V. c #6BA4EA",
"C. c #73ADEC",
"Z. c #7AA6E7",
"A. c #7BB4ED",
"S. c #79B6EE",
"D. c #7AB8F0",
"F. c #83858B",
"G. c #958C82",
"H. c #968786",
"J. c #9B9185",
"K. c #9A928A",
"L. c #868897",
"P. c #989697",
"I. c #8F8F95",
"U. c #A5998D",
"Y. c #A6998D",
"T. c #A49B91",
"R. c #A99E93",
"E. c #BE9B97",
"W. c #AEA295",
"Q. c #AEA39A",
"!. c #B2A69B",
"~. c #B6A99E",
"^. c #B4A69A",
"/. c #888CA5",
"(. c #8C92AB",
"). c #9799A8",
"_. c #8895B8",
"`. c #949BB9",
"'. c #9AA4B2",
"]. c #A6A7AB",
"[. c #BAAEA2",
"{. c #B6ABA4",
"}. c #BCB2A6",
"|. c #A7ADB2",
" X c #ADB4BA",
".X c #AAB0B6",
"XX c #B4BABE",
"oX c gray72",
"OX c #B1AFB1",
"+X c #C2B5AA",
"@X c #C5B8AB",
"#X c #C9BDB1",
"$X c #C5BBB4",
"%X c #C4A6A3",
"&X c #CCC2B9",
"*X c #D1C6BB",
"=X c #879CC8",
"-X c #859CD6",
";X c #8DA0CA",
":X c #94A4C8",
">X c #8CA3D8",
",X c #92A7D8",
"<X c #B5BCC2",
"1X c #B9BFC3",
"2X c #A4B2C2",
"3X c #86A8E5",
"4X c #87B6EB",
"5X c #83BDF0",
"6X c #BBC1C6",
"7X c #84C0F0",
"8X c gray77",
"9X c gray79",
"0X c #D5CDC5",
"qX c #DCD4CC",
"wX c #D6D0CA",
"eX c #C7CDD1",
"rX c #CDD2D4",
"tX c #CED4D8",
"yX c #D2D5D6",
"uX c #D3D7D8",
"iX c #D5D9DB",
"pX c #DADDDD",
"aX c #DED7D1",
"sX c #D0CFD1",
"dX c #E2DBD5",
"fX c #E3DFDA",
"gX c #E0D6CD",
"hX c #E6E2DE",
"jX c #E9E3DC",
"kX c #DADEE0",
"lX c #D7DCE2",
"zX c #DEE1E3",
"xX c #E2E4E5",
"cX c #E3E6E8",
"vX c #E9EBED",
"bX c #EBE8E5",
"nX c #F0F1F4",
/* pixels */
"*.>.>.2.*.*.*.&.&.*. . ...| | | k k ] k k k t t t t t t e e q w j w j j j w x a x x x x x x x x x x ",
",.,.,.M.,.M.,.,.,.M.m.c.m.c.c.c.x.x.z.e.z.e.z.z.0.;.;.;.0.<.<.n.<.>.>.>.>.>.>.>.>.$.$.*.$.$.*.$.$.&.",
"h.1.h.h.h.h.M.M.M.,.M.M.m.c.c.c.c.x.x.z.z.z.z.z.z.z.z.z.z.x.n.x.x.z.z.c.z.,.x.,.,.,.u.,.,.u.,.,.1.1.",
"h.h.h.,.,.h.M.M.M.h.M.M.M.M.m.N.v.v.v.v.x.x.z.z.x.z.z.z.x.x.y.c.c.y.,.,.,.,.,.,.,.,.,.,.1.1.1.1.1.1.",
"h.h.-X,.h.h.M.,.,.3XM.M.N.N.N.N.N.v.v.v.r.v.v.v.b.x.n.b.b.n.c.b.c.c.c.c.,.,.u.u.u.u.s.s.i.>.i.>.1.5.",
"p.h.1.-X,.-X,.3X,.,.B.N.M.B.N.N.N.V.v.V.V.V.v.v.v.N.b.N.b.j.b.b.b.g.m.c.c.x.u.u.s.s.s.s.i.i.i.i.*.i.",
"_.p.-X1.-Xh.h.-X3XM.B.B.B.B.V.B.B.V.V.V.V.V.V.V.V.V.V.j.V.v.v.v.b.b.m.m.m.g.g.g.g.i.i.i.i.i.i.i.5.5.",
"h._.h.-Xh.-Xh.-X,.3XB.B.B.C.Z.C.C.C.S.C.C.C.C.C.C.V.V.V.V.V.N.V.j.N.N.N.M.f.f.g.d.d.d.p.i.i.l.5.5.5.",
"h.=X=X=X-X-X-X,.3XB.3XB.B.3X3XC.C.D.5XD.D.D.5XA.S.S.S.C.C.V.V.V.V.V.V.j.j.j.d.d.p.d.p.p.p.p.p.6.5.6.",
"_.`.=X=X=X-X-X3X-X-X3X3X3X3XC.4XA.4X5X5X5X5X7XD.5XS.A.S.C.C.V.Z.V.j.j.j.j.j.j.a.p.k.p.p.a.7.l.6.6.6.",
"_._.=X=X=X;X-X-X>X-X>X>X>X3X3X4X4X4X4X4X5X5X4X7X7XD.A.4XA.Z.Z.Z.Z.Z.B.k.k.k.k.k.a.a.l.a.l.6.6.6.6.O.",
"2.-X_.(.:X=X;X;X-X:X>X>X>X>X3X3X3X3X4X3X4X4X3X4X4X3XA.>XZ.Z.Z.Z.a.k.k.a.k.a.a.a.a.7.7.7.7._.6.F.! P ",
"L.2.(.=X`.`.;X>X`.`.:X:X:X,X:X,X,X,X,X,X,X,X,X,X>X>X>X>X-X-Xk.k.;Xa.a.;Xa.a.7._.7._._._.(.L.2.P E Q ",
"2.2.2.2.2.2.2.2.2.=X(.`.`.`.=X`.:X:X:X:X:X,X,X:X:X:X:X=X;X;X;X`._.=X_._._._.(._.(.(./.L.F.! U Q Q Q ",
"OXOXOX].].2XOX].].`.).).).).).).).).).).).).).).)./.(.L./.L.L././.L.L.L.4.L.L.L.L.4.( E E ! E E E E ",
"nXnXvXnXnXnXvXvXvXnXvXvXbXhXxXzXzXhXzXkXpXpXiXiXuXyXqXyXsXsX9X9X9X9X9X6X9X8X8X6X6X&XoXXXoXoXoXOX{.|.",
"cXzXzXcXxXxXzXxXzXcXxXxXcXcXzXcXcXcXcXcXcXcXcXcXcXzXxXxXxXxXxXxXxXxXxXzXzXzXzXzXkXzXzXpXkXzXpXpXkXpX",
"sXtXiXiXpXkXkXzXzXzXkXzXzXzXkXzXzXzXzXzXhXzXxXjXzXxXzXzXzXxXkXkXkXkXkXkXpXpXpXpXpXpXiXiXiXiXuXuXuXuX",
"F.P.I.P.P.P.).).].].|.|.|..X|.|..X|. X2X2X'._.6.8.:XXXXXXX2XXXXXXXXXXXXXXXXX1X1XXXXXXX1X1X1X6X1X6X6X",
"=.o.I X.3.X.3.U 3.X.3.3.U 3.3.3.3.8. .} r r r r 8 t k k 3.3.X.X.X.X.X.X.X.U 3.X.I X.I U U I U I U I ",
"1X8X6X6X6X6X<X<X<XXX X X X X|. X'.k r 7 r z } } } z z k ..3.I.L.4.4.3.3.3.3.3.X.I I I Y Y K K K K b ",
"cXcXzXzXzXzXzXcXzXzXcXzXxXzXcX6X..} { q.w.t.t.r.r.r.q.q.9.'.iXiXuXpXtXtXrX6X6X6X6X8XXX1X1XoX XOX.X|.",
"lXkXkXkXzXzXpXzXkXkXkXkXpXxXrX9.n.n.w.w.w.w.w.w.r.r.r.w.q.l.rXpXiXiXuXiXiXpXuXuXuXuXyXuXuXuXyXyXuXaX",
"zXcXzXcXzXcXcXzXcXzXzXzXcXuX8.9.q.{ -.0.q.q.w.0.0.0.q.q.{ -.5.rXpXiXuXuXuXtXuXtXtXtXrXrXrXrXrXrXrXeX",
"8X8X6X&X8X&X8X9X9X9X9X0X6X8.9.%.#.{ -.-.;.;.-.0.0.0.-.-.-.#.%.9.4.9XiXtXtXtXuXuXuXuXiXyXiXiXrXiXiXyX",
"G.G.G.) J.( G.K.K.G.T.K ..9.@.#.n.q.0.0.;.-.-.-.-.;.0.0.-.{ { 9. .j Q T.K.K.U.` K.K.K._ _ _ _ T.J.T.",
"G.J.J.( K.G.G.K.G.J.K | 8.&.%.%.:.#.:.-.-.-.-.-.-.-.-.{ :.#.{ ..9.K j Q ( ( _ P ) ) E ` ) B E ) P ) ",
"Q ) ( E _ ( ( _ _ K | 8.O.&.9.@.+.+.[ ] [ [ { { { [ [ [ #.+.@. ...4.K K E ( _ P E E E ` ` B P P P ` ",
"K.J.K.J.T.U.K.U.I k (.4.&...] ] r 8 8 9 u ] ] [ ] ] t r u ] [ +.&.O.3.k ( T._ _ ` ` _ _ _ ) ` ) ) ` ",
"Y.T.T.T.T.T.Q.G.l S b 9 % + + + + + + + - k ] k u e O + @ 7 8 8 k H I.A K _ _ _ _ _ _ _ _ _ ` ` ` ) ",
"0XwXwXwXwXwX*Xb % X O - - - = * * & & + @ e u ] 8 @ + % & O o . + + % : j 9XjXgXdXfXgXgXqXqX0XwXwX0X",
"bXbXbXbXbXnXP.  . & D S g d q = # = & <   X X X X   * & = - 9 - = - =   . b 0XjXfXfXdXdXdXdXdXdXgXdX",
"fXfXhXhXhXyXP : X F F s i 0 q 9 = & # ; $   e y   . $ # # = 0 y g w v c O . ~.jXaXgXgXjXjXgXgXgXdXgX",
"hXhXhXjXhX$XB : O F m 3 3 i q q = # + # . 7 #.:.t X # . # = - - i g h H & & @XjXhXhXgXgXgXgXgXgXgXgX",
"&XaXgXqX*X!.n & & C p 3 c 2 - = # O . # . Z $.#.| . # . . O & = 1 h h F : & U.*X*X@X*X*X@X*X#X@X*X&X",
"+X0X0X0X$XR.6 & : q i < ; # O   X   . # # =.#.#. .=   .       # * a h F & & Y.&X&X[.#X*X[.&X@X[.&X}.",
"[.&X0X&X$XY.: + p = h e 0 * # + 7 # % + g =.+.:. .V . # .   + # = 0 g v   & _ &X@X~.@X@X[.@X}.^.&X[.",
"[.*X*X*X+XY.2 # 2.- w g i < $ u ' u # % =. .+.#...J = @ 9 - 0 0 w g Z q 2 6 %X&X@X~.&X@X[.&X[.[.&X[.",
"{.&X*X&X+XH.2 c 2.Y 0 e w 0 0 w y 9 # p =...[ | | 2.s + 9 w g y y Z e v E R W.@X@X^.#X[.[.@X^.[.@X^.",
"!.}.&X@X#XH.2 P 2.J J a 9 = 9 9 9 w p m =.H h h H H s 1 0 7 8 e e e v W Q ! _ [.[.W.@X^.[.[.Y.[.[.^.",
"W.{.}.}.}.%XM 2.2.W J H C h h h h i 3 G R f f 1 n R F < < w y w g h J W ~ R Y.[.W.W.@X^.~.[.Y.^.^.^.",
"T.Q.}.[.}.%XT K.2.W F D C A | g d , f R T N 4 1 n T R d ; - a h V C m R _ ^ ~.[.W.W.}.W.~.~.U.^.^.^.",
"T.!.[.[.{.E.^ K.2.^ F D D F h s i < m T $ 3 4 3 4 3 ^ p 0 g g s s D F R 2.~ ~.[.W.W.[.W.~.^.U.~.W.^.",
"Q.Q.+X[.[.%X^ 2.2.W F D F F v h i d f , X > 4 4 5 X 4 p 0 g g C D M / R ~ ~ ~.[.W.^.[.W.~.W.Y.~.W.~.",
"U.U.[.~.{.!.P ~ 2./ M G G F s s d g a , 5 4 , 4 , 5 > w 0 0 a h D G B ^ ~ ! ^.~.R.~.~.W.[.W.Y.{.W.{.",
"xXxXcXxXxXsXG E ^ G M G G m s s g h a > $ > , , > 5 d g g 0 i s m R L R ! R [.!.T.[.^.W.^.U.Y.W.U.W.",
"kXkXlXlXcX8XN L ^ R G G M m C C Z | a : * $ $ > * > i h Z q < p N M / R R B zXnXnXnXnXvXnXcXvXcXzXxX",
".X.X.X X Xv N G R R R M N G m C Z g q ; < $ o o * * 0 g A C i p N R M R L n b '.|.|..X.X.X X<X6X6X6X",
"].].].|.L.L.N m L L M M M M c C a a i s f < * > 1 2 ; q V D v 3 M B M B c B 3.K I.4.3.3.3.3.X.o.X.3.",
"Q.T.{.P.K.!.n N M N M M M M N c c c f p , > < > > 1 p i q x v f M M N n c L Q.3.I.P.I.I.I.F.L.3.F.3."
};
