/* XPM */
static char *pers_8_6[] = {
/* columns rows colors chars-per-pixel */
"50 50 241 2 ",
"   c gray4",
".  c #0B0D17",
"X  c #14141A",
"o  c #1A171C",
"O  c #1D191E",
"+  c #141214",
"@  c #130E0F",
"#  c #341717",
"$  c #1D1A23",
"%  c #161728",
"&  c #131632",
"*  c #231D26",
"=  c #2F1F28",
"-  c #2A232C",
";  c #272227",
":  c #362427",
">  c #282537",
",  c #362A39",
"<  c #3B3335",
"1  c #1F2339",
"2  c #492527",
"3  c #442C37",
"4  c #47383B",
"5  c #572D32",
"6  c #633A3D",
"7  c #4A423E",
"8  c #0D1C59",
"9  c #121846",
"0  c #1A2350",
"q  c #2B2846",
"w  c #352B49",
"e  c #393949",
"r  c #282B57",
"t  c #372D54",
"y  c #2B3658",
"u  c #373757",
"i  c #2E3349",
"p  c #273867",
"a  c #373A66",
"s  c #293271",
"d  c #192A71",
"f  c #463547",
"g  c #533B47",
"h  c #493759",
"j  c #533B57",
"k  c #402F41",
"l  c #483A64",
"z  c #663F47",
"x  c #374871",
"c  c #464347",
"v  c #574749",
"b  c #594459",
"n  c #514E54",
"m  c #644B59",
"M  c #685656",
"N  c #75585C",
"B  c #6B474B",
"V  c #77655C",
"C  c #464568",
"Z  c #585868",
"A  c #48577C",
"S  c #554E70",
"D  c #685568",
"F  c #775964",
"G  c #6A5771",
"H  c #5C6268",
"J  c #676669",
"K  c #786A66",
"L  c #7C716B",
"P  c #7F7367",
"I  c #686C74",
"U  c #796A75",
"Y  c #6C7175",
"T  c #6C747B",
"R  c #677079",
"E  c #787678",
"W  c #856A6B",
"Q  c #85796E",
"!  c #866B75",
"~  c #847C72",
"^  c #897E73",
"/  c #897979",
"(  c #957173",
")  c #905054",
"_  c #8D8275",
"`  c #8D847B",
"'  c #92887B",
"]  c #2D388E",
"[  c #1E518E",
"{  c #344789",
"}  c #375095",
"|  c #3A59AA",
" . c #395EB2",
".. c #3968B8",
"X. c #386EB8",
"o. c #545989",
"O. c #495891",
"+. c #576897",
"@. c #536892",
"#. c #6C7584",
"$. c #777C85",
"%. c #7B7B93",
"&. c #656C93",
"*. c #4867A7",
"=. c #596DA7",
"-. c #5A74AA",
";. c #4368B6",
":. c #546EB7",
">. c #5C7BBB",
",. c #4874B6",
"<. c #697DA5",
"1. c #4157A1",
"2. c #366DC2",
"3. c #3577C8",
"4. c #4C6FC4",
"5. c #5A7BCB",
"6. c #5A79C6",
"7. c #4578DA",
"8. c #557BD6",
"9. c #4873CD",
"0. c #627ECE",
"q. c #4A7EE2",
"w. c #947D84",
"e. c #827C8E",
"r. c #7B838A",
"t. c #7E8397",
"y. c #7B87AA",
"u. c #6986B7",
"i. c #788CB3",
"p. c #7991BB",
"a. c #5C82B1",
"s. c #3384D4",
"d. c #2E92DC",
"f. c #328BD6",
"g. c #2EA1E8",
"h. c #2E9BE4",
"j. c #5D82DC",
"k. c #5885DA",
"l. c #5B84D5",
"z. c #6483CB",
"x. c #6A88C8",
"c. c #7794C7",
"v. c #6282D4",
"b. c #6283DA",
"n. c #698AD6",
"m. c #718FD6",
"M. c #6894DB",
"N. c #7795D7",
"B. c #738ECA",
"V. c #4C84E4",
"C. c #4783E5",
"Z. c #558AE3",
"A. c #5B8DE3",
"S. c #5783E3",
"D. c #5C93E5",
"F. c #639BE6",
"G. c #6696E4",
"H. c #749DE3",
"J. c #638CE1",
"K. c #6BA5E9",
"L. c #76A8E7",
"P. c #79B2EB",
"I. c #6FB0E9",
"U. c #79A1DF",
"Y. c #88878A",
"T. c #948B83",
"R. c #978A83",
"E. c #9C9186",
"W. c #9C938A",
"Q. c #979089",
"!. c #858898",
"~. c #949498",
"^. c #8B939C",
"/. c #A3978C",
"(. c #A69C92",
"). c #A99E94",
"_. c #A69B94",
"`. c #B09892",
"'. c #ADA39A",
"]. c #ACA196",
"[. c #B2A69C",
"{. c #B3A89D",
"}. c #858AA7",
"|. c #8E91A6",
" X c #969AA4",
".X c #8796B9",
"XX c #818FB3",
"oX c #9CA4AA",
"OX c #9AA1A7",
"+X c #9DA8B6",
"@X c #A1A5AC",
"#X c #A3A9AF",
"$X c #A9A7A9",
"%X c #B9ADA3",
"&X c #B6ABA3",
"*X c #BEB2A8",
"=X c #A5ABB3",
"-X c #A6ABB1",
";X c #ABB1B5",
":X c #ACB3BA",
">X c #B1B6BA",
",X c #B8B8B9",
"<X c #C1B5AA",
"1X c #C4B8AE",
"2X c #C6BCB4",
"3X c #CAC2BA",
"4X c #D1C7BE",
"5X c #889CC5",
"6X c #839CD6",
"7X c #8BA0CC",
"8X c #89A1D6",
"9X c #9CAAC1",
"0X c #B8BDC3",
"qX c #82A6E4",
"wX c #80B5EC",
"eX c #BDC2C7",
"rX c #C5CACD",
"tX c #CACCCE",
"yX c #C5C5C5",
"uX c #D3CCC6",
"iX c #DAD3CD",
"pX c #D6D1CC",
"aX c #CACED1",
"sX c #C7CDD1",
"dX c #CDD1D3",
"fX c #CED4D8",
"gX c #D1D4D6",
"hX c #DCD6D1",
"jX c #D2D6D9",
"kX c #D5D9DC",
"lX c #D9DCDE",
"zX c #DED9D5",
"xX c #E1DCD9",
"cX c #E6E2DF",
"vX c #DBDEE1",
"bX c #D4DAE0",
"nX c #DDE1E2",
"mX c #E2E4E6",
"MX c #E7E6E6",
"NX c #EAEEF3",
"BX c #DDE0DF",
/* pixels */
">.=.0.0.=.<.:.=.=.=.@.@.o.o.o.o.O.x x x x x x u y y y u y u e e e e c e e c e f c e c c c f c c c c ",
"0.0.0.0.0.0.8.0.q.0.8.S.q.k.S.q.S.q.q.q.q.q.3.q.7.C.7.3.7.9.7.7.9.9.9.9.4.4.4.:.:.:.:.:.:.=.=.:.=.=.",
"0.0.0.0.0.0.0.8.0.8.0.S.8.S.j.S.S.S.V.V.C.C.V.C.V.C.C.C.V.C.C.V.q.s.V.7.7.q.8.8.8.8.8.8.8.5.5.5.5.6.",
"0.0.0.0.0.0.0.J.0.J.b.S.J.J.A.S.A.Z.Z.Z.Z.S.Z.V.V.V.V.V.V.V.V.k.V.l.8.8.8.8.8.8.9.6.5.5.6.6.6.6.:.>.",
"i.0.B.0.m.0.0.0.J.0.0.J.J.J.J.J.S.D.D.D.D.Z.D.D.Z.D.Z.Z.Z.Z.V.k.V.k.k.8.8.8.8.5.5.5.5.5.6.6.6.6.6.>.",
"0.0.0.B.0.m.m.J.J.n.J.J.J.J.G.D.G.G.D.D.D.D.D.D.D.D.Z.Z.Z.Z.Z.Z.k.k.k.k.l.8.5.l.5.5.5.5.6.z.>.>.>.>.",
"B.5XB.0.B.m.0.m.n.m.m.G.J.J.G.G.G.G.F.F.F.F.D.D.D.D.M.D.D.D.Z.D.k.D.k.k.k.v.l.l.v.l.z.z.z.a.z.>.a.u.",
"XX0.0.B.m.m.m.m.m.m.H.G.H.H.H.H.K.K.K.K.K.I.K.K.K.K.F.F.F.F.D.M.D.k.k.b.k.n.l.n.z.z.z.a.z.z.u.u.u.u.",
"c.c.5X0.5Xm.m.6X0.m.H.H.H.H.K.H.K.K.L.I.K.I.P.I.K.K.K.K.F.K.F.K.M.M.M.M.l.n.l.x.x.z.x.x.x.u.u.u.u.u.",
"XXXX5X5X6XB.6Xm.6X6XN.6XqXH.qXL.wXL.L.P.P.P.P.I.I.I.L.I.K.K.F.F.F.M.M.M.M.n.x.M.x.x.x.x.u.u.u.u.u.y.",
"XXXX5X5X5X5X6X6XB.6X6X6X6X6XqXqXqXqXwXwXwXwXP.P.P.P.I.L.K.K.H.H.M.M.n.n.M.x.n.x.x.B.B.u.u.i.u.u.<.T ",
"}.}.5Xe.5X5X5X5X5X5X5X6X6X6XqX6XqXqX8XqXqXqXqXqXL.qXU.U.U.N.H.N.N.m.c.B.B.c.c.p.c.p.i.i.i.i.y.$.U K ",
"Y.!.e.e.5Xe.5X5X.X.X5X7X5X7X7X7X6X6X8X7X8X8X8X6X6X6X6Xc.N.c.c.c.c.c.p.c.p.p.i.i.i.i.i.y.y.%.E L L L ",
"! ! e.e.e.e.e.e.e.e.e.XX|.|.XX.X5X.X5X9X5X5X7X7X5X5X5X5X.X.Xp..X.Xp.p.i.i.i.XXy.}.y.}.e.E Q E Q L E ",
"$X$X$X$X$X-X@X@X@X+X X X|.|.|.|.|.w.|.^.|.|.|.^.!.|.}.!.}.!.e.}.t.e.t.r.t.r.%.t.%.e.Q L W L L L L L ",
"MXMXmXmXMXNXmXmXmXmXmXmXmXcXvXvXvXmXkXkXjXhXiXdXdXtXuXtXyXyXyXeXyX0XeX0X,X,X0X2X,X,X,X,X;X&X$X$X$X$X",
"vXvXkXBXvXvXnXnXnXlXnXnXnXnXnXlXnXnXBXBXBXBXBXBXBXBXBXkXBXkXBXBXlXkXlXkXkXkXkXkXkXkXjXjXjXjXjXjXjXgX",
"sXsXtXdXdXjXjXjXjXkXlXkXkXjXkXjXkXjXjXkXkXkXkXkXkXkXjXkXBXjXjXjXjXjXkXgXkXdXgXdXgXdXdXdXdXdXdXtXaXaX",
"$.Y.Y.^.Y.^.~.~.OX XOXoXOXoXoXoXoXoX+XoX=XoXoX#X#X#X=X=X;X=X;X;X;X;X;X;X;X;X;X;X;X>X;X:X;X>X,X>X>X>X",
"I E Y T T T E T E T T E Y T T r.r.T r.T T T Y T R T Y R T Y Y T Y Y Y Y T Y Y T Y Y Y Y Y J Y I Y I ",
">X0X>X>X>X:X:X:X:X;X=X;XoX+XoX+XoXOXOXoXoXoXOXOXOX^.OXt.t.r.r.r.r.r.r.$.r.T T R Y Y J J H H H H Z n ",
"nXkXkXnXlXBXlXnXkXnXnXlXnXkXBXbXkXbXBXeX9X.Xp.a.a.+XeXbXbXjXdXfXfXsXrXeXeXeXeX0X0X,X>X>X>X;X-XoX$XoX",
"fXjXgXjXjXjXjXjXjXjXjXjXjXjXjXfXlXeX@.p 8 8 8 8 9 y i a.+XsXdXdXdXsXdXdXdXdXdXtXtXtXsXdXtXtXtXtXtXaX",
"nXnXBXnXkXnXnXkXbXnXkXnXkXkXjXBX+Xp 9 0 p [ [ [ [ [ p x #.;XfXdXdXfXdXsXsXsXsXsXsXrXrXrXrXrXrXrXyXeX",
",X,X,X,XyX,X,X3XyX,XyXyXyXyXyX=Xx [ X.s.d.g.g.g.g.h.f.X.-.OXdXsXsXsXsXtXsXsXsXdXeXaXsXaXdXeXsXsXdXdX",
"_ ' ` Q ' _ ` T.T.` ' _ ' W.E o.a.f.d.f.d.d.d.d.d.d.d.d.3.a.r.' W.' ' Q.' Y.W._ Q.' ' ' ' _ ' Q.T.W.",
"` ' ' ~ T.` ` T.' ' T._ Q.R +.a.,.2.3.3.s.f.s.s.s.s.3.3.....a.T r._ Q ` ~ ~ ` V ~ ~ P P _ V P Q P P ",
"Q ~ _ P _ ~ ~ _ _ ~ ' ~ H +.-.*.*.2.2.3.3.3.3.3.3.3.3.2...| a.@.c H Q E P ~ _ V P P P ~ _ M K J V _ ",
"T.T.T.T.W.W.Q.Q.Q.W./.x A y.+.,.X.3.s.3.3.2.2.2.3.3.3.3.X.X.O.-.@.; J ' ' ' ' ' _ ~ _ _ _ _ Q _ Q _ ",
"W.W.W.W.W./.(.W.W._.C A t.@.+.-.,.,.X.2.3.2.3.2.3.2.2.X.X.*.*.@.r.A e ' Q.' ' ' ' ' ' _ _ _ _ _ _ _ ",
"uXuXuXuXuXuXuXpXuXZ x ^.&.&.=.-.*...| | |  . . . .| | | | *.@.+.o.r.Z Y.zXgXiXhXiXiXiXiX4X4XuX4X4X4X",
"cXxXcXMXMXcXMXMXY.y r.!.<.+.1.} s p d r s { } } } ] s p ] } 1.+.&.$.I x *XxXzXzXzXhXzXzXzXiXhXhXiXpX",
"xXzXxXxXxXxXcX;Xi C %.Z a r 9 & & % & $ q s s x a r $ % 9 8 8 s A %.e.u T xXhXhXhXhXiXhXiXhXiXiXiXiX",
"xXxXxXxXcXxXuXH 1 > $ $ - * * O $ ; * X * r ] { r 1 X % % + o + % * c e c iXiXhXhXhXiXiXiXiXiXiXiX4X",
"3XuXiX4XiX4X' O X   w l l k w > * - = = . . & & . . ; ; = > q q > > X @ 1 ~ <X3X3X<X1X3X%X3X<X%X3X<X",
"%X3X4X4XuX<XM :   < G g 3 w , , - * O , * @ % *   + = o * = q w t h S - ; - {.<X<X{.<X3X{.<X<X{.1X%X",
"{.3X4X2X4X[.n c X v m 5 4 3 , i > * o O + & | | 1 @ * o * * = : k l b n   4 ].<X<X{.<X<X{.<X{.{.<X{.",
"'.2X2X2X<X/.M 4 - f j 5 g 3 , > $ o o O @ a ;.;.x @ o @ + $ > : f l j D o 7 ].<X*X].<X%X%X<X{.{.<X{.",
"].1X2X1X%XE.M - , , j w , * O @   @ X $ X S *. .o.$ @ @ .   + $ < h h m + v ].*X%X].<X{.{.%X`.{.<X[.",
"].%X<X<X&XR.v + f > h w , = O 9 d & $ & , &.*.| &.w + o + % % > q w h f   v `.{.].' 3X].].{.' {.{.`.",
"/.'.&X&X).' v o ! < t l w , # d ] s > X S &.1.;.o.D & s > q q t t a C , < V ).{.)./.*X).'.%X' ].].).",
"/.].&X[.[./ < 4 w.G > t h , , w w q % , G o.1.1.o.&., & r u a a a l > b W Q /.{.(./.{.(.'.'./.'.).].",
"W.].&X[.[.W.7 M w.$.G w > q q 1 1 1 3 z o.o.O.{ l G j = 1 1 r r r r n ! W V /.[./.).'./.'.).' ].(.].",
"(.(.&X[.[.&X) W R.! U G j t t t l f 5 B G m j h j W g 3 3 t i r t j D W W W [.'./.].{.).'.).E.'.(.].",
"E.E.$X`.).`.) w.w.! G S m S o.l k 3 3 F N z 5 2 6 W m , , , t h j b m ! ( ( [.]./.'.'.).{././.'.(.'.",
"vXBXmXnXmXxX( ( w.W F m b G b j f , g N B z 5 5 B B W , t t h j j m N W ( R.&X).W.[.)./.'.' W.(.E._.",
"jXjXfXfXbXgX! ( w.F D m D D m h f , B 6 @ 2 5 5 # # B f q h l j m M N W W ,XNXNXNXNXNXMXMXmXnXnXvXvX",
"#X=X@X#X-X-XF W ! W N N G m j j k t h 2 # 2 5 5 2 # 5 t , w h h m N N W W E  XoXOXoXoX#X=X:X:X:X0X0X",
" X X X@XOX$XF K W W N B F m b g h l h 2 : 2 2 2 2 # w a t , k g m F V W V J t.r.r.r.r.$.$.T T #.T #.",
").W.&X'.'.W.v N W W N N m m m j S C h 3 # : : 2 : 2 3 l l w 3 g m F N W V v $.Q.Y.Y.r.Y.r.r.r.r.$.$."
};
