/* XPM */
static char *pers_8_0[] = {
/* columns rows colors chars-per-pixel */
"50 50 229 2 ",
"   c #0B0B0D",
".  c #0C0D13",
"X  c #0A0C1C",
"o  c #131215",
"O  c #14151A",
"+  c #1B1A1C",
"@  c #0F0F16",
"#  c #0D122A",
"$  c #191A27",
"%  c #1B1C33",
"&  c #151A35",
"*  c #0D1127",
"=  c #211E27",
"-  c #201E37",
";  c #1C2237",
":  c #26232C",
">  c #322B2D",
",  c #2D2D35",
"<  c #272638",
"1  c #332E34",
"2  c #373239",
"3  c #201C1F",
"4  c #443C38",
"5  c #4D433C",
"6  c #181B45",
"7  c #161A56",
"8  c #1D234B",
"9  c #272946",
"0  c #332B48",
"q  c #393547",
"w  c #2B365A",
"e  c #292E56",
"r  c #181870",
"t  c #1C2766",
"y  c #2A356D",
"u  c #433651",
"i  c #364573",
"p  c #484649",
"a  c #534A46",
"s  c #544C4A",
"d  c #584C4B",
"f  c #5B534D",
"g  c #58514D",
"h  c #494655",
"j  c #4D545B",
"k  c #48525A",
"l  c #5C5552",
"z  c #5F5853",
"x  c #51565D",
"c  c #55575F",
"v  c #564D54",
"b  c #61574E",
"n  c #635B54",
"m  c #645D59",
"M  c #665C55",
"N  c #67615D",
"B  c #6C635D",
"V  c #73685F",
"C  c #4C5466",
"Z  c #545B63",
"A  c #595D65",
"S  c #5A566A",
"D  c #555975",
"F  c #575B78",
"G  c #4B5070",
"H  c #675C68",
"J  c #5A636C",
"K  c #586069",
"L  c #5C617F",
"P  c #6D6661",
"I  c #67666A",
"U  c #746A63",
"Y  c #796D64",
"T  c #746B68",
"R  c #7C726B",
"E  c #7C7066",
"W  c #676876",
"Q  c #6B727B",
"!  c #747378",
"~  c #766F73",
"^  c #82756C",
"/  c #85786E",
"(  c #807367",
")  c #867B72",
"_  c #8A7D74",
"`  c #887D77",
"'  c #8C8076",
"]  c #8D827A",
"[  c #85807E",
"{  c #92857C",
"}  c #94887F",
"|  c #191984",
" . c #253B88",
".. c #394C89",
"X. c #294396",
"o. c #3B5499",
"O. c #344B8F",
"+. c #2D55AA",
"@. c #3957A9",
"#. c #395BB6",
"$. c #2C54A9",
"%. c #2C67BB",
"&. c #3C63BC",
"*. c #3567B7",
"=. c #3A6CB2",
"-. c #37609F",
";. c #475B89",
":. c #445998",
">. c #575D86",
",. c #586388",
"<. c #48669C",
"1. c #576999",
"2. c #5F719E",
"3. c #686A85",
"4. c #6D7583",
"5. c #777A86",
"6. c #677098",
"7. c #415CA7",
"8. c #4767A7",
"9. c #536DA1",
"0. c #4F74AA",
"q. c #5B72A4",
"w. c #5776A9",
"e. c #446BBB",
"r. c #466AB7",
"t. c #4974B8",
"y. c #547BB6",
"u. c #627AA9",
"i. c #355EC2",
"p. c #3A62C3",
"a. c #3C6BC4",
"s. c #3563CC",
"d. c #366ACC",
"f. c #3A67CA",
"g. c #2E71C1",
"h. c #3A76C9",
"j. c #356CD4",
"k. c #3C6CD4",
"l. c #3567D2",
"z. c #3772D3",
"x. c #3A73D4",
"c. c #3C7BD5",
"v. c #3778D3",
"b. c #2C6EC1",
"n. c #446BC5",
"m. c #426CCB",
"M. c #476BC1",
"N. c #4777C7",
"B. c #547CC4",
"V. c #416CD1",
"C. c #427CD4",
"Z. c #4478D1",
"A. c #807587",
"S. c #7B828B",
"D. c #7A8087",
"F. c #7D8791",
"G. c #5C84BC",
"H. c #5781B9",
"J. c #6183B4",
"K. c #3E83D6",
"L. c #4983CB",
"P. c #5B85C3",
"I. c #5687CC",
"U. c #4283D5",
"Y. c #498CDA",
"T. c #4788D6",
"R. c #568CD3",
"E. c #4C93DC",
"W. c #4E91D6",
"Q. c #5295DB",
"!. c #5496DA",
"~. c #5897E0",
"^. c #82848E",
"/. c #8B8887",
"(. c #958A83",
"). c #998D84",
"_. c #998F89",
"`. c #918781",
"'. c #9C928B",
"]. c #848B94",
"[. c #898D94",
"{. c #8C939A",
"}. c #8A9098",
"|. c #9D9B9C",
" X c #999595",
".X c #A39A94",
"XX c #A49C98",
"oX c #A0938D",
"OX c #ABA29E",
"+X c #9A9DA4",
"@X c #949BA2",
"#X c #8C95A0",
"$X c #9DA4AC",
"%X c #A3A2A5",
"&X c #AEA6A2",
"*X c #A6A9AE",
"=X c #A9A9AD",
"-X c #A9A7A8",
";X c #B2AAA6",
":X c #B4ADAA",
">X c #B6B1AE",
",X c #B9B1AE",
"<X c #ABADB3",
"1X c #A6AAB0",
"2X c #AEB1B6",
"3X c #AEB2B8",
"4X c #BCB5B2",
"5X c #B2B6BB",
"6X c #B5B9BE",
"7X c #BBBBBC",
"8X c #B7B5B6",
"9X c #A19FA0",
"0X c #C0B9B6",
"qX c #C4BCBA",
"wX c #C8BFBC",
"eX c #C8C1BE",
"rX c #AEB7C3",
"tX c #B6BAC1",
"yX c #BABDC2",
"uX c #BEC1C6",
"iX c #BCC1C8",
"pX c #C0C1C6",
"aX c #C7CACE",
"sX c #C9C6C6",
"dX c #C8CDD2",
"fX c #CDD3DA",
"gX c #D1C8C4",
"hX c #D2DBE4",
"jX c #DEE3E8",
/* pixels */
"7.7.7.:.:.o.:.:.........i i i i i i y y y y w w 9 9 e 9 9 9 < 9 < ; < < < 1 < < 1 < < 1 < < , , , , ",
"M.#.M.n.p.m.m.p.m.k.m.k.k.k.k.k.d.j.k.x.j.j.j.j.j.j.s.s.b.s.s.i.i.i.#.i.#.#.#.#.@.@.@.7.7.@.@.o.o.o.",
"M.r.r.&.M.M.n.m.m.m.f.m.k.m.k.x.k.k.k.x.j.x.z.z.j.j.j.j.j.j.j.j.l.l.s.s.s.s.s.s.p.i.p.p.p.i.#.#.i.7.",
"7.r.M.M.M.M.n.n.m.m.m.m.V.V.x.V.h.x.x.c.k.x.z.z.z.z.z.j.j.j.d.d.d.d.s.s.s.s.p.p.i.i.p.7.i.7.#.7.7.#.",
"r.r.e.M.M.M.M.m.m.m.N.V.Z.Z.Z.Z.C.C.x.c.c.c.v.v.v.v.K.v.v.g.z.d.d.d.f.f.f.p.p.p.a.&.&.&.i.7.#.7.@.7.",
"r.r.e.t.M.B.M.B.m.Z.Z.N.Z.Z.C.C.C.C.c.c.c.K.K.c.c.c.K.v.v.v.v.v.h.z.d.d.f.p.a.&.&.&.#.#.7.e.r.#.7.7.",
"r.r.y.r.M.B.M.B.N.Z.Z.Z.Z.Z.Z.Z.C.U.Y.K.K.Y.K.K.K.K.K.K.K.v.v.v.h.h.h.h.h.n.a.a.&.&.e.e.e.7.7.7.7.7.",
"w.u.t.y.y.B.M.B.m.B.N.L.T.R.Y.Y.Y.Y.Y.Y.Y.Y.Y.Y.T.T.K.K.K.K.K.K.h.K.h.h.a.a.N.&.=.M.&.7.&.7.7.7.7.7.",
"w.w.y.y.y.B.B.B.B.B.Z.I.Z.R.Y.Y.Y.Y.Q.Q.E.E.E.E.E.E.E.K.W.K.K.K.K.K.U.h.h.N.h.a.t.e.e.r.r.8.8.8.8.<.",
"q.w.u.y.y.y.B.B.B.I.B.I.R.R.R.R.Q.E.!.Q.Q.Q.~.E.E.E.E.E.W.K.L.K.K.L.L.h.N.=.t.t.t.e.r.0.8.8.8.<.<.<.",
"9.q.q.w.u.y.y.y.B.P.B.P.P.I.R.R.R.Q.R.~.!.~.!.!.~.!.W.W.W.L.L.L.L.L.L.t.h.t.t.t.0.t.8.0.8.8.<.8.:.G ",
"1.6.2.2.2.q.u.u.u.y.y.B.P.P.P.P.I.I.R.R.R.R.R.R.!.R.G.W.L.L.L.L.L.t.t.H.t.t.t.0.0.0.8.9.1.<.1.G s a ",
"B L 3.6.6.6.6.6.u.u.u.u.u.J.J.y.J.G.G.G.P.P.P.G.G.G.H.H.H.y.H.y.y.y.0.0.0.0.9.9.9.1.1.1.,.F v a s s ",
"u d v S F >.>.>.>.,.,.1.6.2.2.2.u.u.u.u.u.u.J.J.w.w.q.w.w.w.q.9.q.9.9.9.1.1.1.1.,.1.,.F l d s v g g ",
" X[.^././.A./.^.A.A.5.5.5.4.4.4.3.3.3.4.4.3.3.W 3.W 3.L ,.,.F ,.F F F F D D D D F C v a a s a a a a ",
"gXaXaXdXdXdXaXdXaXaXaXpXpXsXpXpXpXqXyXuXyX7X7X7X8X5X2X2X:X<X=X=X=X=X-X*X%X%X%X$X%X+X|.+X|. X X{.[./.",
"uXpXiXiXiXuXiXiXiXuXiXiXiXiXuXiXiXuXpXpXpXpXyXpXpXyXyXpXpXtXpXpXyXyXyXtXyXyXtXtX6X6XtXtX6X6X6X6X6X6X",
"*X=X2X2X2X3X5X5X6X7X7X6X7X7X7X7X6X7XtXyXyXyXyXyXyXyXtX7X7XtXtXtXtX7X6X5X6X6X5X6X6X5X5X2X8X2X2X2X2X2X",
"H W I T T Q ! ! D.! D.D.D.D.D.D.S.S.S.^.S.^.S.^.S.].F.].].].F.[.].[.}.}.}.].}.}.}.}.[.}.}.{.{.{.{.{.",
"S A Z A K K K c K K K K c K Z K K K J A A S Z A Z Z Z c Z x Z Z x Z c j Z j x x x x j x x j x j x x ",
"+X+X@X+X@X@X@X@X{.{.{.{.}.}.}.}.}.].].].F.].F.F.S.S.S.D.D.D.Q D.Q Q Q J W J J K K Z Z j j k j h p p ",
"yXyXyXiXyXyXyXyXiXyXyXiXiX6XtXtX7X6X5X6X6X6X6X6X5X5X3X3X3X3X3X<X<X<X<X<X1X1X*X$X$X$X+X+X@X X{.{.}.}.",
"tXtX6X6X6X6X6X7X5X5X5X6X5X5X5X6X5X5X5X5X5X5X5X3X3X3X3X3X3X3X3X3X<X3X2X<X2X2X<X<X<X<X<X<X<X<X<X<X<X1X",
"iXyXiXiXiXiXiXiXiXiXiXiXiXtXtXtXiX6XtX5X2X3X3X3X5X5X3X3X3X3X3X3X3X3X2X<X2X1X2X<X1X<X<X1X1X1X1X*X1X1X",
"XX|. X'.|. X|.OX|.OX%X|.%X%X%X*X%X%X%X7XaXeX7X8X*X=X*X-X*X1X*X*X<X1X*X*X1X1X*X*X=X*X1X=X=X=X*X1X1X1X",
"z m N f N l N N N b B f N B m B m N z ;XjX7X7X,XP N N N m P V N I N N U N N P f N P N P B f B V I T ",
"m N B b N n N B N N P z N P m B z z n A.|.'././.N z z z g m m l B z g N l z N 5 f b b b f 5 g g s b ",
"g f b 5 M f l n l l B g z z l B z l n n g n a g l l f z a l l g V l a g s z n 5 s g 5 N b 5 a a s n ",
"B B B B U V P P U U T P P T U U P P P P P U P P N B V B B B V B B B B N M M n n n b b b n b b f b b ",
"V Y U U U U T Y Y Y T R R R E R R R R R R R R ^ R R R R R R R R R R E U V V V B B B V M M M n n n b ",
"OX&X&X&XOX;X;X;X;X;X>X8X4X4X7X0X7XeXgXgXgXsX7XqXgXsXwX0X0X4X,X4X>X>X,X:X:X;X:X:X;X;X;X;X&X&XOXOXOXOX",
"4X4X0XeXeX0XeXeXeXeXeXeXeXeXeXeXeXgX=X! S C q p I ! -X0X,X,X>X>X>X>X:X:X;X:X:X:X:X;X;X;X:X;X;X-X;X;X",
">X>X,X,X,X4X4X4X7X0X0X0X0XqXqXwX7XI $ * & & ; ; + $ g |.4X:X>X>X>X>X,X:X>X:X,X:X:X:X:X:X:X:X:X;X;X&X",
",X4X4X,X4X4X:X,X4X4X4X0XqX0XqXqXA % i i -.=.=.=.<.F i ~ >X,X:X:X:X&X&X&X&X;X&X;X;X&X;X&XOX&X;XOX&XOX",
"'.OX&XOX;X'.'.OXXXOX&X_.&X&X&XJ D w.t.=.%.K.g.g.g.g.0.F ! .XoX'..X{ oXoX} oX} '.oX} '.oX} } } { oX} ",
"] .X.XoXOX'.). X'. XXX(.XXXXI ,.0.-.*.%.%.g.g.g.g.=.-.<.,.c R .X'.' oX} { '.' ).} { } oX{ } } ' ).{ ",
"' '..X'.OX} `. X_._..X(.'.H 3.1.o.@.*.*.%.%.b.b.%.-.$.O.<.D : b oX{ ).{ { ).{ } } ' oX} } } { ' ).{ ",
") '. X'.OX).{  X'.'.XX) u W 6.,.8.=.=.%.%.%.b.b.b.%.-.-...,.j o 5 } } { { } ' } } ' } } ' } ' ' (.' ",
"' '.'.'. X).] '.(.).`.q W 6.,.1.8.*.&.*.%.%.%.%.%.$.+.-.;.G 3.q > / } ' ' } ' } { / } { ' { / ' ] _ ",
"R `._.(.'.)./ `.} [ 2 S A.5.u.1.O.X. .X.$.$.$.X.X. .X.O.-.>.D S 9 p ' / ' ' ' { / ( } ' ' ' Y _ ' ) ",
"R ' `.] `./.^ ` ` a u A.W G y w 6 # % 7  . . .y & # 7 t r i F W q : U ( ' ' ^ { / R `./ _ ' Y ) ) ) ",
"Y R } ] ] { E ] P = 0 1 6 r r | | 7 * %  .X. .6 X 7 r | | 7 & 2 2 O l / ^ ' ' ' ( ^ ] R _ _ Y _ ^ _ ",
"R ` { ] ] ] E ` 2 +   = 0 9 < < : - = X X * X . $ - % 6 6 6 $ @   O > Y ' R ' ' R / ' ( ' / U ' ( _ ",
"R R { ] ] [ ^ P : O > u u 0 e 9 : $ = o X t #   + o $ % % = : , O o + b { ^ ' ' E / ] / ' ^ Y ` ( ) ",
"Y T ' ' / ) V a 1 O u u w q q 9 % $ $   y p. .  O @ # 6 9 9 9 0 = o = 5 _ ( / ' Y ' _ ( ' R E [ ( ' ",
"dXdXdXdXdXaX6X! , 3 u u u > : O . . @ O >.@.O.$ . .     O = 9 9 = + = M oX` /.] R (.) / _ Y R R U ^ ",
"rXrXrXrXrXrX$XQ > : < 0 : + o . . o @ 0 1.@...9 . .     . O % 9 = = O +XjXhXhXhXhXhXhXhXfXfXfXfXdXdX",
"S.S.S.F.F.F.W x + > - 0 < > + % r 8 $ D >.@.:.G * 7 % % : < 9 6 2 2 o m 4.4.4.4.4.4.5.5.S.F.F.}.{.#X",
"D.D.D.D.D.D.I p + m h 9 w q 1 9 t & 2 3.:.7...G < 6 r e y e t 0 v u 3 j J J J J K K K Z Z k k k k k ",
"R V ] [ ^ ] N 1 > T H u e 9 9 9 % = u 3.>. .i u 0 + % 6 7 6 9 u H d > l T Q ! T W Q I I I I W J J J "
};
