/* XPM */
static char *collectible[] = {
/* columns rows colors chars-per-pixel */
"50 50 223 2 ",
"   c #040103",
".  c #03030D",
"X  c #08060C",
"o  c #05080F",
"O  c #08080F",
"+  c #0A0005",
"@  c #020513",
"#  c #060A11",
"$  c #0A0B13",
"%  c #00061A",
"&  c #030B1C",
"*  c #0C0C19",
"=  c #0B0312",
"-  c #1A091A",
";  c #0A101D",
":  c #07111E",
">  c #13121B",
",  c #2D0007",
"<  c #28050D",
"1  c #33030D",
"2  c #3D0309",
"3  c #2C0612",
"4  c #2C0A13",
"5  c #290817",
"6  c #340A14",
"7  c #3D0912",
"8  c #3A0917",
"9  c #3C121C",
"0  c #34111E",
"q  c #020D20",
"w  c #0A0D25",
"e  c #1A1D2B",
"r  c #060A34",
"t  c #2A1827",
"y  c #3A1625",
"u  c #260C21",
"i  c #2D2B35",
"p  c #372835",
"a  c #393439",
"s  c #2C292D",
"d  c #43030B",
"f  c #430512",
"g  c #430A14",
"h  c #430E18",
"j  c #4C0814",
"k  c #500E19",
"l  c #530B15",
"z  c #4C141D",
"x  c #43151F",
"c  c #59151F",
"v  c #50111A",
"b  c #56000C",
"n  c #63101A",
"m  c #471B25",
"M  c #5A1722",
"N  c #641B25",
"B  c #482637",
"V  c #45353C",
"C  c #463A3B",
"Z  c #6B232D",
"A  c #662029",
"S  c #712C35",
"D  c #07195A",
"F  c #072C58",
"G  c #3B3B48",
"H  c #2B3A54",
"J  c #2F284A",
"K  c #0C1D62",
"L  c #072968",
"P  c #132462",
"I  c #443D42",
"U  c #483C40",
"Y  c #5A3E44",
"T  c #3A404D",
"R  c #3F4651",
"E  c #23425C",
"W  c #174D6B",
"Q  c #1F536A",
"!  c #125278",
"~  c #2E5B7B",
"^  c #464144",
"/  c #4B4346",
"(  c #4D464A",
")  c #4E494C",
"_  c #50474A",
"`  c #544A4E",
"'  c #574949",
"]  c #4C4951",
"[  c #544E52",
"{  c #5C4E52",
"}  c #565155",
"|  c #5A5255",
" . c #56535B",
".. c #5B5559",
"X. c #5E595C",
"o. c #655252",
"O. c #615B5D",
"+. c #514B60",
"@. c #4A5B67",
"#. c #545563",
"$. c #5C5963",
"%. c #465C76",
"&. c #555E74",
"*. c #635E61",
"=. c #685F62",
"-. c #605E70",
";. c #5E626D",
":. c #536874",
">. c #63616A",
",. c #8C7A77",
"<. c #907E79",
"1. c #0B4A86",
"2. c #075C8D",
"3. c #0B5889",
"4. c #0B5E98",
"5. c #285D84",
"6. c #086294",
"7. c #0A689D",
"8. c #076597",
"9. c #126F92",
"0. c #166995",
"q. c #236C8D",
"w. c #396786",
"e. c #22708D",
"r. c #2A6B92",
"t. c #336C93",
"y. c #297599",
"u. c #357299",
"i. c #377381",
"p. c #0D76AB",
"a. c #0B75A6",
"s. c #046CB5",
"d. c #046EB9",
"f. c #086EBA",
"g. c #0667B2",
"h. c #0473BD",
"j. c #0971BE",
"k. c #0879B5",
"l. c #197EB0",
"z. c #1475A5",
"x. c #2479A3",
"c. c #297BA5",
"v. c #506E86",
"b. c #43718C",
"n. c #0476C2",
"m. c #0975C2",
"M. c #057BC4",
"N. c #097AC5",
"B. c #057EC9",
"V. c #097EC8",
"C. c #1883A6",
"Z. c #0E85B6",
"A. c #1588B8",
"S. c #1993BA",
"D. c #1894BA",
"F. c #259DBF",
"G. c #2D86AB",
"H. c #0583CC",
"J. c #0A83CD",
"K. c #0589CF",
"L. c #0A87C4",
"P. c #0E91C4",
"I. c #0E94CB",
"U. c #0D9CCF",
"Y. c #1199CE",
"T. c #1699C5",
"R. c #0486D0",
"E. c #0A87D1",
"W. c #058CD3",
"Q. c #0A8CD4",
"!. c #0C8FD8",
"~. c #0592D6",
"^. c #0A91D7",
"/. c #0F9ED0",
"(. c #0595DA",
"). c #0B95DA",
"_. c #059ADD",
"`. c #0A9BDD",
"'. c #1B8CC1",
"]. c #10A3CC",
"[. c #1CA5CB",
"{. c #0DA3D5",
"}. c #0DA2DE",
"|. c #0BABDE",
" X c #12B0D6",
".X c #13A8D0",
"XX c #25A3C9",
"oX c #24AED3",
"OX c #059DE1",
"+X c #099EE1",
"@X c #0596E1",
"#X c #06A3E4",
"$X c #0AA4E3",
"%X c #07A9E7",
"&X c #0CABE5",
"*X c #06A6E8",
"=X c #0AA5E9",
"-X c #07ABEA",
";X c #09ADE9",
":X c #10A7E0",
">X c #11ACE3",
",X c #07B5E5",
"<X c #0DB3E6",
"1X c #0EBAE6",
"2X c #07B1EC",
"3X c #0BB4EA",
"4X c #0CBBEB",
"5X c #04BDED",
"6X c #12B3E4",
"7X c #12BBE5",
"8X c #11B4E8",
"9X c #11BCE9",
"0X c #0CBEF0",
"qX c #23BCE2",
"wX c #0EC2EB",
"eX c #0EC9EE",
"rX c #11C1E7",
"tX c #10C2EA",
"yX c #0BC4F3",
"uX c #0DCBF3",
"iX c #07C5F6",
"pX c #11CAFA",
"aX c #0DD1F5",
/* pixels */
"g.s.d.h.h.h.H.H.H.H.K.K.~.K.^.~.~./.(.`._.`._._.#X}.}.#X#X}.#X_.@X`.`.`.(.~.(.~.Q.R.R.H.B.M.n.h.s.g.",
"s.d.h.h.h.H.H.H.K.K.K.W.~.U.~.(.`.`._.`.`.+X#X$X#X#X#X#X#X#X#X#X$X#X#XOXOX@X(.~.~.^.R.R.H.H.M.n.f.s.",
"s.h.h.M.M.H.L.H.K.W.W.~.~.~._._.`._.}.#X$X$X$X=X%X%X%X-X-X-X-X%X$X$X$X#X#XOX`.`.).~.~.W.R.H.B.n.m.h.",
"h.h.h.M.M.H.H.K.W.~.~.~.(._._.}._.$X}.$X$X&X&X;X-X2X2X%X2X-X-X%X;X-X$X$X$X#X#X_.@X_.(.~.W.R.J.N.n.h.",
"h.h.h.M.H.H.K.K.~.~.~.(._._._.#X$X$X$X&X&X&X;X;X<X2X2X2X2X2X2X%X-X-X;X;X;X#X$X$X#X@X_.(.^.Q.R.R.N.n.",
"h.h.H.H.H.H.K.~.~.~.(._._.}.}.}.#X&X&X&X;X&X;X<X<X3X<X3X,X2X2X,X-X3X2X;X-X-X=X=X$X#XOX(.(.W.W.R.H.M.",
"h.H.M.H.K.K.~.~.~.(._._._.#X#X#X&X&X&X;X;X<X<X8X<X3X3X<X3X2X4X2X3X2X-X3X;X-X-X-X#X#XOXOX(.(.^.R.H.B.",
"h.M.H.H.K.K.~.~.~._._._.#X#X&X#X&X&X&X;X<X<X3X3X3X8X1X3X1X4X3X4X0X3X3X<X2X2X-X-X-X-X#X+X@X`.~.W.R.H.",
"H.H.H.H.K.~.~.~._._._.#X#X$X%X&X&X;X<X<X3X4X3X9X9X9X9X1X1X4X4X4X4X5X3X3X3X2X3X2X-X*X*X$X+X@X(.^.Q.R.",
"M.H.H.K.K.~.~.(._.{._.#X$X#X&X,X&X;X3X3X8X3X1X1X1X9X4X9X4X4X4X4X0X4X0X3X2X3X3X2X-X;X;X$X$XOX@X).W.R.",
"L.H.H.K.~.~.(.(._._.#X}.$X&X|.&X<X<X8X1X1X4X1X9X9X4XtXtXwX4X4X4X4XwX4X4X0X4X3X2X3X-X;X*X$X+X`.).^.R.",
"M.K.K.W.~.(.(._.}.#X}.#X|.&X&X&X<X3X3X3X4X1X4X9XtXtXtX7XtXuXuXaXyX4X4X9X4X4X3X3X3X2X;X-X=X$X`.@X).^.",
"H.K.W.~.~.~._._.}.#X#X}.&X&X&X<X<X<X3X1X1X9XwXtXtX7XtXuXwXT.C.C..XuXiXyX0X1X4X3X3X3X;X;X=X:X+X`.).Q.",
"H.K.W.~.~.(._._._.}.}.&X|.&X<X|.<X<X1X1X1XwXtXrXrXeX7Xr.p 1 1 , 6 ! S.c.y.l.3X4X8X3X>X;X;X:X:X@X).(.",
"K.R.~.~.(.).}._.#X#X$X$X&X&X<X<X<X<X1X9X1XtXrX1X/.r.B n l h 9 9 3 1 8 J +.t.<X9X8X3X8X;X=X:X=X`.@X).",
"K.R.~.~.)._._.}._.}.|.&X&X<X<X<X<X<X7X3X1X7XrXuX5.b N Z Z N k g h 1 3 - - H |.8X3X<X8X>X:X=X:X`.).).",
"R.W.~./.(._.`.`.}.$X}.&X&X&X<X<X<X<X7X1X1X1XuXS.j k M S S N N j h V e % %   0.yX3X<X<X>X&X:X:X`.`.).",
"W.W.~.~.`.`.}.}.}.}.$X&X<X<X&X<X8X1X1X1X1XwX Xy j j c A A c l z / } e @ q @ W yX7X8X<X<X>X=X+X:X`.).",
"W.~.~.(.(.`.}.`.}.$X&X|.|.6X<X>X<X6X7X7X1XwXE 2 m z v M c k m ( ) ^ q & q @ W yX7X3X8X;X&X:X+X:X`.).",
"K.W.^.~.).`.`.`.}.}.}.&X>X|.<X1X4X,X,X1XwX].3 6 y m m h g x ^ ^ / i % & q = 0.0X8X8X8X8X&X=X:X+X`.`.",
").OXOX+X#X=X=X=X&X>X>X;X6X3X6XZ.D.XXoXoXqXe., y 0 0 y 6 4 I ^ ^ a q & & % 0 x.4X9X9X8X8X>X=X=X:X+X).",
"2.2.4.7.8.a.p.k.L.P.Y.I.U.P.1.D J <.,.,.<.Y , m x 9 4 t a ^ I i & & & & * / t.<X7X8X8X8X8X:X+X:X+X`.",
"              . o # w ; & *   2.z.r.[.XXXXH 2 h z z 3 e s V s % & q q $ I { w.<X7X6X6X6X>X>X=X:X=X`.",
"o o o o o o o . . . # O O #   a.pXC.].5X9.y d 7 7 d 5 % a _ s % & & = p [ ` %.}.7XqX6X>X>X:X:X=X+X`.",
"o o # o o # o # O o $ $ # # . Z.yXt.G ^ i u 1 3 4 < - w I ( _ e o   4 _ ) [ #./.qX6X>X>X:X:X:X:X`.`.",
"o o # # # # # # O O $ O # # . Z.pXe.Q i.@.6 7 7 6 1 - e C ' C s > < C ) ` [  .P.8XqX>X>X:X:X=X).:X).",
"        + X o # * ; w $ * X . Z.6X0.p.j.2.9 7 7 7 2 t T / ' ^ I C C _ _ ` [ | A.8X8X6X6X:X:X:X:X).).",
"! ! 2.8.7.a.k.Z.P.I.P.P.P.F r L L D K K P 8 7 7 f d B ] ( [ ` _ ( ( _ ` ` } { x.8X8X>X>X>X:X:X:X`.).",
"@XOX#X%X*X*X-X=X%X;X2X<X4X}.7.1.1.4.p.P.].D.D.D.Z.Z.~ ' ] [ ` ` ' _ ` ` [ [ { t.<X6X&X>X:X:X:X+X).:X",
"K.~.~.(._._._.$X}.&X&X&X<X3XwX4X1X4XtXyXwXeXaXeX<X5Xx.' [ [ ` [ ` ` [ [ [  . .w.&X8X6X&X:X:X:X!.!.!.",
"~.~.(._._._.#X$X&X%X-X<X2X<X,X<X<X1X<X1X,XrXrXrX<X~.l.[ [ [ [ { } } } }  . .#.%.{.4X&X&X:X+X:X).:X!.",
"W.~.(._._._.#X#X#X%X%X-X2X4X4X4X4X4X4X4XwXwXrXrXrX,XL.#. .} } | | o.O.X.X.$.$.&.I.1X>X&X:X:X:X:X!.!.",
"K.~.~._._.OX#X#X#X#X-X-X-X,X3X0X0X4X4XwX4XwXwXwXrXeXU.@. .......X.O.O.O.>.>.>.-.'.4X>X&X=X:X`.`.).!.",
"K.W.~.(._.@X_.#X#X#X*X-X-X2X3X2X4X4X4X4XwX4XwXwXwXeX}.%. . ...X.X.X.*.*.>.>.>.-.G.3X;X>X:X$X}.).).!.",
"R.R.W.~.(.(._.@X#X#X*X*X-X-X2X2X0X2X2X0X4X4XwXwXwXrX&Xw. . . .| o.o.o.>.:.v.b.u.'.;X>X=X+X:X`.`.!.!.",
"H.R.R.W.~.(.(.@XOX#X#X*X-X2X2X2X2X2X0X0X5X4XwX4XwXwX,Xt.#.#.#.:.b.G.F..X8X>X:X;X-X;X>X;X=X+X`.`.).Q.",
"B.R.R.W.@XW.(.@XOXOXOX*X-X-X2X2X2X0X2X5X0X5X0X4XwXwX3Xl.t.x.T.yXeXuXiX0X3X4X3X<X;X&X;X$X=X`.+X).!.Q.",
"B.B.R.R.W.W.(.@X@XOXOX*X*X-X-X2X2X2X2X0X0X4X0X4X4X0XwX3X,XyXiX4X4X,X1X1X3X<X<X8X&X&X;X=X:X+X@X!.!.E.",
"B.B.B.R.W.W.@X(.@XOXOX#X*X*X=X-X2X2X2X0X2X4X4X0X4X5X4X0X0X4X4X4X4X4X3X3X3X<X<X;X;X;X=X$X+X+X@X!.Q.R.",
"n.B.B.R.R.@XR.@X@X@XOXOX#X*X*X-X-X-X3X2X2X3X4X3X0X4X4X4X4X4X0X2X1X4X3X3X<X;X-X-X;X=X=X+X+X@X).!.E.E.",
"n.B.B.B.R.R.W.(.(.(.@XOXOX*X#X*X-X-X-X2X2X3X3X4X0X3X4X3X3X4X3X3X3X3X<X<X;X-X;X;X;X$X#X#X@X(.^.Q.E.J.",
"n.B.B.B.R.R.W.~.(.(.(.@XOXOX#X*X#X-X-X2X2X2X2X<X3X3X3X3X3X3X3X<X<X3X;X;X;X;X$X;X=X#XOXOX`.~.Q.Q.J.V.",
"n.n.B.B.B.R.R.~.~.(.@X@X@XOX#X#X#X-X*X-X;X2X2X2X-X3X3X3X3X3X2X<X-X;X;X;X;X;X=X=X#XOXOX@X(.!.Q.R.J.N.",
"n.n.B.B.B.R.R.W.W.(.(.(._._.@X#X#X%X#X-X-X%X&X;X-X;X;X;X;X;X&X;X;X;X&X=X=X$X$X$X+X@X).).!.Q.E.B.V.N.",
"n.n.n.n.B.H.R.R.W.~.(.(._._._.OX#X#X#X#X*X=X;X=X;X;X&X;X&X&X;X=X=X$X&X$X$X#X+X+X+X).).!.Q.E.V.V.N.m.",
"g.n.n.n.B.B.H.R.W.W.^.~.(._.(._._.#X#X#X#X$X$X$X$X=X&X$X=X$X$X$X=X=X$X$X+X$XOX@X).).!.Q.E.E.V.V.m.j.",
"g.n.n.n.M.H.H.H.R.W.Q.~.~.(._._._.@XOXOXOX$X$X$X$X$X$X$X$X$X$X$XOX$X+X@X@X`.@X).).!.Q.E.E.V.V.N.j.f.",
"s.n.n.n.M.B.B.H.R.Q.W.Q.~.~.(.(.`._.`._.OX+X+X+X+X+X+X+X+X$X+X`.+X+X`.`.`.).(.^.Q.E.E.J.J.V.N.m.f.f.",
"s.d.h.h.M.H.M.H.H.K.K.W.~.~.(._._.{._._._.`.`.`.`.`.`.`.`.`.`.`.`.(.).).).!.Q.Q.I.E.J.J.V.m.m.f.f.g.",
"g.d.d.n.h.M.M.L.H.H.K.K.~.~.~.U.(.(./._.`.).)./.`.).).`.).`.).).).).Q.Q.Q.Q.Q.E.J.J.V.V.N.m.m.f.f.g."
};
