/* XPM */
static char *exit_2[] = {
/* columns rows colors chars-per-pixel */
"50 50 242 2 ",
"   c #020301",
".  c #050A04",
"X  c #080C07",
"o  c #0A0E09",
"O  c #050E0B",
"+  c #0B1407",
"@  c #0D1807",
"#  c #06120E",
"$  c #0D150A",
"%  c #0E1809",
"&  c #121A0B",
"*  c #10170C",
"=  c #091411",
"-  c #0A1815",
";  c #141B15",
":  c #0F221F",
">  c #1A241B",
",  c #19241B",
"<  c #252B1B",
"1  c #1B2724",
"2  c #1A2A3A",
"3  c #1E3237",
"4  c #0F2235",
"5  c #242D28",
"6  c #2C3327",
"7  c #35392D",
"8  c #383B2A",
"9  c #272E3B",
"0  c #23343B",
"q  c #2B3435",
"w  c #323935",
"e  c #373A39",
"r  c #462929",
"t  c #4B292C",
"y  c #542D33",
"u  c #483738",
"i  c #56353A",
"p  c #5B363A",
"a  c #4B322F",
"s  c #6A2D34",
"d  c #653A39",
"f  c #673938",
"g  c #77373B",
"h  c #3D4236",
"j  c #424534",
"k  c #444836",
"l  c #464939",
"z  c #4A4C3D",
"x  c #54483D",
"c  c #674035",
"v  c #684035",
"b  c #78413C",
"n  c #1D3648",
"m  c #1B3D52",
"M  c #253545",
"N  c #243A44",
"B  c #24394A",
"V  c #2A3B4A",
"C  c #293946",
"Z  c #373B48",
"A  c #273D52",
"S  c #3A3E54",
"D  c #363C53",
"F  c #212C40",
"G  c #473D48",
"H  c #563945",
"J  c #513D52",
"K  c #783B45",
"L  c #6A3E53",
"P  c #1C455A",
"I  c #2D414B",
"U  c #34434A",
"Y  c #3D434C",
"T  c #384246",
"R  c #2A4357",
"E  c #394856",
"W  c #365556",
"Q  c #364C62",
"!  c #385266",
"~  c #275064",
"^  c #216071",
"/  c #454C45",
"(  c #4C4E42",
")  c #48454A",
"_  c #54444B",
"`  c #4E5143",
"'  c #4C534C",
"]  c #525446",
"[  c #53554A",
"{  c #5A5B4F",
"}  c #57584D",
"|  c #474A56",
" . c #5C4B5C",
".. c #564857",
"X. c #4A5559",
"o. c #585959",
"O. c #6C464B",
"+. c #615E4C",
"@. c #605647",
"#. c #684858",
"$. c #784757",
"%. c #665959",
"&. c #75555E",
"*. c #744541",
"=. c #5E6154",
"-. c #5E625C",
";. c #63655B",
":. c #66685D",
">. c #656557",
",. c #6E6355",
"<. c #464B63",
"1. c #495667",
"2. c #575964",
"3. c #51556D",
"4. c #624E62",
"5. c #774E6A",
"6. c #645564",
"7. c #685967",
"8. c #765866",
"9. c #7A5976",
"0. c #4B656B",
"q. c #5D6564",
"w. c #5B6568",
"e. c #53667B",
"r. c #4D6B77",
"t. c #646A64",
"y. c #6A6C64",
"u. c #636C6C",
"i. c #6B6E6A",
"p. c #656464",
"a. c #75696C",
"s. c #6D716B",
"d. c #68786E",
"f. c #72746E",
"g. c #78776D",
"h. c #656B75",
"j. c #766878",
"k. c #6B7474",
"l. c #687378",
"z. c #727674",
"x. c #747975",
"c. c #7A7C75",
"v. c #757C7A",
"b. c #797E7B",
"n. c #75767B",
"m. c #83373F",
"M. c #883A42",
"N. c #933C43",
"B. c #993D45",
"V. c #A43C4D",
"C. c #A83E50",
"Z. c #9B4348",
"A. c #954A56",
"S. c #8B4E53",
"D. c #A74553",
"F. c #A9505A",
"G. c #916853",
"H. c #86576C",
"J. c #955869",
"K. c #85556F",
"L. c #AF5A66",
"P. c #8C696D",
"I. c #867768",
"U. c #966876",
"Y. c #87757B",
"T. c #94696A",
"R. c #A96974",
"E. c #AF7273",
"W. c #A47654",
"Q. c #C05A61",
"!. c #C36669",
"~. c #C1797D",
"^. c #7A827D",
"/. c #7A8577",
"(. c #65907F",
"). c #2C8C5E",
"_. c #8C9774",
"`. c #929973",
"'. c #938470",
"]. c #A98879",
"[. c #94A075",
"{. c #B49C6B",
"}. c #CA8958",
"|. c #32778B",
" X c #1D7F8F",
".X c #4B7786",
"XX c #777783",
"oX c #6A748D",
"OX c #997A88",
"+X c #877C88",
"@X c #AC7A82",
"#X c #C67B84",
"$X c #348D94",
"%X c #209CAB",
"&X c #508E94",
"*X c #768283",
"=X c #7B8484",
"-X c #798889",
";X c #6E8A95",
":X c #68A89B",
">X c #7C90A3",
",X c #4E9BA7",
"<X c #4BC59F",
"1X c #1FB2C3",
"2X c #26E6E8",
"3X c #23CFCD",
"4X c #6EC9D6",
"5X c #72D0E3",
"6X c #5DF1F3",
"7X c #61B4C9",
"8X c #858989",
"9X c #938A8A",
"0X c #889189",
"qX c #859685",
"wX c #8A8B90",
"eX c #8A9799",
"rX c #949996",
"tX c #AC928D",
"yX c #95A38B",
"uX c #BAAF8F",
"iX c #8D97AC",
"pX c #95A3A7",
"aX c #95A7B8",
"sX c #A4A5A4",
"dX c #ACB1B7",
"fX c #C5B197",
"gX c #CCAFB1",
"hX c #C49E93",
"jX c #A4C3BE",
"kX c #83D295",
"lX c #CBC995",
"zX c #8DB2CD",
"xX c #AEBEC9",
"cX c #B7C3D5",
"vX c #B1DDE1",
"bX c #AAE5E8",
"nX c #8DE3F7",
"mX c #D1CFCF",
"MX c #E7DACF",
"NX c #DDE3E7",
"BX c #CCEBE7",
"VX c #DFE6E7",
/* pixels */
"rXrXrXrXrXrXrXrXeX0X0X0X0X0X0X0X0X0X=X=X-X(././.^.=X=Xb.v.l.l.x.d.z.v.x.z.f.s.s.s.s.y.y.y.y.y.:.s.s.",
"8X=X=X^.^.^.^.c.^./././././.*X*X*X=X-X0XeXeXpXeXeXeXeXeXeXeXeXeXeX-X*X*X=X=X*X/./.^.b./.c././././.c.",
":.:.:.;.-.{ [ [ ] ] ` [ ] ( / l / ' } o.-.-.w.u.d.u.d.u.u.u.u.w.q.-.X.X.' ' / / / l h / z z z z ` ] ",
"I.I.^.b.^.c.c.I.I././.c.c.f.g.f.s.s.s.y.:.:.:.=.>.-.=.[ [ ` [ ] ` z z z z l k l k j h l j 8 h j a j ",
"g.c.c./.c./.b.b.c.c.c.b.b.c././.^.^.^.c.^.x.z.z.f.s.y.s.s.y.y.y.y.;.;.>.>.>.>.>.>.+.+.+.+.+.+.+.@.} ",
"{ { { =.{ +.>.;.;.;.:.:.>.>.>.:.y.:.:.>.>.;.t.t.t.t.t.t.t.-.-.-.-.-.=.=.=.=.+.=.=.+.+.+.+.+.+.+.+.+.",
"{ ] x x } } ] ] ] x ] ] ] ` z ` z z ` ` ` ` z ` ` ` ` z z z / / ` ` ` ` z z ` ` ` ` ` ` ] ] [ [ ] ] ",
"s.y.s.s.y.y.i.i.f.i.y.y.i.y.s.y.y.y.y.y.t.-.;.>.=.=.=.{ =.{ { { } } [ ] ] ] ] ] ] ] [ ] [ ] ] ] ] ] ",
":.:.y.y.y.y.t.y.i.w.q.;.q.w.w.w.w.t.k.l.l.l.^.*X*X-X*X*X*X*X*Xx.k.k.i.u.t.t.t.;.;.q.q.-.;.;.;.;.;.;.",
"s.y.s.s.i.s.s.s.s.s.s.i.s.k.s.s.k.k.k.x.c.v.v.b.^.^.=X=X-X=X=X=X=Xb.k.k.l.l.l.u.u.u.w.w.u.l.l.k.k.h.",
"f.i.i.s.f.i.s.s.k.k.k.z.z.x.f.x.b.^.^.^.^.b.b.b.v.b.b.^.b.x.v.b.b.b.b.b.v.v.v.v.v.x.x.v.z.v.z.n.k.s.",
"z.z.z.x.c.x.b.c.b.b.b.b.c.^.^.^.^.=X=X=X=X=X^.=X=Xv.k.XX*X-X*X^.=X8X=X8X=X=X*X=X^.=X=X=X*XXX=X=Xb.c.",
">.;.-.=.=.[ } [ [ o.o.-.-.-.q.q.t.i.s.k.^.c.v.*X-XeXrXpXpXeXwX-X=X-X8X-X*X*X*X^.^.*X=X=X=X*X=X=X=X=X",
"1 1 5 1 1 > > 1 1 1 5 6 q w h h Y ' o.-.q.s.z.^.=XXXb.b.n.l.u.u.q.-.' ' ' T h h e h e e q w w q e w ",
"2 2 3 3 3 0 0 q q V U U U U W X.q.w.u.v.*X-X8X8X0XwXwXwXwX9X0X8Xn.s.w.o.X.E U U V e w 0 q q 0 3 1 5 ",
"2 2 3 3 3 3 0 0 0 C C I I U ' X.0.w.h.*XwXeXrXrXrXpXpXsXsXsXrXrX0X*Xl.w.o.' | Y U T Z U T e w w 0 q ",
"3 3 3 3 N N n 2 3 3 n P U U E E | X.2.w.h.a.a.j.n.XX+X8X8XwXwX8Xb.z.u.7.o.X.X.X.| Y Z T T ) ) ) ) ) ",
"3 3 n 3 N 0 N n n I I h I I I R U E | | ) ) ' %.;.p.h.s.f.a.a.i.i.7.7.2.X.o.[ _ ..) T w e ) ( z x H ",
"3 n P $X1X1X%XP n n R 0.-XpX-X3.E V C | a.tXuX'.p.2.2.7.+XuXdXsX-Xh.2.X.X.r.;X:X&X0.' ) z o.'.sXwX=X",
"2 n P %X2X2X1X Xm n R 0.>XcXeXoXW V C X.0XlXMXtX8. .o.p.rXMXVXVXsXn.| ! |.&X:X,X&Xr.0.;.(.:X4X6X5X4X",
"3 n R ^ $X$X X~ B N V Q .XoX3.Q U I R E o.P.R.K.4.6.7.a.+XsXdXsX8Xa. .2.0..X$X$X&X(./._._.:X3X3X,X&X",
"N N I I A A A A P m m ~ P Q Q Q R I R E X.1.3.2.6.4.4.4.6.2.2.2.1.o.2.o.>.:.f.x./._.[.[.[.[._.[.'.W.",
"M C C R P P m m n n n B A R Q Q A V A D E ..#... . .4.4. .o. . .6.7.6.7.7.%.&.a.y.I.I.I.I.'.I.G.I./.",
"F M ~ &X4X5X7X|.P n A 1.iXcXzXoX! m A ! oXaXcX>X3.Q S ! r.$X$X$X0.o.6.a.P.tXgXfXtX'.I.I.I.9XdXcXsX9X",
"C A ! &X5XnX5X.Xm n A .XxXNXcX+X<.n F .XiXNXNXaXoX<.J <.&X1X2X1X.XL L 9.+XxXbXvXdX+X6. .a.tXgXNXgXfX",
"Z Z V ~ |..X.X1.D B n A <..X.X! Q A P Q .XoXoXe.<.Q <.5.oXoX;XoXoXK.5.5.U.+X>X;Xh.2.#.#.5.U.tXtXE.E.",
"H G Z Z D G G G G V B A A A D D P Q Q Q <.Q ! Q ! 3.5.J.K.9.K.9.K.J.K.J.A.S.5.#.#.4.4.8.8.U.P.T.T.U.",
"G G G G Y S G S D D D D D S Q Q Q D Q <.L oXH.a.5.L.L.E.R.R.U.U.K.J.J.J.R.OXOX+Xj.7. . .%.%.&.&.&.%.",
"G H _ ,.[.lXlXf.| G J  .XXeX*X7.<.D D 3./.jXmXgXE.L.L.L.].yXyXyX@X#X!.#XgXMXVXNXgXOXS.L n.dXvXbXpX+X",
"i p _ I.{.lXuX'.%...| | 2.w.3.<.D D D ~ ).<X<X{.!.Q.L.E.E.`.`.`.@XL.L.#XgXNXBXxXiXXX#.L XXzXbXbXrXP.",
"i H ) ) { { =.} ..G G E E 1.3.<.S D D D X.2.&.L.Q.Q.Q.Q.!.!.!.L.L.J.V.J.OXOXOX+Xh.4. . .7.j.XXl.e.1.",
"K K c i ) T T S D D D V C M F F M M D D Z H g B.C.C.D.V.V.D.F.L.J.K.L L 5.M.L L J ..J J J ) S ) ) _ ",
"b g b S.G.W.G.O.Z Z M M 1.l.e.Q M 9 F Z J 5.+XF.C.V.B.A.R.tXhXhXE.A.O.#.7.8.U.K.5. .J _ 6.l.oXoX ._ ",
"d d b G.}.}.}.,._ q 9 M oXxXpXh.Z 4 4 D oXdXmXE.B.B.A.R.gXVXVXmX@X$.O.$.j.+X9X+Xj.#.H H j.aXzXzXn.#.",
"v v v c %.G.G.*.d i e 9 U  .#.#.H H H H G  .7.&.A.G.T.T.].].].E.J.S.K S.H.Y.n.h.o.) Z Z X.h.g.P.$.K ",
"c v g d u u u i i i u 9 e i K K g s s K M.K K K M.m.B.V.Z.A.A.F.Z.A.Z.A.A.O.S Z U e e G H O.O.O.O.O.",
"v v c c c p i i p y a u p s g g g g s s s g g N.M.N.N.N.B.B.Z.B.Z.Z.Z.B.N.s y e q u p p d d d d p i ",
"c c c v f f f f f d f g g g g M.M.g s s s m.m.m.m.N.N.A.A.S.M.M.M.N.m.m.m.K H G u i i i p p i i u w ",
">.} x a a r 8 r r a a y t r r r t r r r t t t y s s y y t y y y p s s s s u 9 q w u u u u u e q q q ",
"Y.p.j 1 % # = $ % # # # = # O O   . O O X . X # $ O o = # = # = $ $ - - - : - : : : , : , , , > , > ",
"o o + . . . . X . X X X . . . . . . . . . . . . X X . . . X o o $ + $ $ $ # $ $ = = * $ $ * * * & $ ",
". . . . . . . . .                     . .     . o * = o . . . X X o . o o o $ $ o $ $ $ $ $ # = $ & ",
". . . . . . .       .               .       . . X . . . . . . . . . . . X O O o o $ $ O # $ $ $ $ $ ",
". . . .                                                             o ; 5 ; $ ; 6 6 6 6 6 6 6 6 6 6 ",
"                                                                      $ > ; ; 5 w w 7 7 7 7 7 7 7 7 ",
"  . .     . X .   . . X + @ % $ % $ % +                       . o $ o $ @ @ ; < 6 7 7 7 6 7 7 6 7 7 ",
"u j 8 8 8 j 8 8 8 8 < & % % % % & & & $ .                   . . % & & $ & & & , > 8 j j j j h h j l ",
"j l z z z l l x j 6 > $ $ & % % @ @ & +                       . % & & & @ @ & & & 6 j l z l ( ( ` ` ",
"k k k k k k j h 8 & & @ @ @ @ @ @ @ @ +                       . + $ % @ @ % % + % ; < h k k l z z z ",
"j j k k h j h 8 < & @ @ @ @ @ @ @ @ @ +                         + % + + + + + + % % < 8 j k j x z ` "
};
