/* XPM */
static char *exit[] = {
/* columns rows colors chars-per-pixel */
"50 50 246 2 ",
"   c #060809",
".  c #0E1211",
"X  c #1A1A15",
"o  c #1A1C1B",
"O  c #151716",
"+  c #0E1010",
"@  c #1D201D",
"#  c #24241D",
"$  c #28271F",
"%  c #1B1E21",
"&  c #1D2021",
"*  c #242522",
"=  c #282721",
"-  c #262824",
";  c #2C2B24",
":  c #26292B",
">  c #2B2C2C",
",  c #24262B",
"<  c #302F27",
"1  c #2E302B",
"2  c #2F3025",
"3  c #33332B",
"4  c #323228",
"5  c #2B2E33",
"6  c #252B32",
"7  c #2D3134",
"8  c #2D333A",
"9  c #333434",
"0  c #3B3A34",
"q  c #363639",
"w  c #3A3B3B",
"e  c #373834",
"r  c #201F19",
"t  c #5B0101",
"y  c #5E0E0B",
"u  c #5D100C",
"i  c #62120F",
"p  c #552F2A",
"a  c #692B26",
"s  c #6B3731",
"d  c #46433C",
"f  c #393D45",
"g  c #2F3743",
"h  c #3C4447",
"j  c #3E4453",
"k  c #3F5A5F",
"l  c #3E626F",
"z  c #434545",
"x  c #4B4C4D",
"c  c #474847",
"v  c #534C46",
"b  c #57534D",
"n  c #4A4D53",
"m  c #4C5254",
"M  c #585756",
"N  c #6D524B",
"B  c #645C54",
"V  c #73574F",
"C  c #5C615C",
"Z  c #6B635C",
"A  c #66645B",
"S  c #776759",
"D  c #746E4A",
"F  c #575B64",
"G  c #485268",
"H  c #486468",
"J  c #5D6369",
"K  c #4F6977",
"L  c #696968",
"P  c #746B63",
"I  c #756C67",
"U  c #74716C",
"Y  c #7C746D",
"T  c #7B7466",
"R  c #6B6D72",
"E  c #656C75",
"W  c #726C74",
"Q  c #6B7279",
"!  c #757372",
"~  c #7A7672",
"^  c #7B7A75",
"/  c #76797B",
"(  c #7D7C7B",
")  c #747579",
"_  c #697667",
"`  c #856D59",
"'  c #936C5C",
"]  c #88745D",
"[  c #9B7C5C",
"{  c #887868",
"}  c #987A64",
"|  c #837C74",
" . c #837E7A",
".. c #8A7A77",
"X. c #8C7675",
"o. c #A77964",
"O. c #7C9C3B",
"+. c #7F807D",
"@. c #779863",
"#. c #7A884E",
"$. c #829A50",
"%. c #A9845E",
"&. c #94A951",
"*. c #A6B750",
"=. c #98836A",
"-. c #84817C",
";. c #8B8278",
":. c #9C8A7B",
">. c #988776",
",. c #81886D",
"<. c #A78769",
"1. c #B7936C",
"2. c #A58A73",
"3. c #A78A77",
"4. c #A99279",
"5. c #BE9C74",
"6. c #BC9D7C",
"7. c #B59678",
"8. c #B08D73",
"9. c #AEA773",
"0. c #C19E74",
"q. c #C19F7A",
"w. c #C1967D",
"e. c #C4A27B",
"r. c #C9A57A",
"t. c #D3AA7B",
"y. c #AFCA51",
"u. c #697685",
"i. c #777D84",
"p. c #616E83",
"a. c #4A7681",
"s. c #827A82",
"d. c #348A9A",
"f. c #2897A2",
"g. c #1E9BAB",
"h. c #4F9197",
"j. c #7D848A",
"k. c #798585",
"l. c #738A95",
"z. c #5196A2",
"x. c #7290A3",
"c. c #74A7AE",
"v. c #27B0C2",
"b. c #6ABAC9",
"n. c #72C3D1",
"m. c #8A8683",
"M. c #888787",
"N. c #938C85",
"B. c #958D87",
"V. c #9C938C",
"C. c #97928A",
"Z. c #868B94",
"A. c #86969A",
"S. c #999696",
"D. c #908F95",
"F. c #A2948B",
"G. c #A5998B",
"H. c #A89686",
"J. c #B59C86",
"K. c #A49A93",
"L. c #AB9E94",
"P. c #A59B96",
"I. c #A59188",
"U. c #9BA69B",
"Y. c #BAA286",
"T. c #ABA29A",
"R. c #BAA798",
"E. c #8E9BA4",
"W. c #8D99A6",
"Q. c #949DA4",
"!. c #949EA9",
"~. c #839CBC",
"^. c #A09FA3",
"/. c #96A0A6",
"(. c #9AA1A6",
"). c #95A2AA",
"_. c #9BA5AC",
"`. c #9DA8AF",
"'. c #96ABA4",
"]. c #9DAAB3",
"[. c #9AA9B5",
"{. c #8DAAB4",
"}. c #A2A9AE",
"|. c #A8A6A5",
" X c #BAADA5",
".X c #B6ACA4",
"XX c #A3ADB3",
"oX c #A6AFB7",
"OX c #AAB1B6",
"+X c #AAB3BA",
"@X c #A4B2BB",
"#X c #B5B7B8",
"$X c #B6B2A6",
"%X c #C4A482",
"&X c #C9A681",
"*X c #C7A989",
"=X c #D1AE86",
"-X c #CFB18C",
";X c #D5B188",
":X c #C9B399",
">X c #CFB492",
",X c #C5BBB3",
"<X c #C5B3A5",
"1X c #D1C5B8",
"2X c #E3D2B7",
"3X c #95AECC",
"4X c #98AFCF",
"5X c #99B1CD",
"6X c #98B5D4",
"7X c #8AADC4",
"8X c #B3BAC2",
"9X c #B9BEC6",
"0X c #A2BAD7",
"qX c #AAB8C1",
"wX c #99BCE5",
"eX c #84BDF5",
"rX c #ACC4DC",
"tX c #B5C2CA",
"yX c #9DC3EA",
"uX c #8BC2F5",
"iX c #87C0F5",
"pX c #93C6F6",
"aX c #9BC9F6",
"sX c #9BCCFB",
"dX c #96C8F8",
"fX c #9DD1FF",
"gX c #A6C5E6",
"hX c #B5CDE6",
"jX c #BCD4EA",
"kX c #A3CDF6",
"lX c #A4D2FD",
"zX c #ABD6FB",
"xX c #B5DAF9",
"cX c #BBE2FE",
"vX c #8ACECE",
"bX c #D7D8D4",
"nX c #D1D0CB",
"mX c #C7DAEB",
"MX c #C2DDF6",
"NX c #C7E2FA",
"BX c #D7E9FA",
"VX c #D4E2E7",
"CX c #E7F4FD",
"ZX c #E7ECEB",
"AX c #E3E2DB",
"SX c #A7CCB1",
/* pixels */
"5 5 5 6 > 6 > > > > > 5 5 9 0 0 p z d v v v N B B B Z Z S P P I I { Y | ~ | .. . .|  . .-. . .| | ;.",
"8 8 8 7 7 7 7 7 5 5 > > : : - : 6 : w e 9 5 > 1 < - 3 0 w d d d v v b b B B B Z P P P P P P P P P T ",
"8 8 8 8 8 7 8 7 8 7 9 7 9 7 7 7 7 1 d m F F J L w > > ; ; 1 1 1 < > > > > > 3 3 e e q p d v c v B A ",
"6 6 6 6 6 6 6 , , , , , : > > > 7 : c M W J W s.z > 9 9 9 e 9 9 9 0 9 9 1 9 3 7 1 1 1 > 1 1 2 1 4 3 ",
"g 8 g 6 8 8 8 8 8 6 5 6 : : , , , & : > 9 9 q d 5 = , , > > 7 1 8 9 9 9 9 9 q q q e 9 9 e e e e d w ",
"8 g 6 g 6 6 6 7 8 6 5 5 5 5 7 5 7 7 7 7 > > > > > > 5 > > > > > > > , > ; > > > : : : & @ O O o @ - ",
"G G G G n f j f g f q 8 7 7 7 1 > 6 > > > 5 5 > 5 > 5 3 9 9 q q p g q q q q w q e e 5 . + O % o O o ",
"~.x.x.u.x.x.u.p.E K F F F n x c c z f w w w q q q 9 3 5 5 7 > 5 5 5 5 3 9 9 7 9 8 e 7 O O o , 5 , 5 ",
"yXwXwXkXzXlXxXBXNXzXcXVX7Xc.A.D.A.i.M./ R E L J F Z F J L J J F n x n n n h z z h z f 7 > > 5 6 : 9 ",
"wXwXwXkXsXdXxXCXmXrXjXmXc.b.c.U./.N.R.H.V I U R s.<XK.W M.,X,XnXnXmXoXS.|.|.|.^.P.Q.S.S.D.D.Z.i.k.j.",
"wXwXwXkXkXlXyXD...4.4.G.c.vXU.U.}.K.H.F.` 3.H.F.L.J.B.:.L.1XnXbXZXbXV.T..X X X X X X X X.XR. X X X X",
"gXwXgXwXwXwXs.X...:.M.:.c.SXT.U.'.C.V.V.S M.Z.D.P.S.B.F.<X2XnXbXbXD.K.T.L.T.T.|.T.T.T.L.P.T.L.L.T.L.",
"mXhXhXs.s.u.W i...H.H.3.x.n.'.A.'.l.@.k._ +.k.M.|.S. .P.1XbXbXAXS.V.T.K.P.P.L.P.P.P.K.K.P.L.L.K.K.G.",
"BXNXBXgX3X~.s.W | 3.N...l.n.U.J l.+.H m b C _ _ U L R  X2XAXAX}.B.K.G.S.K.P.P.K.P.K.K.F.P.T.P.V.F.F.",
"CXBXMXkXkXlX4XW W X. .X.M z.h.K l K H m h h h h n h B 1XbXAX#Xs.C.C.S.V.V.V.S.S.K.S.S.B.F.^.D.B.D.M.",
"MXCXxXwXwXsXlXwXW.B.K.8.N B z.d.l K l K H k k H _ $.&.1XZXnX..B.N.B.B.B.B.B.B.C.C.C.B.N.V.Q.s.W E E ",
"uXkXaXaXdXsXsXlXcXxXhX2.v p h.v.g.g.f.f.h.h.#.$.$.O.#.nXbX;.;.M.N.m.m.;.-.m.M.M.m.m.M.M.Z.Z.u.E D._.",
"iXpXpXpXzXkXsXlXzXzXOX<.S N A z.f.z.h.z.z.c.y.*.#.D T nXM.^ -.-.-.+.( ( (  .( ( s.i.u.u.i.!.[.@X@XOX",
"eXuXpXeXNXxXpXkXlXkXJ.7.:.J.6.r.=X&X=X*X*XB.@.y.&.X.<XD.^ -.-.+.+.( ( ( ( / Q Q u.u.Z.!.@X8X+X`.}.OX",
"eXeXeXeXkXzXdXaXlX0X7.7.T { T Y.>X>X>X-X-XR.j.*.&.L.S.~ +.( k.+.) R R E E E u.l.!.].@XXX+X8X+X`.}.@X",
"eXuXiXuXuXpXdXaXfX|.1.4.,.} ] *X*XY.Y.Y.6.Y.6.*.9.|.~ +.( k.k./ R J J K l.A.@X@X[.[._.!.oX8X#X`.`.OX",
"eXeXiXpXpXpXaXsXaXH.<.J.=.] ` *X4.M _ Z L _ U I _ _ U U ! :.T.i.u.l.).@X].].].].).].[._.XX8XOX!._.}.",
"eXeXpXdXiXpXaXfX6X8.<.Y.] { ] =X:.A ,.U N V N Y -.-.-.^ M V.V.A.@X@X@X@X).).].].).`.`.}.@X8XOX!.(.}.",
"uXlXzXxXxXxXaXsX|.1.=.*XS =.{ =X:.A ~ a t | a y Y ,.x ~ b G.G.#XqX`.{.].).).`.[.).[.`._.+X8X+XQ.(.}.",
"xXCXNXCXBXxXaXaX4.<.2.*X{ } S -X>.A N t u ;.a t s ( z ~ b V.G.tX@X).[.].).).`.`.Q._._.Q.OX9X+XS.(.'.",
"BXCXCXCXNXpXsX5X1.<.4.*X=.=.<.&X>.C a t y ..a t i ^ v Y b V.H.tXqX).).].E.).`.`.Q.).!.|.oX9XOXQ.(.|.",
"mXjXjXCXMXpXfX).%.=.Y.*X` =.=.-X=.A s t i | a t a ( v ~ C G.G.9X@X).).[.).'.`.`.Q.!.Q.Q.XX9XOXQ.(.(.",
"jX6X6XNXNXpXpXI.%.:.6.*X2.=.T -X=.A S t y -.a t S ( c ~ b :.G.9X@X).).].E.E.`.).Q._.).Q.XX8XOXD.Q.(.",
"mX3X3XhXjXsX3X<.%.7.6.e.` =.b 1.:.B +.D a S s V m. .U U C C.4.qX@X).[.].).).].).W.).Q.Q.XX#XXXQ.(.}.",
"rX3X3XhXxXdXS.%.=.6.Y.6.D =.D e.=.b A C C B _ L P Y ~ A A H.G.@X+X[.[.@X).).].`.E./.S.Q.XX#XOXQ.(.}.",
"6X5X3XrXxXwX2.[ >.6.5.5.V [ ] =X8.,.} { =.>.=.>.-.L ! / +.M.C.A.{.].@X].).).].`.E.Q.).Q.}.+XXX/.(.}.",
"6X5X3XhXzX[.<.[ 7.6.6.5.V [ ` &Xr.t.t.=X=Xr.r.7.:Xk._ ^ ! +.Q Q / A.Q.XX{.).].).E.)./.!.}.+X}.(.(._.",
"5X5X5XhXkXS.%.} 6.6.e.e.} 8.8.r.e.%Xe.e.e.5.5.7.5..X_ ! ^ ^ ^ / U R R k.W._.].).!.!.).!.}.OXXXQ._._.",
"5X3X0XjXgX2.[ <.7.6.6.6.r.*Xr.6.%Xe.e.e.e.5.5.7.7.3.|.U ( +.( / ~ R ! R ) j.j.Q.Q.).`.(._.XX}.).(.}.",
"3X5X0XxX[.<.[ 8.J.6.5.5.6.6.%X6.e.e.q.q.e.5.1.7.J.' L.P.~ ;.;.( ^ Y ~ / ! U R i.D.W.).).}.OX}._._.`.",
"5X0XgXlXS.%.} 6.6.e.5.e.r.%X&X&Xe.0.e.e.e.5.0.5.J.} ' ,XB.T ;.;.| | | ;.~ ~ ~ U !  .Z.D.E.XXXX(.`.}.",
"rXmXMXgX3.[ 2.J.5.5.e.0.5.e.%Xe.r.0.w.e.q.q.0.7.6.' ' o.nX..{ ;.;.{ T ,.~ Y ( | ~ Y ^ ( D.Q.M.D.OX}.",
"mXCXNXoX%.[ 7.7.5.5.5.0.5.r.e.e.r.0.r.0.q.q.0.7.w.' ' } J.>.{ S { :.:.G.{ { >.:.>.;.;.{ { N.;.U j.(.",
"MXMXkXF.%.<.6.6.5.5.0.0.e.5.e.&Xr.r.q.%Xw.0.1.8.7.} ' o.o.3.{ T =.*XY.1XL A 4.J.G.:.2.>.;.:.N.L / E ",
"wXaXgX8.<.8.6.5.5.e.0.e.e.e.&X&X=X2.B B I.T.N.:.3.o.o.o.3.H.=.I.4.:.:.4.{ ;.=.>.;.>.;.P L B.V...U.(.",
"yXzX,X<.<.7.5.5.0.0.r.0.e.&X&X&X;X2.b Z |.,XI.L.J.o.o.o.o.<.3.<X:X:X*X2XK.x S Z Z B B z w I AX$X.XS.",
"kXMXJ.1.2.%X6.e.r.r.r.r.e.r.&X&X>Xo.B P .X,XI.J.w.o.o.o.o.o.3.Y.:XR.Y.:XnXB.! P S S T h x P 1X$X-.T.",
"xXS.1.1.e.=Xt.t.t.t.t.=X;X;X;X;X;X8.B V I.L.I.I.o.o.I.J.7.J.4.R.:XR.R.Y.$XAX|.i.G.L.T.Q M.M.#X$XM.S.",
"5XD.=.} { >.{ { ] T { T P P Z Z B M j z n n c z c n n M M M m b x m b m x x b x x x b M n m c c c z ",
"z j f f f g 8 8 8 6 5 : : * * & = = = * # # r # , = # # # # $ = $ - = = ; ; ; ; 1 ; = . O @ - ; - 1 ",
"8 6 6 6 , - * * * # # # # # # # r # r = # = = = = ; ; ; ; ; ; 2 2 4 2 3 3 4 3 3 3 4 -   + o : & @ @ ",
"> > , : - - - - - - = ; = # # = # # = = = = = = = = = # # # # # # # # # # # # # @ @ X         & # . ",
", * & % o o o o X X X X X X O X X X X X X X X X r r r r # # $ $ = = ; = ; ; ; 4 1 2 ; .     + . + . ",
"% o @ o @ @ # @ # # @ # # # $ $ $ $ $ ; ; ; ; 2 4 2 4 4 4 4 4 3 3 3 3 3 e 3 0 3 0 4 4 @       . . . ",
"- , = * - # # # $ # # # # $ $ # # $ $ $ $ $ $ $ $ $ ; ; ; ; 2 ; ; < < < 2 2 4 4 2 $ $ # . . . . . X "
};
