/* XPM */
static char *floor[] = {
/* columns rows colors chars-per-pixel */
"50 50 149 2 ",
"   c #002B6A",
".  c #002C6B",
"X  c #002D6B",
"o  c #002D6C",
"O  c #002E6C",
"+  c #002E6D",
"@  c #002E6E",
"#  c #012E6E",
"$  c #002F6F",
"%  c #002F70",
"&  c #003070",
"*  c #003170",
"=  c #003171",
"-  c #003271",
";  c #003272",
":  c #003273",
">  c #003373",
",  c #013373",
"<  c #003374",
"1  c #013374",
"2  c #013474",
"3  c #003475",
"4  c #013475",
"5  c #003575",
"6  c #013575",
"7  c #003576",
"8  c #003676",
"9  c #003677",
"0  c #003777",
"q  c #003778",
"w  c #003878",
"e  c #003879",
"r  c #003979",
"t  c #00397A",
"y  c #003A7A",
"u  c #003A7B",
"i  c #003B7B",
"p  c #003B7C",
"a  c #003B7D",
"s  c #003C7D",
"d  c #003C7E",
"f  c #003D7E",
"g  c #013D7E",
"h  c #013D7F",
"j  c #013E7F",
"k  c #013E80",
"l  c #003F81",
"z  c #013F81",
"x  c #004081",
"c  c #004082",
"v  c #004083",
"b  c #004183",
"n  c #004184",
"m  c #004284",
"M  c #004285",
"N  c #004385",
"B  c #004386",
"V  c #004486",
"C  c #004487",
"Z  c #004588",
"A  c #014689",
"S  c #01468A",
"D  c #01478A",
"F  c #01478B",
"G  c #01488B",
"H  c #01488C",
"J  c #01498D",
"K  c #014A8D",
"L  c #014A8E",
"P  c #004B8F",
"I  c #014B8F",
"U  c #004C8F",
"Y  c #004C90",
"T  c #014C90",
"R  c #004D90",
"E  c #004D91",
"W  c #004E91",
"Q  c #004E92",
"!  c #004F92",
"~  c #014F93",
"^  c #015093",
"/  c #015094",
"(  c #015195",
")  c #015196",
"_  c #015297",
"`  c #015397",
"'  c #015398",
"]  c #015499",
"[  c #01559A",
"{  c #01559B",
"}  c #01569B",
"|  c #01569C",
" . c #01579C",
".. c #01579D",
"X. c #01589D",
"o. c #01589E",
"O. c #00599F",
"+. c #01599F",
"@. c #005AA0",
"#. c #005BA1",
"$. c #005CA2",
"%. c #005DA3",
"&. c #015DA3",
"*. c #015EA4",
"=. c #015FA5",
"-. c #0160A5",
";. c #0160A7",
":. c #0161A7",
">. c #0161A8",
",. c #0162A8",
"<. c #0162A9",
"1. c #0164AA",
"2. c #0064AB",
"3. c #0164AB",
"4. c #0065AB",
"5. c #0165AB",
"6. c #0065AC",
"7. c #0165AC",
"8. c #0165AD",
"9. c #0166AD",
"0. c #0166AE",
"q. c #0167AF",
"w. c #0168AF",
"e. c #0168B0",
"r. c #0169B0",
"t. c #016AB1",
"y. c #016BB3",
"u. c #016CB4",
"i. c #016DB5",
"p. c #016EB6",
"a. c #016FB7",
"s. c #0170B8",
"d. c #0171B9",
"f. c #0171BA",
"g. c #0172BA",
"h. c #0172BB",
"j. c #0173BC",
"k. c #0174BC",
"l. c #0174BD",
"z. c #0175BE",
"x. c #0175BF",
"c. c #0176BF",
"v. c #0176C0",
"b. c #0178C2",
"n. c #0179C2",
"m. c #017AC3",
"M. c #017AC4",
"N. c #017BC4",
"B. c #017CC7",
/* pixels */
"                  . X O # $ & * - : < 1 3 6 5 7 7 7 7 5 6 3 1 < : - * & $ # O X .                   ",
"                . o @ $ & = ; < 2 5 7 9 0 q q q w w q q q 0 9 7 5 2 , ; = & $ @ o .                 ",
"            . X + $ & = ; 1 4 7 9 q e r t y u i i i i u y t r e q 9 7 4 1 ; = & $ + X .             ",
"          . o @ $ & - , 4 8 0 w r y i a s f g h h h h g f s a i y r w 0 8 4 , - & $ @ o .           ",
"        . o @ % * ; 1 7 9 w r u a d h k z x c v v v v c x z k h d a u r w 9 7 1 ; * % @ o .         ",
"      . o @ % = : 4 8 q r u a g k l v b m N B V V V V B N m b v l k g s u r q 8 4 : = % @ o .       ",
"    . o @ % = > 6 9 w t p f k x b M B C Z A S D D D D S A Z C B M b x k f p t w 9 6 > = % @ o .     ",
"    X @ % = > 6 9 e y s h l b M V Z S G H J K L L L L K J H G S Z V M b l h s y e 9 6 > = % @ X     ",
"  . + $ * : 6 9 e u s j c m V Z D H K I U R E W W W W E R U I K H D Z V m c j s u e 9 6 : * $ + .   ",
". o $ & ; 4 9 e u d k v M C A H K P R W ~ / ( ( ) ) ( ( / ~ W R P L H A C M v k d u e 9 4 ; & $ o . ",
"X @ & - 1 8 w y s k v N Z D J I R Q / ) _ ' ] ] [ ] ] ] ' _ ) / Q R I J D Z N v k s y w 8 1 - & @ X ",
"O $ = < 7 q t s j v N Z F K U W / ) ' ] { | ..X.o.o.X...| { ] ' ) / W U K F Z N v j s t q 7 , = $ O ",
"# & ; 4 9 r p h c M Z F K T Q ( ` ] } ..O.@.#.#.$.$.#.#.@.O...} ] ` ( Q Y L F Z M c h p r 9 4 ; & # ",
"$ = 1 8 w u f l m C D K T ! ( ' { ..+.#.$.&.*.=.=.=.=.*.&.$.#.+...{ ' ( ! Y K D C m l f u w 8 1 = $ ",
"& ; 4 0 r s k b V A J U Q ( ' } o.@.$.*.=.;.>.,.<.<.,.>.;.=.*.$.@.o.} ' ( Q U J S V b k s r 0 4 ; & ",
"* , 7 w u g x M Z H I W ( ' } o.#.%.=.:.<.1.2.6.8.8.6.2.1.<.:.=.%.#.o.} ' ( W I H Z M x g u w 7 , * ",
"- 2 9 r a k b V D K R ^ ` { o.#.&.-.,.1.6.0.q.e.r.r.e.q.0.6.1.,.-.&.#.o.{ ` / R L D V b k a r 9 2 - ",
": 5 q y d l M Z H P Q ) ] ..@.%.-.,.3.9.w.t.y.u.u.u.u.y.t.w.9.3.,.-.%.@...] ) Q P H Z M l d y q 5 : ",
"< 7 e i h v B S K R / ' } +.$.=.,.3.0.r.y.u.p.p.a.a.p.p.u.y.r.0.3.,.=.$.+.} ' / R K S B v h i e 7 < ",
"2 9 r a k n C F I W ) ] ..#.*.:.1.9.r.y.i.a.s.d.f.f.d.s.a.i.y.r.9.1.:.*.#.X.] ) Q I F C b k a r 9 1 ",
"3 0 t s z m Z H U ~ _ { O.$.=.<.6.w.y.i.a.d.h.j.l.l.j.h.d.a.i.y.e.6.<.=.$.O.{ _ ~ U H Z m z s t 0 3 ",
"6 q y f x N A J R / '  .@.&.;.1.0.t.u.a.d.j.l.z.c.c.x.l.j.d.a.u.t.0.1.;.&.@. .' / R J A N x f y q 6 ",
"5 q u g c B S K E ( ] ..#.*.>.5.q.y.p.s.h.l.c.b.n.n.b.c.l.h.s.p.y.w.5.>.*.#...] ( E L S B c g u q 5 ",
"7 q i h v V D L W ( ] X.#.=.,.6.e.u.p.d.j.x.b.m.N.N.m.b.x.k.d.p.u.e.6.,.=.#.X.] ( W L D V v h i q 7 ",
"7 w i h v V D L W ) ] o.$.=.<.8.r.u.a.f.l.v.n.M.B.B.N.n.c.l.g.a.u.r.8.<.=.$.o.[ ) W L D V v h i w 7 ",
"7 w i h v V D L W ( ] o.$.=.<.8.r.u.a.f.l.c.n.M.B.B.N.n.c.l.g.a.u.r.8.<.=.$.o.[ ) W L D V v h i w 7 ",
"7 q i h v V D L W ( ] X.#.=.,.6.e.u.p.d.j.x.b.m.M.N.m.b.x.k.d.p.u.e.6.,.=.#.X.] ( W L D V v h i q 7 ",
"5 q u g c B S K E ( ] ..#.*.>.5.q.y.p.s.h.l.c.b.n.n.b.c.l.h.s.p.y.w.5.>.*.#...] ( E L S B c g u q 5 ",
"6 q y f x N A J R / ' | @.&.;.1.0.t.u.a.d.j.l.x.v.c.x.l.j.d.a.u.t.0.1.;.&.@. .' / R J A N x f y q 6 ",
"3 0 t s z m Z H U ~ _ { O.$.=.<.6.e.y.i.a.d.h.k.l.l.k.h.d.a.i.y.e.6.<.=.$.O.{ _ ~ U H Z m z s t 0 3 ",
"1 9 r a k b C F I W ) ] ..#.*.:.1.9.r.y.i.a.s.d.f.f.d.s.a.i.y.r.9.1.:.*.#...] ) Q I F C n k a r 9 2 ",
"< 7 e i h v B S K R / ' } +.$.=.,.3.0.r.y.u.p.p.a.a.p.p.u.y.r.0.3.,.=.$.+.} ' / R K S B v h i e 7 < ",
": 5 q y d l M Z H P Q ) ] ..@.%.-.,.3.9.w.t.y.u.u.u.u.y.t.e.9.3.,.-.%.@...] ) ! P H Z M l d y q 5 : ",
"- 2 9 r a k b V D K R / ` { o.#.&.-.,.1.6.0.q.e.r.r.e.w.0.6.1.,.-.&.#.o.{ ` / R K D C b k a r 9 2 - ",
"* , 7 w u g x M Z H I W ( ' } o.#.%.=.:.<.1.4.6.8.8.6.7.1.<.:.=.%.#.o.} ' ( W I H Z M x g u w 7 , * ",
"& ; 4 0 r a k b V A J U Q ( ' } o.@.$.*.=.;.>.,.<.<.,.>.;.=.*.$.@.o.} ' ( Q U J S V b k s r 0 4 ; & ",
"$ = 1 8 w u f l m C D K Y ! ( ' { ..+.#.$.&.*.=.=.=.=.*.&.$.#.+...{ ' ( ! Y K D C m l f u w 8 1 = $ ",
"# & ; 4 9 r p h c M Z F K Y Q ( ` ] } ..O.@.#.#.$.$.#.#.@.O.X.} ] ` ( Q Y L F Z M c h p r 9 4 ; & # ",
"O $ = , 7 q t s j v N Z F K U W / ) ' ] {  ...X.o.o.X... .{ ] ' ) / W U K F Z N v j s t q 7 , = $ O ",
"X @ & - 1 8 w y s k v N Z D J I R Q / ) _ ' ] ] [ [ ] ] ' _ ) / ! R I J D Z N v k s y w 8 1 - & @ X ",
". o $ & ; 4 9 e u d k v M C A H L P R W ~ / ( ( ) ) ( ( / ~ Q R P L H S C M v k d u e 9 4 ; & $ o . ",
"  . + $ * : 6 9 e u s j c m V Z D H K I U R E W W W W E R U I K H D Z V m c j s u e 9 6 : * $ + .   ",
"    X @ % = > 6 9 e y s h l b M V Z S G H J K L L L L K J H G S Z V M b l h s y e 9 6 > = % @ X     ",
"    . o @ % = > 6 9 w t p f k x b M B C Z A S D D D D S A Z C B M b x k f p t w 9 6 > = % @ o .     ",
"      . o @ % = : 4 8 q r u s g k l v b m N B V V V V B N m b v l k g s u r q 8 4 : = % @ o .       ",
"        . o @ % * ; 1 7 9 w r u a d h k z x c v v v v c x z k h d a u r w 9 7 1 ; * % @ o .         ",
"          . o @ $ & - < 4 8 0 w r y p a s f g h h h h g f s a p y r w 0 8 4 , - & $ @ o .           ",
"            . X + $ & = ; 1 4 7 9 q e r t y u i i i i u y t r e q 9 7 4 1 ; = & $ + X .             ",
"                . o @ $ & = ; < 2 5 7 9 0 q q q w w q q q 0 9 7 5 2 , ; = & $ @ o .                 ",
"                  . X O # $ & * - : < 2 3 6 5 7 7 7 7 5 6 3 2 < : - * & $ # O X .                   "
};
