/* XPM */
static char *wall[] = {
/* columns rows colors chars-per-pixel */
"50 50 115 2 ",
"   c #595959",
".  c #5D5D5D",
"X  c #606060",
"o  c #616161",
"O  c #636363",
"+  c #646464",
"@  c #656565",
"#  c #666666",
"$  c #676767",
"%  c #686868",
"&  c #696969",
"*  c #6A6A6A",
"=  c #6B6B6B",
"-  c #6C6C6C",
";  c #6D6D6D",
":  c #6E6E6E",
">  c #6F6F6F",
",  c #707070",
"<  c #717171",
"1  c #727272",
"2  c #737373",
"3  c #747474",
"4  c #757575",
"5  c #767676",
"6  c #777777",
"7  c #787878",
"8  c #797979",
"9  c #7A7A7A",
"0  c #7B7B7B",
"q  c #7C7C7C",
"w  c #7D7D7D",
"e  c #7E7E7E",
"r  c #7F7F7F",
"t  c #808080",
"y  c #818181",
"u  c #828282",
"i  c #838383",
"p  c #848484",
"a  c #858585",
"s  c #868686",
"d  c #878787",
"f  c #888888",
"g  c #898989",
"h  c #8A8A8A",
"j  c #8B8B8B",
"k  c #8C8C8C",
"l  c #8D8D8D",
"z  c #8E8E8E",
"x  c #8F8F8F",
"c  c #909090",
"v  c #919191",
"b  c #929292",
"n  c #939393",
"m  c #949494",
"M  c #959595",
"N  c #969696",
"B  c #979797",
"V  c #989898",
"C  c #999999",
"Z  c #9A9A9A",
"A  c #9B9B9B",
"S  c #9C9C9C",
"D  c #9D9D9D",
"F  c #9E9E9E",
"G  c #9F9F9F",
"H  c #A0A0A0",
"J  c gray63",
"K  c #A2A2A2",
"L  c #A3A3A3",
"P  c #A4A4A4",
"I  c #A5A5A5",
"U  c #A6A6A6",
"Y  c #A7A7A7",
"T  c #A8A8A8",
"R  c #A9A9A9",
"E  c #AAAAAA",
"W  c #ABABAB",
"Q  c #ACACAC",
"!  c #ADADAD",
"~  c #AEAEAE",
"^  c #AFAFAF",
"/  c #B0B0B0",
"(  c #B1B1B1",
")  c #B2B2B2",
"_  c #B3B3B3",
"`  c #B4B4B4",
"'  c #B5B5B5",
"]  c #B6B6B6",
"[  c #B7B7B7",
"{  c #B8B8B8",
"}  c #B9B9B9",
"|  c #BABABA",
" . c #BBBBBB",
".. c #BCBCBC",
"X. c #BDBDBD",
"o. c #BEBEBE",
"O. c #BFBFBF",
"+. c #C0C0C0",
"@. c #C1C1C1",
"#. c #C2C2C2",
"$. c #C3C3C3",
"%. c #C4C4C4",
"&. c #C5C5C5",
"*. c #C6C6C6",
"=. c #C7C7C7",
"-. c #C8C8C8",
";. c #C9C9C9",
":. c #CACACA",
">. c #CBCBCB",
",. c #CCCCCC",
"<. c #CDCDCD",
"1. c #CECECE",
"2. c #CFCFCF",
"3. c #D0D0D0",
"4. c #E1E1E1",
/* pixels */
"+.#.&.-.-.} ..X.o.} | O.@.o.O.@...| { } { _  .O.O.} X.X.} +.#.@.#.( T T E ) ~ R / ( ) ( ) _ / / E U ",
"O.%.%.;.<.$.#.@.} ' _ ` } } ..+.| | ] _ ' ` o.X.| | {  .' { O.@.{ ~ ! R ^ / ^ ! ~ ^ ^ ~ ^ / ^ W P L ",
" .$.%.+.=.*. ._ E ^ ^ ! [ [ o.@.o.] } { [ { @.O.| ] ' [ ! ) O.| ( / ' ] ` ( ( _ ! T W ~ ~ Q ! Y P L ",
";.o...o.@.=. . .[ } ] o.*.+.+.-.-.-.&.o. .+.#.@.@.{ {  .| +.#. .` Q { ..' ' ] ( W T R ! R U W W Y U ",
"&.o._ +.-.:.<.2.;.*.*.=.<.,.+. ...%.@. .[ [ ` ] ] } ..+.%.@.*.*.#.} { [ ! ( _ ^ ^ U U T U Y I G D V ",
":.@...%.2.@.{ o.} ..*.,.>.:.$.] } } ' ] [ } R E I ~ ) _ @.=.*.*.#.` ! ~ ^ ^ ^ / / E Q Q U P F V Z Z ",
"4.>.O.;.:.=.+.$.;.o.#.&.#.O.O.' [ ] o.%.-.&.$.o. ._ E ] ) } ] { ` ( Q ! R E ( ( W R T ! I K K S B C ",
"3.1.o.[ } @.#.2.;.:.%.+.+.$.$.$.O.` ` ] X...o...} ` [ ) ] _ ' ` ( ~ / ` ( ~ ^ ` ` Y W L D D C C D A ",
"#.| .. .o.o.| *.&.%.:.3.1.;.*.$.} {  .} }  .[ { o.` ( ` ] ) ( } ] _ ) ' } ~ ~ ~ ) / ) T G P P I K G ",
"+.X. .| X.{ X.%.@.+.&.*.;.$...] ' { ..[ ' _ W } ' ! ' ] ' ^ E T ( ! ( / W I T Y U W ) Q E ( R G J I ",
" .} ` ] } [ ( ] | [ ..o.' { ' ( R P / _ E E R _ ' ) ! ) ^ W T T _ ~ Q P G H H I H G I G B H S B x b ",
"( ( W / ` ^ Q ~ ( ) ' } [ } ^ T L Y ~ W E Y R ) [ ' / ! T T ! ^ R A B D D G Z C S B V V m C C Z C M ",
"E / ^ ( ! ! ! ' ] ` _ [ [ ^ ! E W E I Y Q L J E Q W Q E U P T ~ Y G B n A A B n N N v B D F S M N F ",
"Q ~ Y ^ ! Q T ) } ' Q ( ^ W ! R I L L L W ~ I W K R ~ R U W T E U R K M C N c b N n v M I U D P R ~ ",
"Q / ^ ^ Q ! ! (  ._ Q T U U T L J H H I W / I J S J U P R R Q ( Y E I V M V c k n N V C Z E ( E U L ",
"T Q Y T E W ( ^ { ^ R P U U I L H F D I E T P A G K F H U J H F G I S B m V m x n c v B m P E H G Z ",
"T Y I T U W ) W ~ T R P L L J H D Z G R T J D D D A Z A L K A C G L G A A S C Z C x l n Z R U J H F ",
"J T R T U P Y W ~ Y I G G G S C V M Z U Y D B B M B H A H H D L L H D V J H A Z N m v h N P K H J F ",
"G K H Y R R Q ( ( E T K F D S J T G F Y P Z M V C G L G I L F L D D D S K J C B C N v l m D G D D D ",
"D L K L Y T Y W ` T U U L J P ~ Q T T K D S D A A F P L U K K H S I U S K L G Z C m x c F D A A A Z ",
"F H A D G L K P Y H G L J H K E E U F S A S G C L Y L Y L I U J A I I D I L A A A V c b G G N Z Z M ",
"F Z C D F P U G G A L R I K G H U L G A G K I U U ~ Q W I T T P F R R A L H B M C C x b Z A A D C v ",
"D A Z C F F K P F D P R I D C K I J K Z J I T Y I E E Q W R E Y P Q W A G S N A B v j M A C S S m z ",
"B V V Z V B A K H H U L H J S D A P E J J P I U W ~ R E E W E I I ~ ( G Z F V D M j d b D m Z V c k ",
"n n Z M n B D G D P H G A S Z Z S P E I S H I L E ] ^ W E P P P J Q ! J S D V C k f i n H k N c l g ",
"Z M V C H H J P H F S S A Z Z F K Y K P J D S F E ! Y Y Y L Y H K I Y F C N c z g h f S N l N x h k ",
"A Z S F H K K G S C D G G V m A P G V Z H A B G K J G I P I W I P G F D N b x l j s s C j l b l j b ",
"P P H A D F J F D A S D A Z M Z A M M A F C N H G F S F U Y ! T H G S D N M c f a p j N f x x g x l ",
"G K F V N N S D A D D Z C Z M D C M Z n b x M C N b V G P J U K C B Z A M x k a d s B b j x h g z d ",
"G G F B m m Z Z V m n N B N b B N M M m M c l N n c N m F G F Z B V N b j z g i y c S b c k j g t w ",
"C A S A C B Z J A b v M m b B B c m c m Z C N C m c c c Z F C V b B V M v n h s y F G N k f u y y r ",
"v m B V N M N V N V C m m z m B z c m N C V B m b M V C Z C C V n x b v c k x p z L M n k h u u t r ",
"c M M M M C B m N Z A N B m v n N N F D D B M M M N B M v b m N c j j h h d f u S M f j h h u t r w ",
"x n l c M V N C G H Z M M v v z n v B C D H S B C V N n n b b b m D G n d N c j b j f n x s t r t w ",
"v b z x n m M M V C b c b b l z z c b M b x N D m n B N v v z Z E S Z J L K G N c n H R v j y w q 9 ",
"l h j h z x c k x k g j v b k z x l m S F m v N M b B B c j m W M M A D V V B C G J K J m f e 0 0 0 ",
"j f k l k k l g h g k j j h h z v l m N V Z N b c k b n k g D G c B n j g H J n C V M C n i 7 9 0 0 ",
"l s s h f s g p s f l g l s s k x g v B v v b x c m b x k n D x l x v v f D G B M f g M c r 9 7 8 5 ",
"f f f g a t a t t y f h g p i s h g c B h g d l z B V z Z V l l j n V n c F F n h q f g u 9 5 6 5 w ",
"f a f j f u e e 8 7 7 q e w e u t p k h u 9 8 r g z z f g s l l j C V c x M l u r 6 i i r 3 < 2 3 g ",
"k i p g d i 9 9 9 6 4 6 4 2 8 w 0 0 0 w i 8 q w t a i r 0 f z g d z l g c V d q 6 5 6 8 w : > 0 r k ",
"a u r t i u 0 2 7 q 5 3 < > 5 6 6 4 5 9 r 5 0 i t 0 e w e j p i u f b k x b f t t w < < > * 2 5 t a ",
"q q t r q 7 4 1 5 5 2 : : , , < 2 2 1 5 7 8 0 a u t 0 3 i f f i t p b d f a y 4 w a e 7 2 , > 1 7 w ",
"0 r e r r 0 7 4 7 4 3 < : - ; < 2 2 1 4 6 5 9 r t q 3 : 9 k a t 7 y g u y w 0 > 5 w t 9 1 1 > - = 3 ",
"r t t q 0 8 7 2 3 < = * * % # & % % % - , 1 3 2 5 3 < > 7 d t e 6 0 q 0 4 6 4 * 3 5 4 : & & @ o + = ",
"t y r e q e 0 6 4 < > - < , = > , 1 4 3 5 8 q 0 7 6 6 1 t u w y w e y w e t 2 o 3 5 ; > : - ; $ O = ",
"s s y r y u r s h k d a s d y s s f h s i i s p p d f s e w e t s l v h a u <   1 5 , 1 * $ $ * $ O ",
"t u q w 9 9 e u u g a y y p f j d d p a f s i j b m V m z r r r p s h a q 8 > . , < : 2 3 3 4 ; % X ",
"w w 0 7 6 6 5 7 e t q r i i f s s s i q 0 3 g F Z S D F G d < 3 6 0 8 9 e q 7 # 5 0 0 7 4 7 1 = = % ",
"7 8 5 9 5 2 1 * 4 p d d k j a d h d i 5 4 w M V v C Z V n z 3 5 9 7 4 3 q s q , i u q 6 4 < 1 , * $ "
};
