/* XPM */
static char *wall_0[] = {
/* columns rows colors chars-per-pixel */
"50 50 223 2 ",
"   c #040103",
".  c #03030D",
"X  c #08060C",
"o  c #05080F",
"O  c #08080F",
"+  c #0A0005",
"@  c #020513",
"#  c #060A11",
"$  c #0A0B13",
"%  c #00061A",
"&  c #030B1C",
"*  c #0C0C19",
"=  c #0B0312",
"-  c #1A091A",
";  c #0A101D",
":  c #07111E",
">  c #13121B",
",  c #2D0007",
"<  c #28050D",
"1  c #33030D",
"2  c #3D0309",
"3  c #2C0612",
"4  c #2C0A13",
"5  c #290817",
"6  c #340A14",
"7  c #3D0912",
"8  c #3A0917",
"9  c #3C121C",
"0  c #34111E",
"q  c #020D20",
"w  c #0A0D25",
"e  c #1A1D2B",
"r  c #060A34",
"t  c #2A1827",
"y  c #3A1625",
"u  c #260C21",
"i  c #2D2B35",
"p  c #372835",
"a  c #393439",
"s  c #2C292D",
"d  c #43030B",
"f  c #430512",
"g  c #430A14",
"h  c #430E18",
"j  c #4C0814",
"k  c #500E19",
"l  c #530B15",
"z  c #4C141D",
"x  c #43151F",
"c  c #59151F",
"v  c #50111A",
"b  c #56000C",
"n  c #63101A",
"m  c #471B25",
"M  c #5A1722",
"N  c #641B25",
"B  c #482637",
"V  c #45353C",
"C  c #463A3B",
"Z  c #6B232D",
"A  c #662029",
"S  c #712C35",
"D  c #07195A",
"F  c #072C58",
"G  c #3B3B48",
"H  c #2B3A54",
"J  c #2F284A",
"K  c #0C1D62",
"L  c #072968",
"P  c #132462",
"I  c #443D42",
"U  c #483C40",
"Y  c #5A3E44",
"T  c #3A404D",
"R  c #3F4651",
"E  c #23425C",
"W  c #174D6B",
"Q  c #1F536A",
"!  c #125278",
"~  c #2E5B7B",
"^  c #464144",
"/  c #4B4346",
"(  c #4D464A",
")  c #4E494C",
"_  c #50474A",
"`  c #544A4E",
"'  c #574949",
"]  c #4C4951",
"[  c #544E52",
"{  c #5C4E52",
"}  c #565155",
"|  c #5A5255",
" . c #56535B",
".. c #5B5559",
"X. c #5E595C",
"o. c #655252",
"O. c #615B5D",
"+. c #514B60",
"@. c #4A5B67",
"#. c #545563",
"$. c #5C5963",
"%. c #465C76",
"&. c #555E74",
"*. c #635E61",
"=. c #685F62",
"-. c #605E70",
";. c #5E626D",
":. c #536874",
">. c #63616A",
",. c #8C7A77",
"<. c #907E79",
"1. c #0B4A86",
"2. c #075C8D",
"3. c #0B5889",
"4. c #0B5E98",
"5. c #285D84",
"6. c #086294",
"7. c #0A689D",
"8. c #076597",
"9. c #126F92",
"0. c #166995",
"q. c #236C8D",
"w. c #396786",
"e. c #22708D",
"r. c #2A6B92",
"t. c #336C93",
"y. c #297599",
"u. c #357299",
"i. c #377381",
"p. c #0D76AB",
"a. c #0B75A6",
"s. c #046CB5",
"d. c #046EB9",
"f. c #086EBA",
"g. c #0667B2",
"h. c #0473BD",
"j. c #0971BE",
"k. c #0879B5",
"l. c #197EB0",
"z. c #1475A5",
"x. c #2479A3",
"c. c #297BA5",
"v. c #506E86",
"b. c #43718C",
"n. c #0476C2",
"m. c #0975C2",
"M. c #057BC4",
"N. c #097AC5",
"B. c #057EC9",
"V. c #097EC8",
"C. c #1883A6",
"Z. c #0E85B6",
"A. c #1588B8",
"S. c #1993BA",
"D. c #1894BA",
"F. c #259DBF",
"G. c #2D86AB",
"H. c #0583CC",
"J. c #0A83CD",
"K. c #0589CF",
"L. c #0A87C4",
"P. c #0E91C4",
"I. c #0E94CB",
"U. c #0D9CCF",
"Y. c #1199CE",
"T. c #1699C5",
"R. c #0486D0",
"E. c #0A87D1",
"W. c #058CD3",
"Q. c #0A8CD4",
"!. c #0C8FD8",
"~. c #0592D6",
"^. c #0A91D7",
"/. c #0F9ED0",
"(. c #0595DA",
"). c #0B95DA",
"_. c #059ADD",
"`. c #0A9BDD",
"'. c #1B8CC1",
"]. c #10A3CC",
"[. c #1CA5CB",
"{. c #0DA3D5",
"}. c #0DA2DE",
"|. c #0BABDE",
" X c #12B0D6",
".X c #13A8D0",
"XX c #25A3C9",
"oX c #24AED3",
"OX c #059DE1",
"+X c #099EE1",
"@X c #0596E1",
"#X c #06A3E4",
"$X c #0AA4E3",
"%X c #07A9E7",
"&X c #0CABE5",
"*X c #06A6E8",
"=X c #0AA5E9",
"-X c #07ABEA",
";X c #09ADE9",
":X c #10A7E0",
">X c #11ACE3",
",X c #07B5E5",
"<X c #0DB3E6",
"1X c #0EBAE6",
"2X c #07B1EC",
"3X c #0BB4EA",
"4X c #0CBBEB",
"5X c #04BDED",
"6X c #12B3E4",
"7X c #12BBE5",
"8X c #11B4E8",
"9X c #11BCE9",
"0X c #0CBEF0",
"qX c #23BCE2",
"wX c #0EC2EB",
"eX c #0EC9EE",
"rX c #11C1E7",
"tX c #10C2EA",
"yX c #0BC4F3",
"uX c #0DCBF3",
"iX c #07C5F6",
"pX c #11CAFA",
"aX c #0DD1F5",
/* pixels */
"g.s.s.g.g.n.n.n.n.n.n.B.B.B.H.R.K.K.W.~.K.@X!   o o o   2.).K.W.W.R.K.K.H.H.M.L.M.H.h.h.h.h.h.s.s.g.",
"d.d.n.n.n.n.n.n.B.B.B.B.B.R.R.R.W.~.~.~.~.OX!   o o o   2.OXW.~.W.W.R.R.K.K.K.H.H.H.M.H.h.h.h.h.d.s.",
"d.h.n.n.n.n.B.B.B.B.B.B.R.R.R.W.~.~.(.(.~.#X2.  # # o   4.OX^.~.~.~.~.~.W.W.K.H.H.H.H.M.H.h.h.h.h.d.",
"n.h.n.n.n.n.B.B.B.B.R.R.R.W.W.~.(._._._.(.%X8.  # o o   7.+X~.(.~./.~.~.~.~.W.K.K.H.H.H.H.M.M.M.h.h.",
"h.M.M.M.B.B.B.B.R.R.R.W.W.@X~.(._._._._._.*X7.+ # o o   8.#X).(.`.(.).(.~.~.~.~.K.K.K.K.H.H.M.M.h.h.",
"M.H.B.H.B.H.R.R.R.R.@XW.W.W.(.(.@XOX_._._.*Xa.X # # o   a.=X`.`.`._._.).(.~.(.~.~.~.K.K.H.H.H.H.H.h.",
"M.M.B.H.H.R.R.R.W.W.R.@X(.(.(._._.#X#X#X_.-Xk.o # o o   p.=X`.}.}.`._.}._._.(.(.~.~.~.~.K.K.H.L.H.H.",
"L.H.H.H.R.R.W.~.~.(.@X(.@X@X@X@X#X#X#X$X$X=XZ.# # # . . k.=X`.`.}.`.}._._._._.(.(.~.~.~.~.K.K.H.H.H.",
"H.H.R.R.W.W.W.~.(.(.@X@X@XOXOX#X#X#X#X&X}.%XP.* O O . o L.&X}.}.}.}._.#X_.}.}._._._.~.~.~.~.W.K.K.H.",
"H.K.Q.W.W.~.(.(.(.(.@XOXOXOX#X#X#X#X%X%X&X;XI.; O o . # P.>X}.$X}.$X}.#X}.#X#X_.{._._.(.~.~.~.W.K.H.",
"K.K.W.Q.^.(.(.@X(.@XOXOXOXOX#X*X*X-X%X-X&X2XP.w $ $ # w Y.>X}.&X$X}.|.$X}.#X}.#X_._._._.(.~.~.W.K.K.",
"K.W.Q.~.~.(.(.@X@XOXOX#X*X*X*X*X-X-X-X<X&X<XP.$ O $ O ; I.;X&X|.&X&X&X$X&X}.#X}.#X#X_._._.(.~.~.W.K.",
"~.~.~.~.(._._.@XOXOX#X*X*X-X-X-X-X-X2X2X<X4XP.* # # O & U.6X>X|.<X&X&X&X|.&X|.$X$X#X#X_._._.(.~.~.~.",
"~.~.~.(._._._.OXOX*X*X*X-X-X2X-X2X,X4X<X3X}.F X # # # * P.3X|.6X<X&X<X&X&X&X&X&X#X$X#X#X}._._.~.U.K.",
"~.(.(._.(._.@X#X#X#X*X=X-X2X2X2X3X3X4X,XwX7.r . . .     1.6X<X<X&X<X<X<X<X&X&X|.&X%X&X#X}._._._.~.^.",
"U._.(._._.OX#X#X*X*X-X-X2X2X2X2X2X0X4X<X4X1.L Z.Z.Z.a.2.D Z.1X>X<X<X<X<X|.<X&X&X,X&X#X#X}.#X}._.(.~.",
"(._.`._._.#X#X#X#X-X-X2X2X2X2X0X4X0X4X<X1X1.L 6XpXyXpXz.J D.4X<X8X<X<X<X<X<X<X<X&X&X&X&X#X$X_.`.`.~.",
"(.{._.@X#X#X%X-X-X-X-X2X2X0X2X2X4X4X4X1X4X4.D 0.e.t.C.r.<.XX,X6X1X<X<X<X<X<X3X<X;X;X&X&X&X$X$X_.`./.",
"/._.`.OX#X#X#X*X-X-X3X2X2X2X0X2X4X4X4X<XtXp.K p.Q G ].[.,.oX,X7X1X7X7X1X1X3X3X8X3X<X&X&X&X$X}.}._.(.",
"_._._.OX#X#X-X-X2X2X2X0X0X5X0X0X4XwX4X1XyXP.K j.i.^ 5XXX,.oX1X7X1X1X3X9X1X1X3X1X3X<X;X;X&X&X$X#X`.`.",
"`._.OXOX#X*X-X;X2X2X2X2X0X0X5X4XwX4XwX,XwX].P 2.@.i 9.XX<.qXwX1X1X1X1X1X1X1X4X1X8X3X<X;X;X&X$X$X`._.",
").`.+X$X$X=X%X2X2X3X3X4X4X5X4X4X4XwXwXrXeXD.8 9 6 u y H Y e.].wXwX1X7XtXwX9X1X4X3X4X<X<X&X&X&X$X+X`.",
").`.+X$X$X;X&X2X2X3X4X4X0X0XwXwXwXwXrXrXaXD.7 7 7 1 d 2 , , 3 E  XuXrXrXtXwX4X1X1X3X3X<X;X;X&X$X#X_.",
"/.`.+X$X$X=X;X2X<X4X3X0X4X4X4XwXwXwXrXrXeXD.7 7 7 3 7 h m y 6 2 y S.uX1XrXtX9X9X1X9X3X8X<X;X;X=X$X_.",
"`.`.+X$X$X;X-X-X3X0X0X4X4XwXwXwXwXrXrX<X<XZ.f 7 6 4 7 z x 0 y m j j 5./.rXtXtX9X1X9X3X<X<X<X-X%X#X#X",
").`.+X$X=X;X;X3X3X3X4X5X0XwXwXrXeXeX,X~.5XZ.d 2 1 < d z 9 0 m z j k b r.eX7XtX4X9X9X8X3X3X2X2X%X#X}.",
").`.+X$X&X&X;X3X3X4X4X4XwX3X,X&X}.U.L.l.x.~ B t - - 5 3 4 y m v c M N B 7XtXtXtX4X9X1X3X<X2X2X%X#X}.",
"`.`.+X$X$X;X;X3X3X3X4X0X3Xl.t.w.%.@.#.[ ' ' ] T e w % e t 6 h M A S Z n r.uX7XtX9X1X3X<X3X2X%X-X#X#X",
").`.+X$X=X&X;X3X3X3X4X0X,Xt.#. . . . .[ [ ] ( / C I a s a 4 g c A S Z l p wXtXwX4X1X1X3X,X2X2X-X#X#X",
"`.`.$X$X$X&X;X3X3X4X4X4XyXx.#. . ...} [ [ [ [ ' ' ( _ V ^ I x k c N N h 1 T.uX4X4X4X4X2X2X2X-X-X#X}.",
").`.+X$X$X;X&X2X3X3X0X4XiXT.#. .....} [ ` ` ` ^ C _ s s I ^ ^ m l N k 9 1 C.uX4X4X4X3X4X2X2X-X-X#X#X",
").`.`.$X$X=X;X<X<X3X2X4X4XyX:.| X...| { [ ` _ I s e % % i ^ ^ ( z j g 9 , C.aX4X4X4X4X2X,X%X%X%X#X_.",
").`.+XOX=X=X;X-X<X3X1X4X4XeXb.o.X.X.| } ` ' ( C > o & & & a / ) / h h 3 6 .XyX4X0X4X0X3X-X-X;X$X$X@X",
").(.+X$X=X$X;X;X3X3X4X4X,XuXG.o.X.O.o.} ` _ ( C <   & q & q i ^ } V 1 1 ! uX4XwX4X5X3X2X3X-X-X$X#X`.",
"Q.).`.+X$X&X&X;X;X<X3X3X1XiXF.o.*.O.O.} [ ` _ _ C 4 = q & & % q e e 3 8 S.iX4X4X0X3X3X-X2X;X$X$X#X`.",
"Q.).`.@X$X$X=X;X;X<X3X3X1X0X.X>.*.O.X.} [ ` ` _ ) _ p $ & & & & @ % - J c.yX9X4X3X3X<X3X;X;X$X#XOX`.",
"Q.).`.@X+X$X=X;X;X;X<X3X3X3X8X:.>.>.X. .[ [ ` ` ` ) [ I * % q q q % - +.y.0X4X0X2X3X2X;X-X;X$X#XOX(.",
"Q.!.).`.$X#X$X;X;X-X;X<X<X4X>Xv.>.>.$. . .[ } [ [ [ ` { / 0 = @ @   H t.l.1X4X4X3X2X2X-X-X#X#XOX@X~.",
"Q.Q.(.@XOX+X$X=X$X;X-X<X<X3X:Xb.>.>.$.#. .{ { |  .#.%.w.t.x.0.W W 0.|.<X3X4X3X3X3X3X-X-X=X$X#X`.(.(.",
"E.Q.^.).@X+X$X=X;X;X-X;X8X<X;Xu.-.-.&.%.w.t.x.A.P./.}.<X<X4X0XyXyXyX8X9X4X3X3X2X2X2X-X-X=X$X_.`.~.~.",
"J.I.Q.).).+X+X#X=X;X;X;X&X;X-X'.G.'.I.{.&X<X8X8X8XqX7X7X7X9X8X7X7X3X3X8X8X3X3X3X-X-X-X#X$X#X@X).~.Q.",
"J.E.E.!.).).@XOX#X$X=X;X&X&X;X;X3X4X1X4X8X6X8X8XqX6XqX6X8X9X8X3X8X<X<X3X3X3X2X-X;X*X-X#X#X@X_.~.^.R.",
"V.J.E.Q.!.).).OXOX#X=X=X;X;X>X>X;X>X>X&X6X&X>X6X>X>X6X6X8X8X8X8X<X<X8X8X>X;X;X;X;X*X#XOXOX_.(.~.R.R.",
"V.J.J.E.Q.!.).@XOX#X+X$X=X$X;X=X>X&X&X&X&X>X>X6X>X>X>X6X8X8X8X;X<X>X>X;X;X;X-X*X$X$X+XOX(.(.~.W.R.H.",
"N.V.J.E.E.Q.!.(.`.@X+X+X:X=X=X+X:X=X:X:X:X:X>X:X:X:X>X>X8X>X&X&X>X&X:X=X;X=X=X$X$X+X@X(.(.^.W.R.H.B.",
"m.m.V.V.E.E.Q.!.~.(.@X+X+X`.+X:X$X:X:X+X:X:X:X:X:X:X:X>X:X=X=X:X=X:X=X:X:X:X$X+XOX@X`.(.W.Q.R.H.H.M.",
"m.m.N.V.V.V.E.Q.Q.^.).@X@X+X`.`.}.`.:X:X:X:X:X:X=X:X:X=X+X=X:X+X+X:X:X=X:X+X`.`.@X(.~.^.W.R.J.B.M.n.",
"f.f.m.N.V.V.B.R.Q.Q.!.!.!.).`.`.).`.:X).!.+X:X:X).:X=X:X:X:X+X:X:X`.`.`.@X`.@X).).^.W.R.R.R.N.n.n.h.",
"f.f.f.j.m.N.V.J.J.E.E.Q.!.!.).!.).).!.:X!.).`.).:X`.+X=X+X+X`.`.`.`.).@X).).).^.W.Q.R.H.H.N.n.m.f.s.",
"g.g.f.f.j.m.N.N.V.J.E.R.E.Q.Q.!.!.!.!.!.!.:X).).).`.`.`.`.).`.).).).).).(.Q.^.R.R.R.H.B.M.n.h.h.s.g."
};
