/* XPM */
static char *wall_1[] = {
/* columns rows colors chars-per-pixel */
"50 50 246 2 ",
"   c #060809",
".  c #0E1211",
"X  c #1A1A15",
"o  c #1A1C1B",
"O  c #151716",
"+  c #0E1010",
"@  c #1D201D",
"#  c #24241D",
"$  c #28271F",
"%  c #1B1E21",
"&  c #1D2021",
"*  c #242522",
"=  c #282721",
"-  c #262824",
";  c #2C2B24",
":  c #26292B",
">  c #2B2C2C",
",  c #24262B",
"<  c #302F27",
"1  c #2E302B",
"2  c #2F3025",
"3  c #33332B",
"4  c #323228",
"5  c #2B2E33",
"6  c #252B32",
"7  c #2D3134",
"8  c #2D333A",
"9  c #333434",
"0  c #3B3A34",
"q  c #363639",
"w  c #3A3B3B",
"e  c #373834",
"r  c #201F19",
"t  c #5B0101",
"y  c #5E0E0B",
"u  c #5D100C",
"i  c #62120F",
"p  c #552F2A",
"a  c #692B26",
"s  c #6B3731",
"d  c #46433C",
"f  c #393D45",
"g  c #2F3743",
"h  c #3C4447",
"j  c #3E4453",
"k  c #3F5A5F",
"l  c #3E626F",
"z  c #434545",
"x  c #4B4C4D",
"c  c #474847",
"v  c #534C46",
"b  c #57534D",
"n  c #4A4D53",
"m  c #4C5254",
"M  c #585756",
"N  c #6D524B",
"B  c #645C54",
"V  c #73574F",
"C  c #5C615C",
"Z  c #6B635C",
"A  c #66645B",
"S  c #776759",
"D  c #746E4A",
"F  c #575B64",
"G  c #485268",
"H  c #486468",
"J  c #5D6369",
"K  c #4F6977",
"L  c #696968",
"P  c #746B63",
"I  c #756C67",
"U  c #74716C",
"Y  c #7C746D",
"T  c #7B7466",
"R  c #6B6D72",
"E  c #656C75",
"W  c #726C74",
"Q  c #6B7279",
"!  c #757372",
"~  c #7A7672",
"^  c #7B7A75",
"/  c #76797B",
"(  c #7D7C7B",
")  c #747579",
"_  c #697667",
"`  c #856D59",
"'  c #936C5C",
"]  c #88745D",
"[  c #9B7C5C",
"{  c #887868",
"}  c #987A64",
"|  c #837C74",
" . c #837E7A",
".. c #8A7A77",
"X. c #8C7675",
"o. c #A77964",
"O. c #7C9C3B",
"+. c #7F807D",
"@. c #779863",
"#. c #7A884E",
"$. c #829A50",
"%. c #A9845E",
"&. c #94A951",
"*. c #A6B750",
"=. c #98836A",
"-. c #84817C",
";. c #8B8278",
":. c #9C8A7B",
">. c #988776",
",. c #81886D",
"<. c #A78769",
"1. c #B7936C",
"2. c #A58A73",
"3. c #A78A77",
"4. c #A99279",
"5. c #BE9C74",
"6. c #BC9D7C",
"7. c #B59678",
"8. c #B08D73",
"9. c #AEA773",
"0. c #C19E74",
"q. c #C19F7A",
"w. c #C1967D",
"e. c #C4A27B",
"r. c #C9A57A",
"t. c #D3AA7B",
"y. c #AFCA51",
"u. c #697685",
"i. c #777D84",
"p. c #616E83",
"a. c #4A7681",
"s. c #827A82",
"d. c #348A9A",
"f. c #2897A2",
"g. c #1E9BAB",
"h. c #4F9197",
"j. c #7D848A",
"k. c #798585",
"l. c #738A95",
"z. c #5196A2",
"x. c #7290A3",
"c. c #74A7AE",
"v. c #27B0C2",
"b. c #6ABAC9",
"n. c #72C3D1",
"m. c #8A8683",
"M. c #888787",
"N. c #938C85",
"B. c #958D87",
"V. c #9C938C",
"C. c #97928A",
"Z. c #868B94",
"A. c #86969A",
"S. c #999696",
"D. c #908F95",
"F. c #A2948B",
"G. c #A5998B",
"H. c #A89686",
"J. c #B59C86",
"K. c #A49A93",
"L. c #AB9E94",
"P. c #A59B96",
"I. c #A59188",
"U. c #9BA69B",
"Y. c #BAA286",
"T. c #ABA29A",
"R. c #BAA798",
"E. c #8E9BA4",
"W. c #8D99A6",
"Q. c #949DA4",
"!. c #949EA9",
"~. c #839CBC",
"^. c #A09FA3",
"/. c #96A0A6",
"(. c #9AA1A6",
"). c #95A2AA",
"_. c #9BA5AC",
"`. c #9DA8AF",
"'. c #96ABA4",
"]. c #9DAAB3",
"[. c #9AA9B5",
"{. c #8DAAB4",
"}. c #A2A9AE",
"|. c #A8A6A5",
" X c #BAADA5",
".X c #B6ACA4",
"XX c #A3ADB3",
"oX c #A6AFB7",
"OX c #AAB1B6",
"+X c #AAB3BA",
"@X c #A4B2BB",
"#X c #B5B7B8",
"$X c #B6B2A6",
"%X c #C4A482",
"&X c #C9A681",
"*X c #C7A989",
"=X c #D1AE86",
"-X c #CFB18C",
";X c #D5B188",
":X c #C9B399",
">X c #CFB492",
",X c #C5BBB3",
"<X c #C5B3A5",
"1X c #D1C5B8",
"2X c #E3D2B7",
"3X c #95AECC",
"4X c #98AFCF",
"5X c #99B1CD",
"6X c #98B5D4",
"7X c #8AADC4",
"8X c #B3BAC2",
"9X c #B9BEC6",
"0X c #A2BAD7",
"qX c #AAB8C1",
"wX c #99BCE5",
"eX c #84BDF5",
"rX c #ACC4DC",
"tX c #B5C2CA",
"yX c #9DC3EA",
"uX c #8BC2F5",
"iX c #87C0F5",
"pX c #93C6F6",
"aX c #9BC9F6",
"sX c #9BCCFB",
"dX c #96C8F8",
"fX c #9DD1FF",
"gX c #A6C5E6",
"hX c #B5CDE6",
"jX c #BCD4EA",
"kX c #A3CDF6",
"lX c #A4D2FD",
"zX c #ABD6FB",
"xX c #B5DAF9",
"cX c #BBE2FE",
"vX c #8ACECE",
"bX c #D7D8D4",
"nX c #D1D0CB",
"mX c #C7DAEB",
"MX c #C2DDF6",
"NX c #C7E2FA",
"BX c #D7E9FA",
"VX c #D4E2E7",
"CX c #E7F4FD",
"ZX c #E7ECEB",
"AX c #E3E2DB",
"SX c #A7CCB1",
/* pixels */
"- % , > 8 z 5XxXkXyXwXMXmXrX5X3X5X5X6X6XrXmXjXmXBXxXuXeXeXeXeXeXiXuXMXCXBXmXgXwXwXyX~.G 8 g 6 8 8 5 ",
", o * > 6 j D.S.MXzXaXMXCXmX0X5X3X5X5X5X3X3X6XjXCXCXlXeXeXuXeXuXpXkXCXBXNXhXwXwXwXwXx.G g 8 6 8 8 5 ",
"= @ & , 6 f =.1.J.,XgXkXNXMXgX0X0X5X3X3X3X3X6XjXCXNXzXpXiXiXeXpXpXaXxXMXBXhXgXwXwXwXx.G 6 g 6 8 8 5 ",
"* o % : 6 f } 1.1.<.8.F.oXgXlXxXjXhXhXrXhXhXNXCXCXCXxXdXpXuXeXeXpXaXwXkXgXs.wXkXkXkXu.G g 6 6 8 7 6 ",
"- @ o - , f { e.2.<.<.%.%.3.S.[.gXkXzXxXxXjXNXMXNXBXxXiXpXuXkXNXzXdXwXkX3Xs.wXkXsXzXx.n 6 8 6 8 7 > ",
"# @ o - - g >.=X%X7.8.<.[ [ %.<.2.S.[.wXdXsXpXpXpXxXxXpXpXpXzXxXkXsXsXlX~.u.wXlXdXlXx.f 6 8 6 7 7 6 ",
"# # o - * 8 { t.6.5.6.6.7.2.} [ [ %.<.2.S.3XpXfXsXaXaXaXaXdXdXpXsXsXlX4Xs.W s.yXxXxXu.j 6 8 6 8 7 > ",
"# @ o - * 8 { t.e.5.5.6.7.J.6.8.<.} [ [ %.<.I.).5XaXsXfXsXaXaXkXlXlXwXW W i.X.D.CXBXp.f 7 8 , 7 7 > ",
"$ # X - * 8 ] t.r.0.5.5.5.5.6.J.7.6.7.>.=.%.%.%.1.4.|.6XaXfXlXlXzXcXW.W | ......mXNXE g 8 8 , 8 5 > ",
"# # X - # 6 T t.r.0.e.5.5.5.e.6.6.6.6.6.6.7.:.=.<.<.1.8.H.|.0XkXzXxXB.X.3.H.:.4.rXzXK f 6 6 , 7 5 > ",
"# @ X = # 5 { t.r.r.0.0.5.e.5.5.6.e.6.5.Y.6.6.Y.4.2.=.<.<.1.7.J.OXhXK. .N.H.M.4.jXcXF q 5 5 , 9 > > ",
"# # X ; # : T =Xr.0.e.0.0.0.e.5.6.e.5.5.6.e.*X*X*X*X*XY.J.4.7.7.<.2.8.X...3.:.G.mXVXF 8 5 6 , 7 > 5 ",
"# # X = # : P ;Xe.e.e.e.5.5.r.6.r.} V V D ` 2.` =.{ S ] =.,.T :.S v N M l.x.c.c.c.7XF 7 5 : : 9 : 5 ",
"$ # X # # * P ;Xr.&Xe.5.r.e.%X6.*X8.[ [ =.=.=.=.=.} =.{ ] } { J.N p B z.n.n.SXvXb.c.n 7 5 : > 7 : 9 ",
"$ $ O # # * Z ;X&X&X&Xe.e.%X&X%Xr.8.` ] D b T =.<.S { ] ` ] T 6.A h.z.h.U.'.T.U.c.A.x 7 7 , > 7 - 0 ",
"# $ X = # & Z ;X&X&X&X&Xe.e.&X6.6.r.&X=Xe.1.-X-X&X-X=X=X*X*XY.r.z.v.d.K J A.U.U.U.D.c 1 5 , > 7 : 0 ",
"# $ X # r = B ;X>X;X=Xr.r.r.e.e.%Xe.r.8.=.:.=.=.>.>.:.:.4.*X>X=Xf.g.l l l.'.'.}./.A.c > 7 , 7 7 6 p ",
"$ $ X # # = M 8.o.2.2.r.0.0.0.e.e.%Xt.,.b B A A C A A A M Y.>X&Xz.g.K K +.l.C.K.N.i.z 6 7 & : 1 : z ",
"$ $ X = r = j B B b B q.r.w.e.q.e.e.t.} A +.S s a N ~ ,._ Y.>X=Xh.f.l H H @.V.H.R.M.f > 7 : c d w d ",
"$ ; X = = * z V P Z B %X0.e.e.q.e.e.=X{ C D t t t t a U Z Y.-X*Xz.f.K m m k.V.F.H./ w > 7 > M m e v ",
"$ ; X = # # n I..X|.I.w.q.q.e.e.e.e.=X=.C a y i y u t N L 6.-X*Xz.h.H h b _ S ` V R w > > 9 W F 9 v ",
"$ ; X = = # n L.,X,XT.0.q.q.5.5.5.5.r.>.B S -.| ..;.| V _ Y.R.B.c.h.k h C +.M.3.I E w 5 > 9 J F 5 v ",
"$ ; X = = r c I.I.I.N.1.0.0.0.1.5.5.r.=._ s a a a a a N U 6.j.@.y.#.k h _ k.Z.H.U L q 5 > q W J > N ",
"$ 2 X = = # z I.J.L.:.8.7.7.5.7.7.7.7.>.L V t t t t y Y I *.*.y.*.$.H h _ M.D.F.R J q > > d s.L 1 B ",
"$ 4 r = = , c o.w.J.3.7.w.6.J.J.7.5.:X-.P m.S a i s Y -._ 9.&.&.#.$._ n U |.P.L.s.F q 5 > 5 z w < B ",
"$ 2 r = ; = n o.o.o.o.} ' ' } ' 3..Xk.L Y  .( ( ^ ( ,.-._ |.L.X.D O.$.h L S.S.J.<XZ 9 > > = > > - B ",
"; 4 r = ; # n I.o.o.o.' ' ' ' L.|._ _ ! ~ U c v v z x -.U ~ S.<XT #.&.B R  .B.B.K.F 3 5 5 , 9 > 3 Z ",
"; 4 r # ; # M J.o.o.o.o.} o.,XP.U ! ^ / A U ~ ~ Y ~ ~ ^ U +.~ D.nXnX1X1X XP.F.:.W J 5 3 > , 9 ; 0 Z ",
"; 4 # # ; # M 7.o.o.3.o.J.nXB.~ ( ^ ! +.A C b C b b b M ! ( +.^ M.bXZXbX2X1X<XL.M.L 5 9 > > 9 ; w S ",
"; 4 # # ; # M J.o.<.H.3.>...T ;.+.^ +.M.H.C.:.G.V.V.G.V.:.k.( -.^ ;.nXAXAXbX2X1X,XJ 7 9 > > e 1 d P ",
"2 4 $ # ; $ m 4.3.3.=.{ { { ;.;.( ^ Q C.G.4.G.G.H.G.G.V.T.k.k.-.-.;...#XAXbXnXnX,XJ > q > 7 9 1 d P ",
"; 3 $ # 2 = b R.Y.<XI.T S ;.;.( / / Q A.@XqX9X9XtXtX#XA.i./ +.+.-.M.B.s.}.AXbXbXnXF 5 q > 1 9 1 d I ",
"; 3 = # 2 $ x :X:X:X4.=.{ ;.| ^ ~ U / {.+X@X@X@XqX@XqX@Xu.R ) +.-.N.N.C.B.S.bXZXnXn 5 p > 8 9 < v I ",
"< 3 = # 4 - m R.R.:X:.*X:.{ | Y R R A.].[.).).).).).`.@Xl.J R ( +.m.B.C.K.V.D.bXmXx 5 g > 9 0 > v { ",
"< 3 ; # 2 = b R.Y.*X:.Y.:.T | ~ ! R Q.@X[.[.).).).[.{.@X).J R ( ( m.B.S.G.T.K.V.oXn 5 q , 9 9 > b Y ",
"< 3 = # 3 = m Y.:X2X4.1XG.,.;./ R k.XX].@X].].[.].].].@X@XK E ( ( ;.B.V.S.K.T.T.S.n 3 q > 9 9 > b | ",
"2 e ; # 3 ; x $XnXK.{ L { ~ ~ ! ) W.{.).).).E.).E.).).).].l.E ( ( -.B.V.K.P.L..X|.n 9 q ; 9 1 > B ~ ",
"2 3 ; # 4 ; x AXB.x ;.A { Y ~ U j._.).).).).E.'.).).).).].A.E /  .m.B.V.P.P.T. X|.h 9 q > 9 9 > B | ",
"4 0 ; # 3 ; b |.! S =.4.>.( ~ R j.].].].].].`.`.`.`.`.].].@Xu.Q ( M.B.S.P.L.T. X|.z 7 w > q 3 3 B ..",
"4 3 4 # 3 ; x i.P Z >.J.:.| U i.Q.).).`.`.).).`.`.`.[.].].@Xl.Q ( M.C.S.K.P.|. X^.z 9 q > q 7 3 Z  .",
"2 0 1 @ 3 1 x G.S Z ;.G.>.~ ! D.Q.!.E.E.E.W.Q.Q.Q.Q.).).).[.!.u.s.m.C.K.P.P.T. XP.h 8 e : q 1 e P  .",
"$ 4 2 @ 4 ; x L.S B >.:.;.Y  .W.).!.).Q./.)._.!.)._.[.`.].[.].u.i.m.C.S.K.P.T. XQ.z e e : e 1 e P | ",
"$ 4 ; X - = b T.T B ;.2.;.^ Z.).`.)./.).S.Q.).Q.!._.`.`.[._.@XZ.u.M.B.S.K.K.T. XS.f 7 5 : 9 1 q P  .",
"# @ .     . M Q h z P >.{ ( D.).(.!.!.Q.Q.Q.Q.Q.|.Q._.}._.!.XX!.u.M.N.B.F.K.L. XS.7 O . & 9 > p P  .",
".       + O n M.x w L ;.{ D.E.}._.}.}.}.XXXXXXXXoXOX+X@XXXoX+X@Xi.Z.V.F.P.P.P..XD.> O + @ e 1 d P -.",
".       o @ m M.P I B.:.N.Q.XXOXXXOX+X+X#X#X8X9X9X9X8X8X8X8X8X8X!.Z.Q.^.T.L.T.R.D.> o O O e 1 v P  .",
".   +   : - c #X1XAXV.N.;.M.XX}.}.XX}.XXOXXXOXOXOX+X+XOXOX#X+X+X[.u.s.D.P.L.L. XZ.5 , % O e 2 c P  .",
". . . & & ; c $X$X$X..L U D.(._.).Q.(./.Q.Q.D.Q.Q.S.Q.!.!.`.`.`.@XE W B.V.K.L. Xi.6 5 o o e 1 v P | ",
". . + # @ - c M.-..XU./ j.OX`._.(._.(.(.(.(.Q.(.(.(.(.(._.`.}.}.@XD.E D.F.K.T. Xk.: , O @ d 4 B P | ",
"X . . . @ 1 z S.T.S.(.E (.}.}.`.}._._.}.}.}.(.(.|.'.}.}.}.OX@XOXOX_.E M.F.G.L. Xj.9 5 o - w 3 A T ;."
};
